<ttFont>
    <TTGlyph name="A" xMin="0" yMin="0" xMax="709" yMax="677">
      <contour>
        <pt x="0" y="0" on="1"/>
        <pt x="6" y="40" on="1"/>
        <pt x="59" y="47" on="0"/>
        <pt x="88" y="68" on="1"/>
        <pt x="310" y="677" on="1"/>
        <pt x="392" y="677" on="1"/>
        <pt x="632" y="67" on="1"/>
        <pt x="657" y="48" on="0"/>
        <pt x="709" y="40" on="1"/>
        <pt x="704" y="0" on="1"/>
        <pt x="419" y="0" on="1"/>
        <pt x="425" y="40" on="1"/>
        <pt x="489" y="47" on="0"/>
        <pt x="520" y="67" on="1"/>
        <pt x="459" y="227" on="1"/>
        <pt x="216" y="227" on="1"/>
        <pt x="159" y="66" on="1"/>
        <pt x="192" y="48" on="0"/>
        <pt x="259" y="40" on="1"/>
        <pt x="254" y="0" on="1"/>
      </contour>
      <contour>
        <pt x="236" y="283" on="1"/>
        <pt x="438" y="283" on="1"/>
        <pt x="333" y="557" on="1"/>
      </contour>
    </TTGlyph>
    <TTGlyph name="AE" xMin="0" yMin="0" xMax="848" yMax="676">
      <contour>
        <pt x="834" y="514" on="1"/>
        <pt x="819" y="509" on="0"/>
        <pt x="793" y="509" on="0"/>
        <pt x="788" y="510" on="1"/>
        <pt x="774" y="575" on="0"/>
        <pt x="738" y="619" on="1"/>
        <pt x="533" y="619" on="1"/>
        <pt x="533" y="374" on="1"/>
        <pt x="663" y="374" on="1"/>
        <pt x="686" y="374" on="0"/>
        <pt x="718" y="414" on="0"/>
        <pt x="723" y="447" on="1"/>
        <pt x="757" y="447" on="1"/>
        <pt x="757" y="237" on="1"/>
        <pt x="723" y="237" on="1"/>
        <pt x="714" y="318" on="0"/>
        <pt x="663" y="318" on="1"/>
        <pt x="533" y="318" on="1"/>
        <pt x="533" y="61" on="1"/>
        <pt x="753" y="61" on="1"/>
        <pt x="789" y="109" on="0"/>
        <pt x="804" y="182" on="1"/>
        <pt x="818" y="184" on="0"/>
        <pt x="830" y="184" on="0"/>
        <pt x="848" y="182" on="1"/>
        <pt x="838" y="0" on="1"/>
        <pt x="335" y="0" on="1"/>
        <pt x="341" y="40" on="1"/>
        <pt x="412" y="48" on="0"/>
        <pt x="438" y="68" on="1"/>
        <pt x="438" y="318" on="1"/>
        <pt x="285" y="318" on="1"/>
        <pt x="146" y="61" on="1"/>
        <pt x="183" y="45" on="0"/>
        <pt x="237" y="40" on="1"/>
        <pt x="232" y="0" on="1"/>
        <pt x="0" y="0" on="1"/>
        <pt x="6" y="40" on="1"/>
        <pt x="35" y="45" on="0"/>
        <pt x="73" y="75" on="0"/>
        <pt x="91" y="106" on="1"/>
        <pt x="410" y="676" on="1"/>
        <pt x="825" y="676" on="1"/>
      </contour>
      <contour>
        <pt x="438" y="374" on="1"/>
        <pt x="438" y="598" on="1"/>
        <pt x="316" y="374" on="1"/>
      </contour>
    </TTGlyph>
    <TTGlyph name="Aacute" xMin="0" yMin="0" xMax="709" yMax="874">
      <contour>
        <pt x="0" y="0" on="1"/>
        <pt x="6" y="40" on="1"/>
        <pt x="59" y="47" on="0"/>
        <pt x="88" y="68" on="1"/>
        <pt x="310" y="677" on="1"/>
        <pt x="392" y="677" on="1"/>
        <pt x="632" y="67" on="1"/>
        <pt x="657" y="48" on="0"/>
        <pt x="709" y="40" on="1"/>
        <pt x="704" y="0" on="1"/>
        <pt x="419" y="0" on="1"/>
        <pt x="425" y="40" on="1"/>
        <pt x="489" y="47" on="0"/>
        <pt x="520" y="67" on="1"/>
        <pt x="459" y="227" on="1"/>
        <pt x="216" y="227" on="1"/>
        <pt x="159" y="66" on="1"/>
        <pt x="192" y="48" on="0"/>
        <pt x="259" y="40" on="1"/>
        <pt x="254" y="0" on="1"/>
      </contour>
      <contour>
        <pt x="236" y="283" on="1"/>
        <pt x="438" y="283" on="1"/>
        <pt x="333" y="557" on="1"/>
      </contour>
      <contour>
        <pt x="377" y="856" on="1"/>
        <pt x="388" y="874" on="0"/>
        <pt x="427" y="874" on="0"/>
        <pt x="450" y="851" on="0"/>
        <pt x="450" y="817" on="0"/>
        <pt x="423" y="795" on="1"/>
        <pt x="311" y="705" on="1"/>
        <pt x="287" y="731" on="1"/>
      </contour>
    </TTGlyph>
    <TTGlyph name="Acircumflex" xMin="0" yMin="0" xMax="709" yMax="873">
      <contour>
        <pt x="0" y="0" on="1"/>
        <pt x="6" y="40" on="1"/>
        <pt x="59" y="47" on="0"/>
        <pt x="88" y="68" on="1"/>
        <pt x="310" y="677" on="1"/>
        <pt x="392" y="677" on="1"/>
        <pt x="632" y="67" on="1"/>
        <pt x="657" y="48" on="0"/>
        <pt x="709" y="40" on="1"/>
        <pt x="704" y="0" on="1"/>
        <pt x="419" y="0" on="1"/>
        <pt x="425" y="40" on="1"/>
        <pt x="489" y="47" on="0"/>
        <pt x="520" y="67" on="1"/>
        <pt x="459" y="227" on="1"/>
        <pt x="216" y="227" on="1"/>
        <pt x="159" y="66" on="1"/>
        <pt x="192" y="48" on="0"/>
        <pt x="259" y="40" on="1"/>
        <pt x="254" y="0" on="1"/>
      </contour>
      <contour>
        <pt x="236" y="283" on="1"/>
        <pt x="438" y="283" on="1"/>
        <pt x="333" y="557" on="1"/>
      </contour>
      <contour>
        <pt x="316" y="856" on="1"/>
        <pt x="330" y="873" on="0"/>
        <pt x="369" y="873" on="0"/>
        <pt x="383" y="856" on="1"/>
        <pt x="483" y="741" on="1"/>
        <pt x="459" y="715" on="1"/>
        <pt x="349" y="798" on="1"/>
        <pt x="240" y="715" on="1"/>
        <pt x="216" y="741" on="1"/>
      </contour>
    </TTGlyph>
    <TTGlyph name="Adieresis" xMin="0" yMin="0" xMax="709" yMax="849">
      <contour>
        <pt x="0" y="0" on="1"/>
        <pt x="6" y="40" on="1"/>
        <pt x="59" y="47" on="0"/>
        <pt x="88" y="68" on="1"/>
        <pt x="310" y="677" on="1"/>
        <pt x="392" y="677" on="1"/>
        <pt x="632" y="67" on="1"/>
        <pt x="657" y="48" on="0"/>
        <pt x="709" y="40" on="1"/>
        <pt x="704" y="0" on="1"/>
        <pt x="419" y="0" on="1"/>
        <pt x="425" y="40" on="1"/>
        <pt x="489" y="47" on="0"/>
        <pt x="520" y="67" on="1"/>
        <pt x="459" y="227" on="1"/>
        <pt x="216" y="227" on="1"/>
        <pt x="159" y="66" on="1"/>
        <pt x="192" y="48" on="0"/>
        <pt x="259" y="40" on="1"/>
        <pt x="254" y="0" on="1"/>
      </contour>
      <contour>
        <pt x="236" y="283" on="1"/>
        <pt x="438" y="283" on="1"/>
        <pt x="333" y="557" on="1"/>
      </contour>
      <contour>
        <pt x="310" y="736" on="0"/>
        <pt x="208" y="736" on="0"/>
        <pt x="208" y="849" on="0"/>
        <pt x="310" y="849" on="0"/>
      </contour>
      <contour>
        <pt x="438" y="736" on="1"/>
        <pt x="388" y="736" on="0"/>
        <pt x="388" y="849" on="0"/>
        <pt x="438" y="849" on="1"/>
        <pt x="490" y="849" on="0"/>
        <pt x="490" y="736" on="0"/>
      </contour>
    </TTGlyph>
    <TTGlyph name="Agrave" xMin="0" yMin="0" xMax="709" yMax="874">
      <contour>
        <pt x="0" y="0" on="1"/>
        <pt x="6" y="40" on="1"/>
        <pt x="59" y="47" on="0"/>
        <pt x="88" y="68" on="1"/>
        <pt x="310" y="677" on="1"/>
        <pt x="392" y="677" on="1"/>
        <pt x="632" y="67" on="1"/>
        <pt x="657" y="48" on="0"/>
        <pt x="709" y="40" on="1"/>
        <pt x="704" y="0" on="1"/>
        <pt x="419" y="0" on="1"/>
        <pt x="425" y="40" on="1"/>
        <pt x="489" y="47" on="0"/>
        <pt x="520" y="67" on="1"/>
        <pt x="459" y="227" on="1"/>
        <pt x="216" y="227" on="1"/>
        <pt x="159" y="66" on="1"/>
        <pt x="192" y="48" on="0"/>
        <pt x="259" y="40" on="1"/>
        <pt x="254" y="0" on="1"/>
      </contour>
      <contour>
        <pt x="236" y="283" on="1"/>
        <pt x="438" y="283" on="1"/>
        <pt x="333" y="557" on="1"/>
      </contour>
      <contour>
        <pt x="273" y="795" on="1"/>
        <pt x="246" y="817" on="0"/>
        <pt x="246" y="851" on="0"/>
        <pt x="269" y="874" on="0"/>
        <pt x="308" y="874" on="0"/>
        <pt x="319" y="856" on="1"/>
        <pt x="409" y="731" on="1"/>
        <pt x="385" y="705" on="1"/>
      </contour>
    </TTGlyph>
    <TTGlyph name="Aring" xMin="0" yMin="0" xMax="709" yMax="879">
      <contour>
        <pt x="0" y="0" on="1"/>
        <pt x="6" y="40" on="1"/>
        <pt x="59" y="47" on="0"/>
        <pt x="88" y="68" on="1"/>
        <pt x="310" y="677" on="1"/>
        <pt x="392" y="677" on="1"/>
        <pt x="632" y="67" on="1"/>
        <pt x="657" y="48" on="0"/>
        <pt x="709" y="40" on="1"/>
        <pt x="704" y="0" on="1"/>
        <pt x="419" y="0" on="1"/>
        <pt x="425" y="40" on="1"/>
        <pt x="489" y="47" on="0"/>
        <pt x="520" y="67" on="1"/>
        <pt x="459" y="227" on="1"/>
        <pt x="216" y="227" on="1"/>
        <pt x="159" y="66" on="1"/>
        <pt x="192" y="48" on="0"/>
        <pt x="259" y="40" on="1"/>
        <pt x="254" y="0" on="1"/>
      </contour>
      <contour>
        <pt x="236" y="283" on="1"/>
        <pt x="438" y="283" on="1"/>
        <pt x="333" y="557" on="1"/>
      </contour>
      <contour>
        <pt x="257" y="751" on="0"/>
        <pt x="257" y="829" on="0"/>
        <pt x="307" y="879" on="0"/>
        <pt x="390" y="879" on="0"/>
        <pt x="442" y="829" on="0"/>
        <pt x="442" y="751" on="0"/>
        <pt x="390" y="701" on="0"/>
        <pt x="307" y="701" on="0"/>
      </contour>
      <contour>
        <pt x="328" y="743" on="0"/>
        <pt x="368" y="743" on="0"/>
        <pt x="397" y="771" on="0"/>
        <pt x="397" y="810" on="0"/>
        <pt x="368" y="838" on="0"/>
        <pt x="328" y="838" on="0"/>
        <pt x="302" y="810" on="0"/>
        <pt x="302" y="770" on="0"/>
      </contour>
    </TTGlyph>
    <TTGlyph name="Atilde" xMin="0" yMin="0" xMax="709" yMax="848">
      <contour>
        <pt x="0" y="0" on="1"/>
        <pt x="6" y="40" on="1"/>
        <pt x="59" y="47" on="0"/>
        <pt x="88" y="68" on="1"/>
        <pt x="310" y="677" on="1"/>
        <pt x="392" y="677" on="1"/>
        <pt x="632" y="67" on="1"/>
        <pt x="657" y="48" on="0"/>
        <pt x="709" y="40" on="1"/>
        <pt x="704" y="0" on="1"/>
        <pt x="419" y="0" on="1"/>
        <pt x="425" y="40" on="1"/>
        <pt x="489" y="47" on="0"/>
        <pt x="520" y="67" on="1"/>
        <pt x="459" y="227" on="1"/>
        <pt x="216" y="227" on="1"/>
        <pt x="159" y="66" on="1"/>
        <pt x="192" y="48" on="0"/>
        <pt x="259" y="40" on="1"/>
        <pt x="254" y="0" on="1"/>
      </contour>
      <contour>
        <pt x="236" y="283" on="1"/>
        <pt x="438" y="283" on="1"/>
        <pt x="333" y="557" on="1"/>
      </contour>
      <contour>
        <pt x="195" y="790" on="0"/>
        <pt x="251" y="848" on="0"/>
        <pt x="314" y="848" on="0"/>
        <pt x="393" y="805" on="0"/>
        <pt x="413" y="805" on="1"/>
        <pt x="447" y="805" on="0"/>
        <pt x="484" y="848" on="1"/>
        <pt x="502" y="841" on="0"/>
        <pt x="519" y="827" on="1"/>
        <pt x="506" y="795" on="0"/>
        <pt x="450" y="738" on="0"/>
        <pt x="386" y="738" on="0"/>
        <pt x="308" y="781" on="0"/>
        <pt x="287" y="781" on="1"/>
        <pt x="254" y="781" on="0"/>
        <pt x="217" y="738" on="1"/>
        <pt x="200" y="742" on="0"/>
        <pt x="182" y="759" on="1"/>
      </contour>
    </TTGlyph>
    <TTGlyph name="B" xMin="43" yMin="0" xMax="601" yMax="676">
      <contour>
        <pt x="329" y="676" on="1"/>
        <pt x="572" y="676" on="0"/>
        <pt x="572" y="507" on="1"/>
        <pt x="572" y="395" on="0"/>
        <pt x="454" y="360" on="1"/>
        <pt x="523" y="339" on="0"/>
        <pt x="601" y="252" on="0"/>
        <pt x="601" y="191" on="1"/>
        <pt x="601" y="103" on="0"/>
        <pt x="472" y="0" on="0"/>
        <pt x="357" y="0" on="1"/>
        <pt x="43" y="0" on="1"/>
        <pt x="49" y="40" on="1"/>
        <pt x="111" y="47" on="0"/>
        <pt x="146" y="68" on="1"/>
        <pt x="146" y="608" on="1"/>
        <pt x="111" y="629" on="0"/>
        <pt x="43" y="636" on="1"/>
        <pt x="48" y="676" on="1"/>
      </contour>
      <contour>
        <pt x="241" y="53" on="1"/>
        <pt x="357" y="53" on="1"/>
        <pt x="429" y="53" on="0"/>
        <pt x="503" y="123" on="0"/>
        <pt x="503" y="257" on="0"/>
        <pt x="416" y="330" on="0"/>
        <pt x="330" y="330" on="1"/>
        <pt x="241" y="330" on="1"/>
      </contour>
      <contour>
        <pt x="241" y="383" on="1"/>
        <pt x="331" y="383" on="1"/>
        <pt x="407" y="383" on="0"/>
        <pt x="478" y="443" on="0"/>
        <pt x="478" y="567" on="0"/>
        <pt x="406" y="626" on="0"/>
        <pt x="328" y="626" on="1"/>
        <pt x="298" y="626" on="0"/>
        <pt x="241" y="623" on="1"/>
      </contour>
    </TTGlyph>
    <TTGlyph name="C" xMin="48" yMin="-7" xMax="583" yMax="682">
      <contour>
        <pt x="354" y="-7" on="1"/>
        <pt x="195" y="-7" on="0"/>
        <pt x="48" y="159" on="0"/>
        <pt x="48" y="336" on="1"/>
        <pt x="48" y="682" on="0"/>
        <pt x="354" y="682" on="1"/>
        <pt x="474" y="682" on="0"/>
        <pt x="536" y="623" on="1"/>
        <pt x="570" y="590" on="0"/>
        <pt x="570" y="506" on="0"/>
        <pt x="533" y="458" on="0"/>
        <pt x="486" y="458" on="0"/>
        <pt x="451" y="481" on="0"/>
        <pt x="446" y="500" on="1"/>
        <pt x="466" y="529" on="0"/>
        <pt x="466" y="590" on="0"/>
        <pt x="405" y="627" on="0"/>
        <pt x="355" y="627" on="1"/>
        <pt x="248" y="627" on="0"/>
        <pt x="154" y="490" on="0"/>
        <pt x="154" y="182" on="0"/>
        <pt x="246" y="48" on="0"/>
        <pt x="354" y="48" on="1"/>
        <pt x="389" y="48" on="0"/>
        <pt x="428" y="62" on="1"/>
        <pt x="503" y="90" on="0"/>
        <pt x="533" y="173" on="1"/>
        <pt x="583" y="155" on="1"/>
        <pt x="567" y="112" on="0"/>
        <pt x="513" y="47" on="0"/>
        <pt x="461" y="15" on="0"/>
        <pt x="430" y="6" on="1"/>
        <pt x="386" y="-7" on="0"/>
      </contour>
    </TTGlyph>
    <TTGlyph name="Ccedilla" xMin="48" yMin="-220" xMax="583" yMax="682">
      <contour>
        <pt x="48" y="336" on="1"/>
        <pt x="48" y="682" on="0"/>
        <pt x="354" y="682" on="1"/>
        <pt x="474" y="682" on="0"/>
        <pt x="536" y="623" on="1"/>
        <pt x="570" y="590" on="0"/>
        <pt x="570" y="506" on="0"/>
        <pt x="533" y="458" on="0"/>
        <pt x="486" y="458" on="0"/>
        <pt x="451" y="481" on="0"/>
        <pt x="446" y="500" on="1"/>
        <pt x="466" y="529" on="0"/>
        <pt x="466" y="590" on="0"/>
        <pt x="405" y="627" on="0"/>
        <pt x="355" y="627" on="1"/>
        <pt x="248" y="627" on="0"/>
        <pt x="154" y="490" on="0"/>
        <pt x="154" y="182" on="0"/>
        <pt x="246" y="48" on="0"/>
        <pt x="354" y="48" on="1"/>
        <pt x="389" y="48" on="0"/>
        <pt x="428" y="62" on="1"/>
        <pt x="503" y="90" on="0"/>
        <pt x="533" y="173" on="1"/>
        <pt x="583" y="155" on="1"/>
        <pt x="567" y="112" on="0"/>
        <pt x="513" y="47" on="0"/>
        <pt x="461" y="15" on="0"/>
        <pt x="430" y="6" on="1"/>
        <pt x="373" y="-11" on="0"/>
        <pt x="327" y="-6" on="1"/>
        <pt x="312" y="-50" on="1"/>
        <pt x="352" y="-57" on="0"/>
        <pt x="394" y="-96" on="0"/>
        <pt x="394" y="-171" on="0"/>
        <pt x="335" y="-220" on="0"/>
        <pt x="243" y="-220" on="0"/>
        <pt x="193" y="-177" on="0"/>
        <pt x="193" y="-132" on="0"/>
        <pt x="212" y="-107" on="0"/>
        <pt x="239" y="-107" on="0"/>
        <pt x="248" y="-111" on="1"/>
        <pt x="244" y="-127" on="0"/>
        <pt x="244" y="-133" on="1"/>
        <pt x="244" y="-156" on="0"/>
        <pt x="272" y="-184" on="0"/>
        <pt x="292" y="-184" on="1"/>
        <pt x="339" y="-184" on="0"/>
        <pt x="339" y="-130" on="1"/>
        <pt x="339" y="-90" on="0"/>
        <pt x="280" y="-82" on="1"/>
        <pt x="260" y="-60" on="1"/>
        <pt x="294" y="-3" on="1"/>
        <pt x="166" y="11" on="0"/>
        <pt x="48" y="176" on="0"/>
      </contour>
    </TTGlyph>
    <TTGlyph name="D" xMin="43" yMin="0" xMax="663" yMax="676">
      <contour>
        <pt x="292" y="676" on="1"/>
        <pt x="478" y="676" on="0"/>
        <pt x="663" y="513" on="0"/>
        <pt x="663" y="160" on="0"/>
        <pt x="477" y="0" on="0"/>
        <pt x="286" y="0" on="1"/>
        <pt x="43" y="0" on="1"/>
        <pt x="49" y="40" on="1"/>
        <pt x="111" y="47" on="0"/>
        <pt x="146" y="68" on="1"/>
        <pt x="146" y="608" on="1"/>
        <pt x="110" y="628" on="0"/>
        <pt x="43" y="636" on="1"/>
        <pt x="48" y="676" on="1"/>
      </contour>
      <contour>
        <pt x="307" y="623" on="1"/>
        <pt x="241" y="622" on="1"/>
        <pt x="241" y="53" on="1"/>
        <pt x="304" y="53" on="1"/>
        <pt x="431" y="53" on="0"/>
        <pt x="556" y="181" on="0"/>
        <pt x="556" y="493" on="0"/>
        <pt x="433" y="623" on="0"/>
      </contour>
    </TTGlyph>
    <TTGlyph name="E" xMin="43" yMin="0" xMax="592" yMax="676">
      <contour>
        <pt x="567" y="514" on="1"/>
        <pt x="555" y="509" on="0"/>
        <pt x="526" y="509" on="0"/>
        <pt x="521" y="510" on="1"/>
        <pt x="507" y="575" on="0"/>
        <pt x="471" y="619" on="1"/>
        <pt x="241" y="619" on="1"/>
        <pt x="241" y="370" on="1"/>
        <pt x="396" y="381" on="1"/>
        <pt x="439" y="384" on="0"/>
        <pt x="456" y="452" on="1"/>
        <pt x="490" y="452" on="1"/>
        <pt x="490" y="242" on="1"/>
        <pt x="456" y="242" on="1"/>
        <pt x="441" y="317" on="0"/>
        <pt x="395" y="320" on="1"/>
        <pt x="241" y="331" on="1"/>
        <pt x="241" y="61" on="1"/>
        <pt x="497" y="61" on="1"/>
        <pt x="533" y="109" on="0"/>
        <pt x="548" y="182" on="1"/>
        <pt x="562" y="184" on="0"/>
        <pt x="574" y="184" on="0"/>
        <pt x="592" y="182" on="1"/>
        <pt x="582" y="0" on="1"/>
        <pt x="43" y="0" on="1"/>
        <pt x="49" y="40" on="1"/>
        <pt x="120" y="48" on="0"/>
        <pt x="146" y="68" on="1"/>
        <pt x="146" y="608" on="1"/>
        <pt x="110" y="628" on="0"/>
        <pt x="43" y="636" on="1"/>
        <pt x="48" y="676" on="1"/>
        <pt x="558" y="676" on="1"/>
      </contour>
    </TTGlyph>
    <TTGlyph name="Eacute" xMin="43" yMin="0" xMax="592" yMax="874">
      <contour>
        <pt x="365" y="856" on="1"/>
        <pt x="376" y="874" on="0"/>
        <pt x="415" y="874" on="0"/>
        <pt x="438" y="851" on="0"/>
        <pt x="438" y="817" on="0"/>
        <pt x="411" y="795" on="1"/>
        <pt x="299" y="705" on="1"/>
        <pt x="275" y="731" on="1"/>
      </contour>
      <contour>
        <pt x="567" y="514" on="1"/>
        <pt x="552" y="509" on="0"/>
        <pt x="526" y="509" on="0"/>
        <pt x="521" y="510" on="1"/>
        <pt x="507" y="575" on="0"/>
        <pt x="471" y="619" on="1"/>
        <pt x="241" y="619" on="1"/>
        <pt x="241" y="370" on="1"/>
        <pt x="396" y="381" on="1"/>
        <pt x="439" y="384" on="0"/>
        <pt x="456" y="452" on="1"/>
        <pt x="490" y="452" on="1"/>
        <pt x="490" y="242" on="1"/>
        <pt x="456" y="242" on="1"/>
        <pt x="441" y="317" on="0"/>
        <pt x="395" y="320" on="1"/>
        <pt x="241" y="331" on="1"/>
        <pt x="241" y="61" on="1"/>
        <pt x="497" y="61" on="1"/>
        <pt x="533" y="109" on="0"/>
        <pt x="548" y="182" on="1"/>
        <pt x="562" y="184" on="0"/>
        <pt x="574" y="184" on="0"/>
        <pt x="592" y="182" on="1"/>
        <pt x="582" y="0" on="1"/>
        <pt x="43" y="0" on="1"/>
        <pt x="49" y="40" on="1"/>
        <pt x="120" y="48" on="0"/>
        <pt x="146" y="68" on="1"/>
        <pt x="146" y="608" on="1"/>
        <pt x="110" y="628" on="0"/>
        <pt x="43" y="636" on="1"/>
        <pt x="48" y="676" on="1"/>
        <pt x="558" y="676" on="1"/>
      </contour>
    </TTGlyph>
    <TTGlyph name="Ecircumflex" xMin="43" yMin="0" xMax="592" yMax="873">
      <contour>
        <pt x="304" y="856" on="1"/>
        <pt x="318" y="873" on="0"/>
        <pt x="357" y="873" on="0"/>
        <pt x="371" y="856" on="1"/>
        <pt x="471" y="741" on="1"/>
        <pt x="447" y="715" on="1"/>
        <pt x="337" y="798" on="1"/>
        <pt x="228" y="715" on="1"/>
        <pt x="204" y="741" on="1"/>
      </contour>
      <contour>
        <pt x="567" y="514" on="1"/>
        <pt x="552" y="509" on="0"/>
        <pt x="526" y="509" on="0"/>
        <pt x="521" y="510" on="1"/>
        <pt x="507" y="575" on="0"/>
        <pt x="471" y="619" on="1"/>
        <pt x="241" y="619" on="1"/>
        <pt x="241" y="370" on="1"/>
        <pt x="396" y="381" on="1"/>
        <pt x="439" y="384" on="0"/>
        <pt x="456" y="452" on="1"/>
        <pt x="490" y="452" on="1"/>
        <pt x="490" y="242" on="1"/>
        <pt x="456" y="242" on="1"/>
        <pt x="441" y="317" on="0"/>
        <pt x="395" y="320" on="1"/>
        <pt x="241" y="331" on="1"/>
        <pt x="241" y="61" on="1"/>
        <pt x="497" y="61" on="1"/>
        <pt x="533" y="109" on="0"/>
        <pt x="548" y="182" on="1"/>
        <pt x="562" y="184" on="0"/>
        <pt x="574" y="184" on="0"/>
        <pt x="592" y="182" on="1"/>
        <pt x="582" y="0" on="1"/>
        <pt x="43" y="0" on="1"/>
        <pt x="49" y="40" on="1"/>
        <pt x="120" y="48" on="0"/>
        <pt x="146" y="68" on="1"/>
        <pt x="146" y="608" on="1"/>
        <pt x="110" y="628" on="0"/>
        <pt x="43" y="636" on="1"/>
        <pt x="48" y="676" on="1"/>
        <pt x="558" y="676" on="1"/>
      </contour>
    </TTGlyph>
    <TTGlyph name="Edieresis" xMin="43" yMin="0" xMax="592" yMax="849">
      <contour>
        <pt x="298" y="736" on="0"/>
        <pt x="196" y="736" on="0"/>
        <pt x="196" y="849" on="0"/>
        <pt x="298" y="849" on="0"/>
      </contour>
      <contour>
        <pt x="426" y="736" on="1"/>
        <pt x="376" y="736" on="0"/>
        <pt x="376" y="849" on="0"/>
        <pt x="426" y="849" on="1"/>
        <pt x="478" y="849" on="0"/>
        <pt x="478" y="736" on="0"/>
      </contour>
      <contour>
        <pt x="567" y="514" on="1"/>
        <pt x="552" y="509" on="0"/>
        <pt x="526" y="509" on="0"/>
        <pt x="521" y="510" on="1"/>
        <pt x="507" y="575" on="0"/>
        <pt x="471" y="619" on="1"/>
        <pt x="241" y="619" on="1"/>
        <pt x="241" y="370" on="1"/>
        <pt x="396" y="381" on="1"/>
        <pt x="439" y="384" on="0"/>
        <pt x="456" y="452" on="1"/>
        <pt x="490" y="452" on="1"/>
        <pt x="490" y="242" on="1"/>
        <pt x="456" y="242" on="1"/>
        <pt x="441" y="317" on="0"/>
        <pt x="395" y="320" on="1"/>
        <pt x="241" y="331" on="1"/>
        <pt x="241" y="61" on="1"/>
        <pt x="497" y="61" on="1"/>
        <pt x="533" y="109" on="0"/>
        <pt x="548" y="182" on="1"/>
        <pt x="562" y="184" on="0"/>
        <pt x="574" y="184" on="0"/>
        <pt x="592" y="182" on="1"/>
        <pt x="582" y="0" on="1"/>
        <pt x="43" y="0" on="1"/>
        <pt x="49" y="40" on="1"/>
        <pt x="120" y="48" on="0"/>
        <pt x="146" y="68" on="1"/>
        <pt x="146" y="608" on="1"/>
        <pt x="110" y="628" on="0"/>
        <pt x="43" y="636" on="1"/>
        <pt x="48" y="676" on="1"/>
        <pt x="558" y="676" on="1"/>
      </contour>
    </TTGlyph>
    <TTGlyph name="Egrave" xMin="43" yMin="0" xMax="592" yMax="874">
      <contour>
        <pt x="567" y="514" on="1"/>
        <pt x="552" y="509" on="0"/>
        <pt x="526" y="509" on="0"/>
        <pt x="521" y="510" on="1"/>
        <pt x="507" y="575" on="0"/>
        <pt x="471" y="619" on="1"/>
        <pt x="241" y="619" on="1"/>
        <pt x="241" y="370" on="1"/>
        <pt x="396" y="381" on="1"/>
        <pt x="439" y="384" on="0"/>
        <pt x="456" y="452" on="1"/>
        <pt x="490" y="452" on="1"/>
        <pt x="490" y="242" on="1"/>
        <pt x="456" y="242" on="1"/>
        <pt x="441" y="317" on="0"/>
        <pt x="395" y="320" on="1"/>
        <pt x="241" y="331" on="1"/>
        <pt x="241" y="61" on="1"/>
        <pt x="497" y="61" on="1"/>
        <pt x="533" y="109" on="0"/>
        <pt x="548" y="182" on="1"/>
        <pt x="562" y="184" on="0"/>
        <pt x="574" y="184" on="0"/>
        <pt x="592" y="182" on="1"/>
        <pt x="582" y="0" on="1"/>
        <pt x="43" y="0" on="1"/>
        <pt x="49" y="40" on="1"/>
        <pt x="120" y="48" on="0"/>
        <pt x="146" y="68" on="1"/>
        <pt x="146" y="608" on="1"/>
        <pt x="110" y="628" on="0"/>
        <pt x="43" y="636" on="1"/>
        <pt x="48" y="676" on="1"/>
        <pt x="558" y="676" on="1"/>
      </contour>
      <contour>
        <pt x="261" y="795" on="1"/>
        <pt x="234" y="817" on="0"/>
        <pt x="234" y="851" on="0"/>
        <pt x="257" y="874" on="0"/>
        <pt x="296" y="874" on="0"/>
        <pt x="307" y="856" on="1"/>
        <pt x="397" y="731" on="1"/>
        <pt x="373" y="705" on="1"/>
      </contour>
    </TTGlyph>
    <TTGlyph name="Eth" xMin="43" yMin="0" xMax="666" yMax="676">
      <contour>
        <pt x="149" y="319" on="1"/>
        <pt x="43" y="319" on="1"/>
        <pt x="43" y="370" on="1"/>
        <pt x="149" y="370" on="1"/>
        <pt x="149" y="608" on="1"/>
        <pt x="113" y="628" on="0"/>
        <pt x="46" y="636" on="1"/>
        <pt x="51" y="676" on="1"/>
        <pt x="295" y="676" on="1"/>
        <pt x="481" y="676" on="0"/>
        <pt x="666" y="513" on="0"/>
        <pt x="666" y="160" on="0"/>
        <pt x="480" y="0" on="0"/>
        <pt x="289" y="0" on="1"/>
        <pt x="46" y="0" on="1"/>
        <pt x="52" y="40" on="1"/>
        <pt x="114" y="47" on="0"/>
        <pt x="149" y="67" on="1"/>
      </contour>
      <contour>
        <pt x="310" y="623" on="1"/>
        <pt x="244" y="622" on="1"/>
        <pt x="244" y="370" on="1"/>
        <pt x="373" y="370" on="1"/>
        <pt x="380" y="363" on="1"/>
        <pt x="375" y="341" on="0"/>
        <pt x="362" y="319" on="1"/>
        <pt x="244" y="319" on="1"/>
        <pt x="244" y="53" on="1"/>
        <pt x="307" y="53" on="1"/>
        <pt x="434" y="53" on="0"/>
        <pt x="559" y="181" on="0"/>
        <pt x="559" y="493" on="0"/>
        <pt x="436" y="623" on="0"/>
      </contour>
    </TTGlyph>
    <TTGlyph name="Euro" xMin="33" yMin="-8" xMax="557" yMax="647">
      <contour>
        <pt x="101" y="318" on="1"/>
        <pt x="101" y="335" on="1"/>
        <pt x="38" y="335" on="1"/>
        <pt x="33" y="355" on="0"/>
        <pt x="33" y="371" on="1"/>
        <pt x="40" y="378" on="1"/>
        <pt x="103" y="378" on="1"/>
        <pt x="127" y="647" on="0"/>
        <pt x="372" y="647" on="1"/>
        <pt x="440" y="647" on="0"/>
        <pt x="557" y="579" on="0"/>
        <pt x="557" y="514" on="1"/>
        <pt x="557" y="479" on="0"/>
        <pt x="522" y="434" on="0"/>
        <pt x="477" y="434" on="0"/>
        <pt x="447" y="456" on="0"/>
        <pt x="443" y="474" on="1"/>
        <pt x="458" y="500" on="0"/>
        <pt x="458" y="557" on="0"/>
        <pt x="407" y="590" on="0"/>
        <pt x="368" y="590" on="1"/>
        <pt x="287" y="590" on="0"/>
        <pt x="210" y="489" on="0"/>
        <pt x="203" y="378" on="1"/>
        <pt x="373" y="378" on="1"/>
        <pt x="378" y="358" on="0"/>
        <pt x="378" y="342" on="1"/>
        <pt x="371" y="335" on="1"/>
        <pt x="202" y="335" on="1"/>
        <pt x="202" y="318" on="1"/>
        <pt x="202" y="284" on="0"/>
        <pt x="203" y="268" on="1"/>
        <pt x="343" y="268" on="1"/>
        <pt x="348" y="248" on="0"/>
        <pt x="348" y="232" on="1"/>
        <pt x="341" y="225" on="1"/>
        <pt x="206" y="225" on="1"/>
        <pt x="217" y="132" on="0"/>
        <pt x="292" y="50" on="0"/>
        <pt x="368" y="50" on="1"/>
        <pt x="407" y="50" on="0"/>
        <pt x="458" y="83" on="0"/>
        <pt x="458" y="140" on="0"/>
        <pt x="443" y="166" on="1"/>
        <pt x="447" y="184" on="0"/>
        <pt x="477" y="206" on="0"/>
        <pt x="522" y="206" on="0"/>
        <pt x="557" y="161" on="0"/>
        <pt x="557" y="126" on="1"/>
        <pt x="557" y="61" on="0"/>
        <pt x="439" y="-8" on="0"/>
        <pt x="372" y="-8" on="1"/>
        <pt x="252" y="-8" on="0"/>
        <pt x="123" y="106" on="0"/>
        <pt x="106" y="225" on="1"/>
        <pt x="38" y="225" on="1"/>
        <pt x="33" y="245" on="0"/>
        <pt x="33" y="261" on="1"/>
        <pt x="40" y="268" on="1"/>
        <pt x="102" y="268" on="1"/>
        <pt x="101" y="284" on="0"/>
      </contour>
    </TTGlyph>
    <TTGlyph name="F" xMin="43" yMin="0" xMax="567" yMax="676">
      <contour>
        <pt x="567" y="514" on="1"/>
        <pt x="552" y="509" on="0"/>
        <pt x="526" y="509" on="0"/>
        <pt x="521" y="510" on="1"/>
        <pt x="507" y="575" on="0"/>
        <pt x="471" y="619" on="1"/>
        <pt x="241" y="619" on="1"/>
        <pt x="241" y="370" on="1"/>
        <pt x="396" y="381" on="1"/>
        <pt x="439" y="384" on="0"/>
        <pt x="456" y="452" on="1"/>
        <pt x="490" y="452" on="1"/>
        <pt x="490" y="242" on="1"/>
        <pt x="456" y="242" on="1"/>
        <pt x="441" y="317" on="0"/>
        <pt x="395" y="320" on="1"/>
        <pt x="241" y="331" on="1"/>
        <pt x="241" y="68" on="1"/>
        <pt x="272" y="48" on="0"/>
        <pt x="344" y="40" on="1"/>
        <pt x="339" y="0" on="1"/>
        <pt x="43" y="0" on="1"/>
        <pt x="49" y="40" on="1"/>
        <pt x="120" y="48" on="0"/>
        <pt x="146" y="68" on="1"/>
        <pt x="146" y="608" on="1"/>
        <pt x="110" y="628" on="0"/>
        <pt x="43" y="636" on="1"/>
        <pt x="48" y="676" on="1"/>
        <pt x="558" y="676" on="1"/>
      </contour>
    </TTGlyph>
    <TTGlyph name="G" xMin="48" yMin="-7" xMax="576" yMax="681">
      <contour>
        <pt x="344" y="-7" on="1"/>
        <pt x="192" y="-7" on="0"/>
        <pt x="48" y="160" on="0"/>
        <pt x="48" y="336" on="1"/>
        <pt x="48" y="681" on="0"/>
        <pt x="354" y="681" on="1"/>
        <pt x="475" y="681" on="0"/>
        <pt x="540" y="620" on="1"/>
        <pt x="576" y="586" on="0"/>
        <pt x="576" y="535" on="1"/>
        <pt x="576" y="503" on="0"/>
        <pt x="538" y="458" on="0"/>
        <pt x="492" y="458" on="0"/>
        <pt x="457" y="481" on="0"/>
        <pt x="452" y="500" on="1"/>
        <pt x="472" y="529" on="0"/>
        <pt x="472" y="588" on="0"/>
        <pt x="404" y="626" on="0"/>
        <pt x="355" y="626" on="1"/>
        <pt x="248" y="626" on="0"/>
        <pt x="154" y="489" on="0"/>
        <pt x="154" y="183" on="0"/>
        <pt x="243" y="48" on="0"/>
        <pt x="344" y="48" on="1"/>
        <pt x="416" y="48" on="0"/>
        <pt x="483" y="71" on="1"/>
        <pt x="483" y="267" on="1"/>
        <pt x="378" y="275" on="1"/>
        <pt x="378" y="315" on="1"/>
        <pt x="576" y="330" on="1"/>
        <pt x="576" y="43" on="1"/>
        <pt x="456" y="-7" on="0"/>
      </contour>
    </TTGlyph>
    <TTGlyph name="H" xMin="43" yMin="0" xMax="753" yMax="676">
      <contour>
        <pt x="241" y="375" on="1"/>
        <pt x="555" y="375" on="1"/>
        <pt x="555" y="608" on="1"/>
        <pt x="519" y="628" on="0"/>
        <pt x="452" y="636" on="1"/>
        <pt x="457" y="676" on="1"/>
        <pt x="753" y="676" on="1"/>
        <pt x="747" y="636" on="1"/>
        <pt x="685" y="629" on="0"/>
        <pt x="650" y="608" on="1"/>
        <pt x="650" y="68" on="1"/>
        <pt x="686" y="48" on="0"/>
        <pt x="753" y="40" on="1"/>
        <pt x="748" y="0" on="1"/>
        <pt x="452" y="0" on="1"/>
        <pt x="458" y="40" on="1"/>
        <pt x="520" y="47" on="0"/>
        <pt x="555" y="68" on="1"/>
        <pt x="555" y="319" on="1"/>
        <pt x="241" y="319" on="1"/>
        <pt x="241" y="68" on="1"/>
        <pt x="277" y="48" on="0"/>
        <pt x="344" y="40" on="1"/>
        <pt x="339" y="0" on="1"/>
        <pt x="43" y="0" on="1"/>
        <pt x="49" y="40" on="1"/>
        <pt x="111" y="47" on="0"/>
        <pt x="146" y="68" on="1"/>
        <pt x="146" y="608" on="1"/>
        <pt x="110" y="628" on="0"/>
        <pt x="43" y="636" on="1"/>
        <pt x="48" y="676" on="1"/>
        <pt x="344" y="676" on="1"/>
        <pt x="338" y="636" on="1"/>
        <pt x="276" y="629" on="0"/>
        <pt x="241" y="608" on="1"/>
      </contour>
    </TTGlyph>
    <TTGlyph name="I" xMin="50" yMin="0" xMax="351" yMax="676">
      <contour>
        <pt x="50" y="0" on="1"/>
        <pt x="56" y="40" on="1"/>
        <pt x="118" y="47" on="0"/>
        <pt x="153" y="68" on="1"/>
        <pt x="153" y="608" on="1"/>
        <pt x="117" y="628" on="0"/>
        <pt x="50" y="636" on="1"/>
        <pt x="55" y="676" on="1"/>
        <pt x="351" y="676" on="1"/>
        <pt x="345" y="636" on="1"/>
        <pt x="283" y="629" on="0"/>
        <pt x="248" y="608" on="1"/>
        <pt x="248" y="68" on="1"/>
        <pt x="284" y="48" on="0"/>
        <pt x="351" y="40" on="1"/>
        <pt x="346" y="0" on="1"/>
      </contour>
    </TTGlyph>
    <TTGlyph name="IJ" xMin="50" yMin="-179" xMax="665" yMax="676">
      <contour>
        <pt x="562" y="69" on="1"/>
        <pt x="562" y="-118" on="0"/>
        <pt x="324" y="-179" on="1"/>
        <pt x="312" y="-146" on="1"/>
        <pt x="467" y="-78" on="0"/>
        <pt x="467" y="53" on="1"/>
        <pt x="467" y="608" on="1"/>
        <pt x="424" y="634" on="0"/>
        <pt x="357" y="636" on="1"/>
        <pt x="292" y="634" on="0"/>
        <pt x="248" y="608" on="1"/>
        <pt x="248" y="68" on="1"/>
        <pt x="284" y="48" on="0"/>
        <pt x="351" y="40" on="1"/>
        <pt x="346" y="0" on="1"/>
        <pt x="50" y="0" on="1"/>
        <pt x="56" y="40" on="1"/>
        <pt x="118" y="47" on="0"/>
        <pt x="153" y="68" on="1"/>
        <pt x="153" y="608" on="1"/>
        <pt x="117" y="628" on="0"/>
        <pt x="50" y="636" on="1"/>
        <pt x="55" y="676" on="1"/>
        <pt x="665" y="676" on="1"/>
        <pt x="659" y="636" on="1"/>
        <pt x="597" y="629" on="0"/>
        <pt x="562" y="608" on="1"/>
      </contour>
    </TTGlyph>
    <TTGlyph name="Iacute" xMin="50" yMin="0" xMax="351" yMax="874">
      <contour>
        <pt x="50" y="0" on="1"/>
        <pt x="56" y="40" on="1"/>
        <pt x="118" y="47" on="0"/>
        <pt x="153" y="68" on="1"/>
        <pt x="153" y="608" on="1"/>
        <pt x="117" y="628" on="0"/>
        <pt x="50" y="636" on="1"/>
        <pt x="55" y="676" on="1"/>
        <pt x="351" y="676" on="1"/>
        <pt x="345" y="636" on="1"/>
        <pt x="283" y="629" on="0"/>
        <pt x="248" y="608" on="1"/>
        <pt x="248" y="68" on="1"/>
        <pt x="284" y="48" on="0"/>
        <pt x="351" y="40" on="1"/>
        <pt x="346" y="0" on="1"/>
      </contour>
      <contour>
        <pt x="223" y="856" on="1"/>
        <pt x="234" y="874" on="0"/>
        <pt x="273" y="874" on="0"/>
        <pt x="296" y="851" on="0"/>
        <pt x="296" y="817" on="0"/>
        <pt x="269" y="795" on="1"/>
        <pt x="157" y="705" on="1"/>
        <pt x="133" y="731" on="1"/>
      </contour>
    </TTGlyph>
    <TTGlyph name="Icircumflex" xMin="50" yMin="0" xMax="351" yMax="873">
      <contour>
        <pt x="162" y="856" on="1"/>
        <pt x="176" y="873" on="0"/>
        <pt x="215" y="873" on="0"/>
        <pt x="229" y="856" on="1"/>
        <pt x="329" y="741" on="1"/>
        <pt x="305" y="715" on="1"/>
        <pt x="195" y="798" on="1"/>
        <pt x="86" y="715" on="1"/>
        <pt x="62" y="741" on="1"/>
      </contour>
      <contour>
        <pt x="50" y="0" on="1"/>
        <pt x="56" y="40" on="1"/>
        <pt x="118" y="47" on="0"/>
        <pt x="153" y="68" on="1"/>
        <pt x="153" y="608" on="1"/>
        <pt x="117" y="628" on="0"/>
        <pt x="50" y="636" on="1"/>
        <pt x="55" y="676" on="1"/>
        <pt x="351" y="676" on="1"/>
        <pt x="345" y="636" on="1"/>
        <pt x="283" y="629" on="0"/>
        <pt x="248" y="608" on="1"/>
        <pt x="248" y="68" on="1"/>
        <pt x="284" y="48" on="0"/>
        <pt x="351" y="40" on="1"/>
        <pt x="346" y="0" on="1"/>
      </contour>
    </TTGlyph>
    <TTGlyph name="Idieresis" xMin="50" yMin="0" xMax="351" yMax="849">
      <contour>
        <pt x="156" y="736" on="0"/>
        <pt x="54" y="736" on="0"/>
        <pt x="54" y="849" on="0"/>
        <pt x="156" y="849" on="0"/>
      </contour>
      <contour>
        <pt x="284" y="736" on="1"/>
        <pt x="234" y="736" on="0"/>
        <pt x="234" y="849" on="0"/>
        <pt x="284" y="849" on="1"/>
        <pt x="336" y="849" on="0"/>
        <pt x="336" y="736" on="0"/>
      </contour>
      <contour>
        <pt x="50" y="0" on="1"/>
        <pt x="56" y="40" on="1"/>
        <pt x="118" y="47" on="0"/>
        <pt x="153" y="68" on="1"/>
        <pt x="153" y="608" on="1"/>
        <pt x="117" y="628" on="0"/>
        <pt x="50" y="636" on="1"/>
        <pt x="55" y="676" on="1"/>
        <pt x="351" y="676" on="1"/>
        <pt x="345" y="636" on="1"/>
        <pt x="283" y="629" on="0"/>
        <pt x="248" y="608" on="1"/>
        <pt x="248" y="68" on="1"/>
        <pt x="284" y="48" on="0"/>
        <pt x="351" y="40" on="1"/>
        <pt x="346" y="0" on="1"/>
      </contour>
    </TTGlyph>
    <TTGlyph name="Igrave" xMin="50" yMin="0" xMax="351" yMax="874">
      <contour>
        <pt x="50" y="0" on="1"/>
        <pt x="56" y="40" on="1"/>
        <pt x="118" y="47" on="0"/>
        <pt x="153" y="68" on="1"/>
        <pt x="153" y="608" on="1"/>
        <pt x="117" y="628" on="0"/>
        <pt x="50" y="636" on="1"/>
        <pt x="55" y="676" on="1"/>
        <pt x="351" y="676" on="1"/>
        <pt x="345" y="636" on="1"/>
        <pt x="283" y="629" on="0"/>
        <pt x="248" y="608" on="1"/>
        <pt x="248" y="68" on="1"/>
        <pt x="284" y="48" on="0"/>
        <pt x="351" y="40" on="1"/>
        <pt x="346" y="0" on="1"/>
      </contour>
      <contour>
        <pt x="119" y="795" on="1"/>
        <pt x="92" y="817" on="0"/>
        <pt x="92" y="851" on="0"/>
        <pt x="115" y="874" on="0"/>
        <pt x="154" y="874" on="0"/>
        <pt x="165" y="856" on="1"/>
        <pt x="255" y="731" on="1"/>
        <pt x="231" y="705" on="1"/>
      </contour>
    </TTGlyph>
    <TTGlyph name="Itilde" xMin="28" yMin="0" xMax="365" yMax="848">
      <contour>
        <pt x="50" y="0" on="1"/>
        <pt x="56" y="40" on="1"/>
        <pt x="118" y="47" on="0"/>
        <pt x="153" y="68" on="1"/>
        <pt x="153" y="608" on="1"/>
        <pt x="117" y="628" on="0"/>
        <pt x="50" y="636" on="1"/>
        <pt x="55" y="676" on="1"/>
        <pt x="351" y="676" on="1"/>
        <pt x="345" y="636" on="1"/>
        <pt x="283" y="629" on="0"/>
        <pt x="248" y="608" on="1"/>
        <pt x="248" y="68" on="1"/>
        <pt x="284" y="48" on="0"/>
        <pt x="351" y="40" on="1"/>
        <pt x="346" y="0" on="1"/>
      </contour>
      <contour>
        <pt x="41" y="790" on="0"/>
        <pt x="97" y="848" on="0"/>
        <pt x="160" y="848" on="0"/>
        <pt x="239" y="805" on="0"/>
        <pt x="259" y="805" on="1"/>
        <pt x="293" y="805" on="0"/>
        <pt x="330" y="848" on="1"/>
        <pt x="348" y="841" on="0"/>
        <pt x="365" y="827" on="1"/>
        <pt x="352" y="795" on="0"/>
        <pt x="296" y="738" on="0"/>
        <pt x="232" y="738" on="0"/>
        <pt x="154" y="781" on="0"/>
        <pt x="133" y="781" on="1"/>
        <pt x="100" y="781" on="0"/>
        <pt x="63" y="738" on="1"/>
        <pt x="46" y="742" on="0"/>
        <pt x="28" y="759" on="1"/>
      </contour>
    </TTGlyph>
    <TTGlyph name="J" xMin="21" yMin="-179" xMax="344" yMax="676">
      <contour>
        <pt x="146" y="33" on="1"/>
        <pt x="146" y="608" on="1"/>
        <pt x="110" y="628" on="0"/>
        <pt x="43" y="636" on="1"/>
        <pt x="48" y="676" on="1"/>
        <pt x="344" y="676" on="1"/>
        <pt x="338" y="636" on="1"/>
        <pt x="276" y="629" on="0"/>
        <pt x="241" y="608" on="1"/>
        <pt x="241" y="49" on="1"/>
        <pt x="241" y="-45" on="0"/>
        <pt x="134" y="-152" on="0"/>
        <pt x="33" y="-179" on="1"/>
        <pt x="21" y="-146" on="1"/>
        <pt x="78" y="-121" on="0"/>
        <pt x="146" y="-39" on="0"/>
      </contour>
    </TTGlyph>
    <TTGlyph name="Jcircumflex" xMin="21" yMin="-179" xMax="344" yMax="873">
      <contour>
        <pt x="146" y="33" on="1"/>
        <pt x="146" y="608" on="1"/>
        <pt x="110" y="628" on="0"/>
        <pt x="43" y="636" on="1"/>
        <pt x="48" y="676" on="1"/>
        <pt x="344" y="676" on="1"/>
        <pt x="338" y="636" on="1"/>
        <pt x="276" y="629" on="0"/>
        <pt x="241" y="608" on="1"/>
        <pt x="241" y="49" on="1"/>
        <pt x="241" y="-45" on="0"/>
        <pt x="134" y="-152" on="0"/>
        <pt x="33" y="-179" on="1"/>
        <pt x="21" y="-146" on="1"/>
        <pt x="78" y="-121" on="0"/>
        <pt x="146" y="-39" on="0"/>
      </contour>
      <contour>
        <pt x="164" y="856" on="1"/>
        <pt x="178" y="873" on="0"/>
        <pt x="217" y="873" on="0"/>
        <pt x="231" y="856" on="1"/>
        <pt x="331" y="741" on="1"/>
        <pt x="307" y="715" on="1"/>
        <pt x="197" y="798" on="1"/>
        <pt x="88" y="715" on="1"/>
        <pt x="64" y="741" on="1"/>
      </contour>
    </TTGlyph>
    <TTGlyph name="K" xMin="43" yMin="0" xMax="677" yMax="676">
      <contour>
        <pt x="43" y="0" on="1"/>
        <pt x="49" y="40" on="1"/>
        <pt x="111" y="47" on="0"/>
        <pt x="146" y="68" on="1"/>
        <pt x="146" y="608" on="1"/>
        <pt x="110" y="628" on="0"/>
        <pt x="43" y="636" on="1"/>
        <pt x="48" y="676" on="1"/>
        <pt x="344" y="676" on="1"/>
        <pt x="338" y="636" on="1"/>
        <pt x="276" y="629" on="0"/>
        <pt x="241" y="608" on="1"/>
        <pt x="241" y="68" on="1"/>
        <pt x="277" y="48" on="0"/>
        <pt x="344" y="40" on="1"/>
        <pt x="339" y="0" on="1"/>
      </contour>
      <contour>
        <pt x="460" y="604" on="1"/>
        <pt x="460" y="630" on="0"/>
        <pt x="396" y="634" on="1"/>
        <pt x="403" y="676" on="1"/>
        <pt x="653" y="676" on="1"/>
        <pt x="649" y="636" on="1"/>
        <pt x="572" y="631" on="0"/>
        <pt x="544" y="595" on="1"/>
        <pt x="350" y="379" on="1"/>
        <pt x="573" y="87" on="1"/>
        <pt x="608" y="49" on="0"/>
        <pt x="677" y="41" on="1"/>
        <pt x="671" y="0" on="1"/>
        <pt x="503" y="0" on="1"/>
        <pt x="503" y="26" on="0"/>
        <pt x="485" y="51" on="1"/>
        <pt x="250" y="359" on="1"/>
        <pt x="451" y="584" on="1"/>
        <pt x="460" y="593" on="0"/>
      </contour>
    </TTGlyph>
    <TTGlyph name="L" xMin="43" yMin="0" xMax="553" yMax="676">
      <contour>
        <pt x="241" y="61" on="1"/>
        <pt x="471" y="61" on="1"/>
        <pt x="490" y="85" on="0"/>
        <pt x="509" y="161" on="0"/>
        <pt x="510" y="164" on="1"/>
        <pt x="553" y="158" on="1"/>
        <pt x="526" y="0" on="1"/>
        <pt x="43" y="0" on="1"/>
        <pt x="49" y="40" on="1"/>
        <pt x="111" y="47" on="0"/>
        <pt x="146" y="68" on="1"/>
        <pt x="146" y="608" on="1"/>
        <pt x="110" y="628" on="0"/>
        <pt x="43" y="636" on="1"/>
        <pt x="48" y="676" on="1"/>
        <pt x="344" y="676" on="1"/>
        <pt x="338" y="636" on="1"/>
        <pt x="276" y="629" on="0"/>
        <pt x="241" y="608" on="1"/>
      </contour>
    </TTGlyph>
    <TTGlyph name="Ldotaccent" xMin="43" yMin="0" xMax="553" yMax="676">
      <contour>
        <pt x="241" y="61" on="1"/>
        <pt x="471" y="61" on="1"/>
        <pt x="490" y="85" on="0"/>
        <pt x="509" y="161" on="0"/>
        <pt x="510" y="164" on="1"/>
        <pt x="553" y="158" on="1"/>
        <pt x="526" y="0" on="1"/>
        <pt x="43" y="0" on="1"/>
        <pt x="49" y="40" on="1"/>
        <pt x="111" y="47" on="0"/>
        <pt x="146" y="68" on="1"/>
        <pt x="146" y="608" on="1"/>
        <pt x="110" y="628" on="0"/>
        <pt x="43" y="636" on="1"/>
        <pt x="48" y="676" on="1"/>
        <pt x="344" y="676" on="1"/>
        <pt x="338" y="636" on="1"/>
        <pt x="276" y="629" on="0"/>
        <pt x="241" y="608" on="1"/>
      </contour>
      <contour>
        <pt x="493" y="388" on="0"/>
        <pt x="380" y="388" on="0"/>
        <pt x="380" y="513" on="0"/>
        <pt x="493" y="513" on="0"/>
      </contour>
    </TTGlyph>
    <TTGlyph name="Lslash" xMin="43" yMin="0" xMax="553" yMax="676">
      <contour>
        <pt x="241" y="61" on="1"/>
        <pt x="471" y="61" on="1"/>
        <pt x="490" y="85" on="0"/>
        <pt x="509" y="161" on="0"/>
        <pt x="510" y="164" on="1"/>
        <pt x="553" y="158" on="1"/>
        <pt x="526" y="0" on="1"/>
        <pt x="43" y="0" on="1"/>
        <pt x="49" y="40" on="1"/>
        <pt x="111" y="47" on="0"/>
        <pt x="146" y="68" on="1"/>
        <pt x="146" y="270" on="1"/>
        <pt x="49" y="224" on="1"/>
        <pt x="44" y="268" on="1"/>
        <pt x="146" y="317" on="1"/>
        <pt x="146" y="608" on="1"/>
        <pt x="110" y="628" on="0"/>
        <pt x="43" y="636" on="1"/>
        <pt x="48" y="676" on="1"/>
        <pt x="344" y="676" on="1"/>
        <pt x="338" y="636" on="1"/>
        <pt x="276" y="629" on="0"/>
        <pt x="241" y="608" on="1"/>
        <pt x="241" y="362" on="1"/>
        <pt x="404" y="441" on="1"/>
        <pt x="409" y="397" on="1"/>
        <pt x="241" y="316" on="1"/>
      </contour>
    </TTGlyph>
    <TTGlyph name="M" xMin="39" yMin="0" xMax="908" yMax="676">
      <contour>
        <pt x="710" y="68" on="1"/>
        <pt x="710" y="566" on="1"/>
        <pt x="498" y="0" on="1"/>
        <pt x="434" y="0" on="1"/>
        <pt x="211" y="575" on="1"/>
        <pt x="211" y="68" on="1"/>
        <pt x="247" y="48" on="0"/>
        <pt x="314" y="40" on="1"/>
        <pt x="309" y="0" on="1"/>
        <pt x="39" y="0" on="1"/>
        <pt x="45" y="40" on="1"/>
        <pt x="107" y="47" on="0"/>
        <pt x="142" y="68" on="1"/>
        <pt x="142" y="608" on="1"/>
        <pt x="106" y="628" on="0"/>
        <pt x="39" y="636" on="1"/>
        <pt x="44" y="676" on="1"/>
        <pt x="266" y="676" on="1"/>
        <pt x="481" y="133" on="1"/>
        <pt x="688" y="676" on="1"/>
        <pt x="908" y="676" on="1"/>
        <pt x="902" y="636" on="1"/>
        <pt x="840" y="629" on="0"/>
        <pt x="805" y="608" on="1"/>
        <pt x="805" y="68" on="1"/>
        <pt x="841" y="48" on="0"/>
        <pt x="908" y="40" on="1"/>
        <pt x="903" y="0" on="1"/>
        <pt x="611" y="0" on="1"/>
        <pt x="617" y="40" on="1"/>
        <pt x="679" y="47" on="0"/>
        <pt x="714" y="68" on="1"/>
      </contour>
    </TTGlyph>
    <TTGlyph name="N" xMin="30" yMin="0" xMax="744" yMax="676">
      <contour>
        <pt x="641" y="0" on="1"/>
        <pt x="576" y="0" on="1"/>
        <pt x="202" y="520" on="1"/>
        <pt x="202" y="68" on="1"/>
        <pt x="238" y="48" on="0"/>
        <pt x="305" y="40" on="1"/>
        <pt x="300" y="0" on="1"/>
        <pt x="30" y="0" on="1"/>
        <pt x="36" y="40" on="1"/>
        <pt x="98" y="47" on="0"/>
        <pt x="133" y="68" on="1"/>
        <pt x="133" y="608" on="1"/>
        <pt x="97" y="628" on="0"/>
        <pt x="30" y="636" on="1"/>
        <pt x="35" y="676" on="1"/>
        <pt x="213" y="676" on="1"/>
        <pt x="572" y="177" on="1"/>
        <pt x="572" y="608" on="1"/>
        <pt x="536" y="628" on="0"/>
        <pt x="469" y="636" on="1"/>
        <pt x="474" y="676" on="1"/>
        <pt x="744" y="676" on="1"/>
        <pt x="738" y="636" on="1"/>
        <pt x="676" y="629" on="0"/>
        <pt x="641" y="608" on="1"/>
      </contour>
    </TTGlyph>
    <TTGlyph name="Nacute" xMin="38" yMin="0" xMax="752" yMax="874">
      <contour>
        <pt x="649" y="0" on="1"/>
        <pt x="584" y="0" on="1"/>
        <pt x="210" y="520" on="1"/>
        <pt x="210" y="68" on="1"/>
        <pt x="246" y="48" on="0"/>
        <pt x="313" y="40" on="1"/>
        <pt x="308" y="0" on="1"/>
        <pt x="38" y="0" on="1"/>
        <pt x="44" y="40" on="1"/>
        <pt x="106" y="47" on="0"/>
        <pt x="141" y="68" on="1"/>
        <pt x="141" y="608" on="1"/>
        <pt x="105" y="628" on="0"/>
        <pt x="38" y="636" on="1"/>
        <pt x="43" y="676" on="1"/>
        <pt x="221" y="676" on="1"/>
        <pt x="580" y="177" on="1"/>
        <pt x="580" y="608" on="1"/>
        <pt x="544" y="628" on="0"/>
        <pt x="477" y="636" on="1"/>
        <pt x="482" y="676" on="1"/>
        <pt x="752" y="676" on="1"/>
        <pt x="746" y="636" on="1"/>
        <pt x="684" y="629" on="0"/>
        <pt x="649" y="608" on="1"/>
      </contour>
      <contour>
        <pt x="418" y="856" on="1"/>
        <pt x="429" y="874" on="0"/>
        <pt x="468" y="874" on="0"/>
        <pt x="491" y="851" on="0"/>
        <pt x="491" y="817" on="0"/>
        <pt x="464" y="795" on="1"/>
        <pt x="352" y="705" on="1"/>
        <pt x="328" y="731" on="1"/>
      </contour>
    </TTGlyph>
    <TTGlyph name="Ntilde" xMin="38" yMin="0" xMax="752" yMax="848">
      <contour>
        <pt x="649" y="0" on="1"/>
        <pt x="584" y="0" on="1"/>
        <pt x="210" y="520" on="1"/>
        <pt x="210" y="68" on="1"/>
        <pt x="246" y="48" on="0"/>
        <pt x="313" y="40" on="1"/>
        <pt x="308" y="0" on="1"/>
        <pt x="38" y="0" on="1"/>
        <pt x="44" y="40" on="1"/>
        <pt x="106" y="47" on="0"/>
        <pt x="141" y="68" on="1"/>
        <pt x="141" y="608" on="1"/>
        <pt x="105" y="628" on="0"/>
        <pt x="38" y="636" on="1"/>
        <pt x="43" y="676" on="1"/>
        <pt x="221" y="676" on="1"/>
        <pt x="580" y="177" on="1"/>
        <pt x="580" y="608" on="1"/>
        <pt x="544" y="628" on="0"/>
        <pt x="477" y="636" on="1"/>
        <pt x="482" y="676" on="1"/>
        <pt x="752" y="676" on="1"/>
        <pt x="746" y="636" on="1"/>
        <pt x="684" y="629" on="0"/>
        <pt x="649" y="608" on="1"/>
      </contour>
      <contour>
        <pt x="236" y="790" on="0"/>
        <pt x="292" y="848" on="0"/>
        <pt x="355" y="848" on="0"/>
        <pt x="434" y="805" on="0"/>
        <pt x="454" y="805" on="1"/>
        <pt x="488" y="805" on="0"/>
        <pt x="525" y="848" on="1"/>
        <pt x="542" y="841" on="0"/>
        <pt x="560" y="827" on="1"/>
        <pt x="547" y="795" on="0"/>
        <pt x="491" y="738" on="0"/>
        <pt x="427" y="738" on="0"/>
        <pt x="349" y="781" on="0"/>
        <pt x="328" y="781" on="1"/>
        <pt x="295" y="781" on="0"/>
        <pt x="258" y="738" on="1"/>
        <pt x="241" y="742" on="0"/>
        <pt x="223" y="759" on="1"/>
      </contour>
    </TTGlyph>
    <TTGlyph name="O" xMin="48" yMin="-6" xMax="640" yMax="681">
      <contour>
        <pt x="239" y="48" on="0"/>
        <pt x="449" y="48" on="0"/>
        <pt x="535" y="184" on="0"/>
        <pt x="535" y="492" on="0"/>
        <pt x="449" y="627" on="0"/>
        <pt x="239" y="627" on="0"/>
        <pt x="154" y="492" on="0"/>
        <pt x="154" y="184" on="0"/>
      </contour>
      <contour>
        <pt x="640" y="-6" on="0"/>
        <pt x="48" y="-6" on="0"/>
        <pt x="48" y="681" on="0"/>
        <pt x="640" y="681" on="0"/>
      </contour>
    </TTGlyph>
    <TTGlyph name="OE" xMin="48" yMin="-6" xMax="871" yMax="681">
      <contour>
        <pt x="344" y="681" on="1"/>
        <pt x="461" y="676" on="1"/>
        <pt x="848" y="676" on="1"/>
        <pt x="857" y="514" on="1"/>
        <pt x="840" y="509" on="0"/>
        <pt x="815" y="509" on="0"/>
        <pt x="811" y="510" on="1"/>
        <pt x="797" y="575" on="0"/>
        <pt x="761" y="619" on="1"/>
        <pt x="556" y="619" on="1"/>
        <pt x="556" y="374" on="1"/>
        <pt x="686" y="374" on="1"/>
        <pt x="709" y="374" on="0"/>
        <pt x="741" y="414" on="0"/>
        <pt x="746" y="447" on="1"/>
        <pt x="780" y="447" on="1"/>
        <pt x="780" y="237" on="1"/>
        <pt x="746" y="237" on="1"/>
        <pt x="736" y="318" on="0"/>
        <pt x="686" y="318" on="1"/>
        <pt x="556" y="318" on="1"/>
        <pt x="556" y="61" on="1"/>
        <pt x="776" y="61" on="1"/>
        <pt x="812" y="109" on="0"/>
        <pt x="827" y="182" on="1"/>
        <pt x="841" y="184" on="0"/>
        <pt x="853" y="184" on="0"/>
        <pt x="871" y="182" on="1"/>
        <pt x="861" y="0" on="1"/>
        <pt x="461" y="0" on="1"/>
        <pt x="344" y="-6" on="1"/>
        <pt x="48" y="-6" on="0"/>
        <pt x="48" y="681" on="0"/>
      </contour>
      <contour>
        <pt x="344" y="627" on="1"/>
        <pt x="239" y="627" on="0"/>
        <pt x="154" y="492" on="0"/>
        <pt x="154" y="184" on="0"/>
        <pt x="239" y="48" on="0"/>
        <pt x="344" y="48" on="1"/>
        <pt x="413" y="48" on="0"/>
        <pt x="461" y="68" on="1"/>
        <pt x="461" y="608" on="1"/>
        <pt x="413" y="627" on="0"/>
      </contour>
    </TTGlyph>
    <TTGlyph name="Oacute" xMin="48" yMin="-6" xMax="640" yMax="874">
      <contour>
        <pt x="239" y="48" on="0"/>
        <pt x="449" y="48" on="0"/>
        <pt x="535" y="184" on="0"/>
        <pt x="535" y="492" on="0"/>
        <pt x="449" y="627" on="0"/>
        <pt x="239" y="627" on="0"/>
        <pt x="154" y="492" on="0"/>
        <pt x="154" y="184" on="0"/>
      </contour>
      <contour>
        <pt x="640" y="-6" on="0"/>
        <pt x="48" y="-6" on="0"/>
        <pt x="48" y="681" on="0"/>
        <pt x="640" y="681" on="0"/>
      </contour>
      <contour>
        <pt x="372" y="856" on="1"/>
        <pt x="383" y="874" on="0"/>
        <pt x="422" y="874" on="0"/>
        <pt x="445" y="851" on="0"/>
        <pt x="445" y="817" on="0"/>
        <pt x="418" y="795" on="1"/>
        <pt x="306" y="705" on="1"/>
        <pt x="282" y="731" on="1"/>
      </contour>
    </TTGlyph>
    <TTGlyph name="Ocircumflex" xMin="48" yMin="-6" xMax="640" yMax="873">
      <contour>
        <pt x="239" y="48" on="0"/>
        <pt x="449" y="48" on="0"/>
        <pt x="535" y="184" on="0"/>
        <pt x="535" y="492" on="0"/>
        <pt x="449" y="627" on="0"/>
        <pt x="239" y="627" on="0"/>
        <pt x="154" y="492" on="0"/>
        <pt x="154" y="184" on="0"/>
      </contour>
      <contour>
        <pt x="640" y="-6" on="0"/>
        <pt x="48" y="-6" on="0"/>
        <pt x="48" y="681" on="0"/>
        <pt x="640" y="681" on="0"/>
      </contour>
      <contour>
        <pt x="311" y="856" on="1"/>
        <pt x="325" y="873" on="0"/>
        <pt x="364" y="873" on="0"/>
        <pt x="378" y="856" on="1"/>
        <pt x="478" y="741" on="1"/>
        <pt x="454" y="715" on="1"/>
        <pt x="344" y="798" on="1"/>
        <pt x="235" y="715" on="1"/>
        <pt x="211" y="741" on="1"/>
      </contour>
    </TTGlyph>
    <TTGlyph name="Odieresis" xMin="48" yMin="-6" xMax="640" yMax="849">
      <contour>
        <pt x="239" y="48" on="0"/>
        <pt x="449" y="48" on="0"/>
        <pt x="535" y="184" on="0"/>
        <pt x="535" y="492" on="0"/>
        <pt x="449" y="627" on="0"/>
        <pt x="239" y="627" on="0"/>
        <pt x="154" y="492" on="0"/>
        <pt x="154" y="184" on="0"/>
      </contour>
      <contour>
        <pt x="640" y="-6" on="0"/>
        <pt x="48" y="-6" on="0"/>
        <pt x="48" y="681" on="0"/>
        <pt x="640" y="681" on="0"/>
      </contour>
      <contour>
        <pt x="305" y="736" on="0"/>
        <pt x="203" y="736" on="0"/>
        <pt x="203" y="849" on="0"/>
        <pt x="305" y="849" on="0"/>
      </contour>
      <contour>
        <pt x="433" y="736" on="1"/>
        <pt x="383" y="736" on="0"/>
        <pt x="383" y="849" on="0"/>
        <pt x="433" y="849" on="1"/>
        <pt x="485" y="849" on="0"/>
        <pt x="485" y="736" on="0"/>
      </contour>
    </TTGlyph>
    <TTGlyph name="Ograve" xMin="48" yMin="-6" xMax="640" yMax="874">
      <contour>
        <pt x="239" y="48" on="0"/>
        <pt x="449" y="48" on="0"/>
        <pt x="535" y="184" on="0"/>
        <pt x="535" y="492" on="0"/>
        <pt x="449" y="627" on="0"/>
        <pt x="239" y="627" on="0"/>
        <pt x="154" y="492" on="0"/>
        <pt x="154" y="184" on="0"/>
      </contour>
      <contour>
        <pt x="640" y="-6" on="0"/>
        <pt x="48" y="-6" on="0"/>
        <pt x="48" y="681" on="0"/>
        <pt x="640" y="681" on="0"/>
      </contour>
      <contour>
        <pt x="268" y="795" on="1"/>
        <pt x="241" y="817" on="0"/>
        <pt x="241" y="851" on="0"/>
        <pt x="264" y="874" on="0"/>
        <pt x="303" y="874" on="0"/>
        <pt x="314" y="856" on="1"/>
        <pt x="404" y="731" on="1"/>
        <pt x="380" y="705" on="1"/>
      </contour>
    </TTGlyph>
    <TTGlyph name="Oslash" xMin="48" yMin="-24" xMax="640" yMax="697">
      <contour>
        <pt x="48" y="338" on="1"/>
        <pt x="48" y="681" on="0"/>
        <pt x="344" y="681" on="1"/>
        <pt x="460" y="681" on="0"/>
        <pt x="530" y="630" on="1"/>
        <pt x="578" y="696" on="1"/>
        <pt x="586" y="697" on="1"/>
        <pt x="597" y="690" on="0"/>
        <pt x="614" y="671" on="1"/>
        <pt x="562" y="600" on="1"/>
        <pt x="640" y="515" on="0"/>
        <pt x="640" y="338" on="1"/>
        <pt x="640" y="-6" on="0"/>
        <pt x="344" y="-6" on="1"/>
        <pt x="227" y="-6" on="0"/>
        <pt x="158" y="45" on="1"/>
        <pt x="108" y="-23" on="1"/>
        <pt x="100" y="-24" on="1"/>
        <pt x="86" y="-14" on="0"/>
        <pt x="72" y="2" on="1"/>
        <pt x="125" y="75" on="1"/>
        <pt x="48" y="159" on="0"/>
      </contour>
      <contour>
        <pt x="203" y="107" on="1"/>
        <pt x="247" y="48" on="0"/>
        <pt x="449" y="48" on="0"/>
        <pt x="535" y="184" on="0"/>
        <pt x="535" y="461" on="0"/>
        <pt x="509" y="527" on="1"/>
      </contour>
      <contour>
        <pt x="485" y="569" on="1"/>
        <pt x="440" y="627" on="0"/>
        <pt x="239" y="627" on="0"/>
        <pt x="154" y="492" on="0"/>
        <pt x="154" y="213" on="0"/>
        <pt x="179" y="149" on="1"/>
      </contour>
    </TTGlyph>
    <TTGlyph name="Otilde" xMin="48" yMin="-6" xMax="640" yMax="848">
      <contour>
        <pt x="239" y="48" on="0"/>
        <pt x="449" y="48" on="0"/>
        <pt x="535" y="184" on="0"/>
        <pt x="535" y="492" on="0"/>
        <pt x="449" y="627" on="0"/>
        <pt x="239" y="627" on="0"/>
        <pt x="154" y="492" on="0"/>
        <pt x="154" y="184" on="0"/>
      </contour>
      <contour>
        <pt x="640" y="-6" on="0"/>
        <pt x="48" y="-6" on="0"/>
        <pt x="48" y="681" on="0"/>
        <pt x="640" y="681" on="0"/>
      </contour>
      <contour>
        <pt x="190" y="790" on="0"/>
        <pt x="246" y="848" on="0"/>
        <pt x="309" y="848" on="0"/>
        <pt x="388" y="805" on="0"/>
        <pt x="408" y="805" on="1"/>
        <pt x="442" y="805" on="0"/>
        <pt x="479" y="848" on="1"/>
        <pt x="497" y="841" on="0"/>
        <pt x="514" y="827" on="1"/>
        <pt x="501" y="795" on="0"/>
        <pt x="445" y="738" on="0"/>
        <pt x="381" y="738" on="0"/>
        <pt x="303" y="781" on="0"/>
        <pt x="282" y="781" on="1"/>
        <pt x="249" y="781" on="0"/>
        <pt x="212" y="738" on="1"/>
        <pt x="195" y="742" on="0"/>
        <pt x="177" y="759" on="1"/>
      </contour>
    </TTGlyph>
    <TTGlyph name="P" xMin="44" yMin="0" xMax="574" yMax="676">
      <contour>
        <pt x="338" y="676" on="1"/>
        <pt x="574" y="676" on="0"/>
        <pt x="574" y="487" on="1"/>
        <pt x="574" y="380" on="0"/>
        <pt x="429" y="294" on="0"/>
        <pt x="291" y="294" on="1"/>
        <pt x="242" y="294" on="1"/>
        <pt x="242" y="68" on="1"/>
        <pt x="278" y="48" on="0"/>
        <pt x="345" y="40" on="1"/>
        <pt x="340" y="0" on="1"/>
        <pt x="44" y="0" on="1"/>
        <pt x="50" y="40" on="1"/>
        <pt x="112" y="47" on="0"/>
        <pt x="147" y="68" on="1"/>
        <pt x="147" y="608" on="1"/>
        <pt x="111" y="628" on="0"/>
        <pt x="44" y="636" on="1"/>
        <pt x="49" y="676" on="1"/>
      </contour>
      <contour>
        <pt x="242" y="343" on="1"/>
        <pt x="291" y="343" on="1"/>
        <pt x="477" y="343" on="0"/>
        <pt x="477" y="489" on="1"/>
        <pt x="477" y="560" on="0"/>
        <pt x="405" y="631" on="0"/>
        <pt x="338" y="631" on="1"/>
        <pt x="302" y="631" on="0"/>
        <pt x="242" y="622" on="1"/>
      </contour>
    </TTGlyph>
    <TTGlyph name="Q" xMin="48" yMin="-179" xMax="640" yMax="681">
      <contour>
        <pt x="48" y="338" on="1"/>
        <pt x="48" y="681" on="0"/>
        <pt x="640" y="681" on="0"/>
        <pt x="640" y="338" on="1"/>
        <pt x="640" y="32" on="0"/>
        <pt x="407" y="-1" on="1"/>
        <pt x="426" y="-50" on="0"/>
        <pt x="513" y="-127" on="0"/>
        <pt x="569" y="-146" on="1"/>
        <pt x="571" y="-150" on="0"/>
        <pt x="571" y="-169" on="0"/>
        <pt x="559" y="-179" on="1"/>
        <pt x="392" y="-149" on="0"/>
        <pt x="321" y="-5" on="1"/>
        <pt x="48" y="7" on="0"/>
      </contour>
      <contour>
        <pt x="239" y="48" on="0"/>
        <pt x="449" y="48" on="0"/>
        <pt x="535" y="184" on="0"/>
        <pt x="535" y="492" on="0"/>
        <pt x="449" y="627" on="0"/>
        <pt x="239" y="627" on="0"/>
        <pt x="154" y="492" on="0"/>
        <pt x="154" y="184" on="0"/>
      </contour>
    </TTGlyph>
    <TTGlyph name="R" xMin="48" yMin="0" xMax="677" yMax="676">
      <contour>
        <pt x="342" y="676" on="1"/>
        <pt x="588" y="676" on="0"/>
        <pt x="588" y="497" on="1"/>
        <pt x="588" y="363" on="0"/>
        <pt x="442" y="328" on="1"/>
        <pt x="474" y="308" on="0"/>
        <pt x="505" y="245" on="1"/>
        <pt x="588" y="68" on="1"/>
        <pt x="616" y="49" on="0"/>
        <pt x="677" y="41" on="1"/>
        <pt x="671" y="0" on="1"/>
        <pt x="509" y="0" on="1"/>
        <pt x="417" y="225" on="1"/>
        <pt x="391" y="287" on="0"/>
        <pt x="350" y="314" on="0"/>
        <pt x="283" y="314" on="1"/>
        <pt x="246" y="314" on="1"/>
        <pt x="246" y="68" on="1"/>
        <pt x="273" y="51" on="0"/>
        <pt x="349" y="40" on="1"/>
        <pt x="344" y="0" on="1"/>
        <pt x="48" y="0" on="1"/>
        <pt x="54" y="40" on="1"/>
        <pt x="116" y="47" on="0"/>
        <pt x="151" y="68" on="1"/>
        <pt x="151" y="608" on="1"/>
        <pt x="116" y="629" on="0"/>
        <pt x="48" y="636" on="1"/>
        <pt x="53" y="676" on="1"/>
      </contour>
      <contour>
        <pt x="246" y="363" on="1"/>
        <pt x="295" y="363" on="1"/>
        <pt x="491" y="363" on="0"/>
        <pt x="491" y="499" on="1"/>
        <pt x="491" y="631" on="0"/>
        <pt x="342" y="631" on="1"/>
        <pt x="302" y="631" on="0"/>
        <pt x="246" y="622" on="1"/>
      </contour>
    </TTGlyph>
    <TTGlyph name="Racute" xMin="48" yMin="0" xMax="677" yMax="874">
      <contour>
        <pt x="342" y="676" on="1"/>
        <pt x="588" y="676" on="0"/>
        <pt x="588" y="497" on="1"/>
        <pt x="588" y="363" on="0"/>
        <pt x="442" y="328" on="1"/>
        <pt x="474" y="308" on="0"/>
        <pt x="505" y="245" on="1"/>
        <pt x="588" y="68" on="1"/>
        <pt x="616" y="49" on="0"/>
        <pt x="677" y="41" on="1"/>
        <pt x="671" y="0" on="1"/>
        <pt x="509" y="0" on="1"/>
        <pt x="417" y="225" on="1"/>
        <pt x="391" y="287" on="0"/>
        <pt x="350" y="314" on="0"/>
        <pt x="283" y="314" on="1"/>
        <pt x="246" y="314" on="1"/>
        <pt x="246" y="68" on="1"/>
        <pt x="273" y="51" on="0"/>
        <pt x="349" y="40" on="1"/>
        <pt x="344" y="0" on="1"/>
        <pt x="48" y="0" on="1"/>
        <pt x="54" y="40" on="1"/>
        <pt x="116" y="47" on="0"/>
        <pt x="151" y="68" on="1"/>
        <pt x="151" y="608" on="1"/>
        <pt x="116" y="629" on="0"/>
        <pt x="48" y="636" on="1"/>
        <pt x="53" y="676" on="1"/>
      </contour>
      <contour>
        <pt x="246" y="363" on="1"/>
        <pt x="295" y="363" on="1"/>
        <pt x="491" y="363" on="0"/>
        <pt x="491" y="499" on="1"/>
        <pt x="491" y="631" on="0"/>
        <pt x="342" y="631" on="1"/>
        <pt x="302" y="631" on="0"/>
        <pt x="246" y="622" on="1"/>
      </contour>
      <contour>
        <pt x="370" y="856" on="1"/>
        <pt x="381" y="874" on="0"/>
        <pt x="420" y="874" on="0"/>
        <pt x="443" y="851" on="0"/>
        <pt x="443" y="817" on="0"/>
        <pt x="416" y="795" on="1"/>
        <pt x="304" y="705" on="1"/>
        <pt x="280" y="731" on="1"/>
      </contour>
    </TTGlyph>
    <TTGlyph name="Rcaron" xMin="48" yMin="0" xMax="677" yMax="873">
      <contour>
        <pt x="342" y="676" on="1"/>
        <pt x="588" y="676" on="0"/>
        <pt x="588" y="497" on="1"/>
        <pt x="588" y="363" on="0"/>
        <pt x="442" y="328" on="1"/>
        <pt x="474" y="308" on="0"/>
        <pt x="505" y="245" on="1"/>
        <pt x="588" y="68" on="1"/>
        <pt x="616" y="49" on="0"/>
        <pt x="677" y="41" on="1"/>
        <pt x="671" y="0" on="1"/>
        <pt x="509" y="0" on="1"/>
        <pt x="417" y="225" on="1"/>
        <pt x="391" y="287" on="0"/>
        <pt x="350" y="314" on="0"/>
        <pt x="283" y="314" on="1"/>
        <pt x="246" y="314" on="1"/>
        <pt x="246" y="68" on="1"/>
        <pt x="273" y="51" on="0"/>
        <pt x="349" y="40" on="1"/>
        <pt x="344" y="0" on="1"/>
        <pt x="48" y="0" on="1"/>
        <pt x="54" y="40" on="1"/>
        <pt x="116" y="47" on="0"/>
        <pt x="151" y="68" on="1"/>
        <pt x="151" y="608" on="1"/>
        <pt x="116" y="629" on="0"/>
        <pt x="48" y="636" on="1"/>
        <pt x="53" y="676" on="1"/>
      </contour>
      <contour>
        <pt x="246" y="363" on="1"/>
        <pt x="295" y="363" on="1"/>
        <pt x="491" y="363" on="0"/>
        <pt x="491" y="499" on="1"/>
        <pt x="491" y="631" on="0"/>
        <pt x="342" y="631" on="1"/>
        <pt x="302" y="631" on="0"/>
        <pt x="246" y="622" on="1"/>
      </contour>
      <contour>
        <pt x="376" y="732" on="1"/>
        <pt x="362" y="715" on="0"/>
        <pt x="323" y="715" on="0"/>
        <pt x="309" y="732" on="1"/>
        <pt x="209" y="847" on="1"/>
        <pt x="233" y="873" on="1"/>
        <pt x="342" y="790" on="1"/>
        <pt x="452" y="873" on="1"/>
        <pt x="476" y="847" on="1"/>
      </contour>
    </TTGlyph>
    <TTGlyph name="Rcommaaccent" xMin="48" yMin="-233" xMax="677" yMax="676">
      <contour>
        <pt x="342" y="676" on="1"/>
        <pt x="588" y="676" on="0"/>
        <pt x="588" y="497" on="1"/>
        <pt x="588" y="363" on="0"/>
        <pt x="442" y="328" on="1"/>
        <pt x="474" y="308" on="0"/>
        <pt x="505" y="245" on="1"/>
        <pt x="588" y="68" on="1"/>
        <pt x="616" y="49" on="0"/>
        <pt x="677" y="41" on="1"/>
        <pt x="671" y="0" on="1"/>
        <pt x="509" y="0" on="1"/>
        <pt x="417" y="225" on="1"/>
        <pt x="392" y="284" on="0"/>
        <pt x="355" y="314" on="0"/>
        <pt x="302" y="314" on="1"/>
        <pt x="246" y="314" on="1"/>
        <pt x="246" y="68" on="1"/>
        <pt x="273" y="51" on="0"/>
        <pt x="349" y="40" on="1"/>
        <pt x="344" y="0" on="1"/>
        <pt x="48" y="0" on="1"/>
        <pt x="54" y="40" on="1"/>
        <pt x="116" y="47" on="0"/>
        <pt x="151" y="68" on="1"/>
        <pt x="151" y="608" on="1"/>
        <pt x="116" y="629" on="0"/>
        <pt x="48" y="636" on="1"/>
        <pt x="53" y="676" on="1"/>
      </contour>
      <contour>
        <pt x="246" y="363" on="1"/>
        <pt x="295" y="363" on="1"/>
        <pt x="491" y="363" on="0"/>
        <pt x="491" y="499" on="1"/>
        <pt x="491" y="631" on="0"/>
        <pt x="342" y="631" on="1"/>
        <pt x="302" y="631" on="0"/>
        <pt x="246" y="622" on="1"/>
      </contour>
      <contour>
        <pt x="331" y="-219" on="1"/>
        <pt x="350" y="-169" on="0"/>
        <pt x="350" y="-90" on="0"/>
        <pt x="326" y="-69" on="1"/>
        <pt x="343" y="-45" on="0"/>
        <pt x="393" y="-45" on="0"/>
        <pt x="423" y="-73" on="0"/>
        <pt x="423" y="-96" on="1"/>
        <pt x="423" y="-157" on="0"/>
        <pt x="364" y="-233" on="1"/>
      </contour>
    </TTGlyph>
    <TTGlyph name="S" xMin="71" yMin="-8" xMax="513" yMax="684">
      <contour>
        <pt x="163" y="70" on="1"/>
        <pt x="222" y="47" on="0"/>
        <pt x="343" y="47" on="0"/>
        <pt x="415" y="109" on="0"/>
        <pt x="415" y="164" on="1"/>
        <pt x="415" y="234" on="0"/>
        <pt x="348" y="272" on="1"/>
        <pt x="319" y="288" on="0"/>
        <pt x="248" y="316" on="0"/>
        <pt x="177" y="348" on="0"/>
        <pt x="148" y="369" on="1"/>
        <pt x="81" y="416" on="0"/>
        <pt x="81" y="587" on="0"/>
        <pt x="197" y="684" on="0"/>
        <pt x="382" y="684" on="0"/>
        <pt x="500" y="606" on="0"/>
        <pt x="500" y="549" on="1"/>
        <pt x="500" y="481" on="0"/>
        <pt x="446" y="481" on="1"/>
        <pt x="405" y="481" on="0"/>
        <pt x="384" y="512" on="1"/>
        <pt x="407" y="533" on="0"/>
        <pt x="407" y="593" on="0"/>
        <pt x="350" y="629" on="0"/>
        <pt x="240" y="629" on="0"/>
        <pt x="173" y="577" on="0"/>
        <pt x="173" y="494" on="0"/>
        <pt x="211" y="444" on="0"/>
        <pt x="270" y="412" on="0"/>
        <pt x="343" y="383" on="0"/>
        <pt x="416" y="349" on="0"/>
        <pt x="475" y="305" on="0"/>
        <pt x="513" y="231" on="0"/>
        <pt x="513" y="182" on="1"/>
        <pt x="513" y="91" on="0"/>
        <pt x="380" y="-8" on="0"/>
        <pt x="269" y="-8" on="1"/>
        <pt x="214" y="-8" on="0"/>
        <pt x="97" y="30" on="0"/>
        <pt x="71" y="48" on="1"/>
        <pt x="71" y="222" on="1"/>
        <pt x="125" y="228" on="1"/>
        <pt x="137" y="130" on="0"/>
      </contour>
    </TTGlyph>
    <TTGlyph name="T" xMin="22" yMin="0" xMax="566" yMax="679">
      <contour>
        <pt x="70" y="497" on="1"/>
        <pt x="54" y="495" on="0"/>
        <pt x="38" y="495" on="0"/>
        <pt x="22" y="497" on="1"/>
        <pt x="22" y="679" on="1"/>
        <pt x="162" y="676" on="0"/>
        <pt x="294" y="676" on="1"/>
        <pt x="566" y="679" on="1"/>
        <pt x="566" y="497" on="1"/>
        <pt x="550" y="495" on="0"/>
        <pt x="534" y="495" on="0"/>
        <pt x="518" y="497" on="1"/>
        <pt x="514" y="561" on="0"/>
        <pt x="474" y="620" on="1"/>
        <pt x="418" y="626" on="0"/>
        <pt x="342" y="627" on="1"/>
        <pt x="342" y="68" on="1"/>
        <pt x="378" y="48" on="0"/>
        <pt x="445" y="40" on="1"/>
        <pt x="440" y="0" on="1"/>
        <pt x="144" y="0" on="1"/>
        <pt x="150" y="40" on="1"/>
        <pt x="212" y="47" on="0"/>
        <pt x="247" y="68" on="1"/>
        <pt x="247" y="627" on="1"/>
        <pt x="160" y="626" on="0"/>
        <pt x="114" y="621" on="1"/>
        <pt x="94" y="594" on="0"/>
        <pt x="71" y="523" on="0"/>
      </contour>
    </TTGlyph>
    <TTGlyph name="Thorn" xMin="44" yMin="0" xMax="574" yMax="676">
      <contour>
        <pt x="242" y="532" on="1"/>
        <pt x="326" y="532" on="1"/>
        <pt x="574" y="532" on="0"/>
        <pt x="574" y="148" on="0"/>
        <pt x="302" y="148" on="1"/>
        <pt x="242" y="148" on="1"/>
        <pt x="242" y="68" on="1"/>
        <pt x="278" y="48" on="0"/>
        <pt x="345" y="40" on="1"/>
        <pt x="340" y="0" on="1"/>
        <pt x="44" y="0" on="1"/>
        <pt x="50" y="40" on="1"/>
        <pt x="112" y="47" on="0"/>
        <pt x="147" y="68" on="1"/>
        <pt x="147" y="608" on="1"/>
        <pt x="111" y="628" on="0"/>
        <pt x="44" y="636" on="1"/>
        <pt x="49" y="676" on="1"/>
        <pt x="345" y="676" on="1"/>
        <pt x="339" y="636" on="1"/>
        <pt x="277" y="629" on="0"/>
        <pt x="242" y="608" on="1"/>
      </contour>
      <contour>
        <pt x="242" y="197" on="1"/>
        <pt x="312" y="197" on="1"/>
        <pt x="390" y="197" on="0"/>
        <pt x="478" y="267" on="0"/>
        <pt x="478" y="340" on="1"/>
        <pt x="478" y="483" on="0"/>
        <pt x="321" y="483" on="1"/>
        <pt x="297" y="483" on="0"/>
        <pt x="242" y="478" on="1"/>
      </contour>
    </TTGlyph>
    <TTGlyph name="U" xMin="34" yMin="-8" xMax="754" yMax="676">
      <contour>
        <pt x="137" y="223" on="1"/>
        <pt x="137" y="608" on="1"/>
        <pt x="102" y="629" on="0"/>
        <pt x="34" y="636" on="1"/>
        <pt x="39" y="676" on="1"/>
        <pt x="337" y="676" on="1"/>
        <pt x="331" y="636" on="1"/>
        <pt x="269" y="628" on="0"/>
        <pt x="234" y="608" on="1"/>
        <pt x="234" y="223" on="1"/>
        <pt x="234" y="130" on="0"/>
        <pt x="315" y="48" on="0"/>
        <pt x="488" y="48" on="0"/>
        <pt x="582" y="142" on="0"/>
        <pt x="582" y="229" on="1"/>
        <pt x="582" y="608" on="1"/>
        <pt x="547" y="629" on="0"/>
        <pt x="479" y="636" on="1"/>
        <pt x="484" y="676" on="1"/>
        <pt x="754" y="676" on="1"/>
        <pt x="748" y="636" on="1"/>
        <pt x="686" y="628" on="0"/>
        <pt x="651" y="608" on="1"/>
        <pt x="651" y="229" on="1"/>
        <pt x="651" y="115" on="0"/>
        <pt x="522" y="-8" on="0"/>
        <pt x="263" y="-8" on="0"/>
        <pt x="137" y="102" on="0"/>
      </contour>
    </TTGlyph>
    <TTGlyph name="Uacute" xMin="34" yMin="-8" xMax="754" yMax="874">
      <contour>
        <pt x="137" y="223" on="1"/>
        <pt x="137" y="608" on="1"/>
        <pt x="102" y="629" on="0"/>
        <pt x="34" y="636" on="1"/>
        <pt x="39" y="676" on="1"/>
        <pt x="337" y="676" on="1"/>
        <pt x="331" y="636" on="1"/>
        <pt x="269" y="628" on="0"/>
        <pt x="234" y="608" on="1"/>
        <pt x="234" y="223" on="1"/>
        <pt x="234" y="130" on="0"/>
        <pt x="315" y="48" on="0"/>
        <pt x="488" y="48" on="0"/>
        <pt x="582" y="142" on="0"/>
        <pt x="582" y="229" on="1"/>
        <pt x="582" y="608" on="1"/>
        <pt x="547" y="629" on="0"/>
        <pt x="479" y="636" on="1"/>
        <pt x="484" y="676" on="1"/>
        <pt x="754" y="676" on="1"/>
        <pt x="748" y="636" on="1"/>
        <pt x="686" y="628" on="0"/>
        <pt x="651" y="608" on="1"/>
        <pt x="651" y="229" on="1"/>
        <pt x="651" y="115" on="0"/>
        <pt x="522" y="-8" on="0"/>
        <pt x="263" y="-8" on="0"/>
        <pt x="137" y="102" on="0"/>
      </contour>
      <contour>
        <pt x="437" y="856" on="1"/>
        <pt x="448" y="874" on="0"/>
        <pt x="487" y="874" on="0"/>
        <pt x="510" y="851" on="0"/>
        <pt x="510" y="817" on="0"/>
        <pt x="483" y="795" on="1"/>
        <pt x="371" y="705" on="1"/>
        <pt x="347" y="731" on="1"/>
      </contour>
    </TTGlyph>
    <TTGlyph name="Ucircumflex" xMin="34" yMin="-8" xMax="754" yMax="873">
      <contour>
        <pt x="137" y="223" on="1"/>
        <pt x="137" y="608" on="1"/>
        <pt x="102" y="629" on="0"/>
        <pt x="34" y="636" on="1"/>
        <pt x="39" y="676" on="1"/>
        <pt x="337" y="676" on="1"/>
        <pt x="331" y="636" on="1"/>
        <pt x="269" y="628" on="0"/>
        <pt x="234" y="608" on="1"/>
        <pt x="234" y="223" on="1"/>
        <pt x="234" y="130" on="0"/>
        <pt x="315" y="48" on="0"/>
        <pt x="488" y="48" on="0"/>
        <pt x="582" y="142" on="0"/>
        <pt x="582" y="229" on="1"/>
        <pt x="582" y="608" on="1"/>
        <pt x="547" y="629" on="0"/>
        <pt x="479" y="636" on="1"/>
        <pt x="484" y="676" on="1"/>
        <pt x="754" y="676" on="1"/>
        <pt x="748" y="636" on="1"/>
        <pt x="686" y="628" on="0"/>
        <pt x="651" y="608" on="1"/>
        <pt x="651" y="229" on="1"/>
        <pt x="651" y="115" on="0"/>
        <pt x="522" y="-8" on="0"/>
        <pt x="263" y="-8" on="0"/>
        <pt x="137" y="102" on="0"/>
      </contour>
      <contour>
        <pt x="376" y="856" on="1"/>
        <pt x="390" y="873" on="0"/>
        <pt x="429" y="873" on="0"/>
        <pt x="443" y="856" on="1"/>
        <pt x="543" y="741" on="1"/>
        <pt x="519" y="715" on="1"/>
        <pt x="409" y="798" on="1"/>
        <pt x="300" y="715" on="1"/>
        <pt x="276" y="741" on="1"/>
      </contour>
    </TTGlyph>
    <TTGlyph name="Udieresis" xMin="34" yMin="-8" xMax="754" yMax="849">
      <contour>
        <pt x="137" y="223" on="1"/>
        <pt x="137" y="608" on="1"/>
        <pt x="102" y="629" on="0"/>
        <pt x="34" y="636" on="1"/>
        <pt x="39" y="676" on="1"/>
        <pt x="337" y="676" on="1"/>
        <pt x="331" y="636" on="1"/>
        <pt x="269" y="628" on="0"/>
        <pt x="234" y="608" on="1"/>
        <pt x="234" y="223" on="1"/>
        <pt x="234" y="130" on="0"/>
        <pt x="315" y="48" on="0"/>
        <pt x="488" y="48" on="0"/>
        <pt x="582" y="142" on="0"/>
        <pt x="582" y="229" on="1"/>
        <pt x="582" y="608" on="1"/>
        <pt x="547" y="629" on="0"/>
        <pt x="479" y="636" on="1"/>
        <pt x="484" y="676" on="1"/>
        <pt x="754" y="676" on="1"/>
        <pt x="748" y="636" on="1"/>
        <pt x="686" y="628" on="0"/>
        <pt x="651" y="608" on="1"/>
        <pt x="651" y="229" on="1"/>
        <pt x="651" y="115" on="0"/>
        <pt x="522" y="-8" on="0"/>
        <pt x="263" y="-8" on="0"/>
        <pt x="137" y="102" on="0"/>
      </contour>
      <contour>
        <pt x="370" y="736" on="0"/>
        <pt x="268" y="736" on="0"/>
        <pt x="268" y="849" on="0"/>
        <pt x="370" y="849" on="0"/>
      </contour>
      <contour>
        <pt x="498" y="736" on="1"/>
        <pt x="448" y="736" on="0"/>
        <pt x="448" y="849" on="0"/>
        <pt x="498" y="849" on="1"/>
        <pt x="550" y="849" on="0"/>
        <pt x="550" y="736" on="0"/>
      </contour>
    </TTGlyph>
    <TTGlyph name="Ugrave" xMin="34" yMin="-8" xMax="754" yMax="874">
      <contour>
        <pt x="137" y="223" on="1"/>
        <pt x="137" y="608" on="1"/>
        <pt x="102" y="629" on="0"/>
        <pt x="34" y="636" on="1"/>
        <pt x="39" y="676" on="1"/>
        <pt x="337" y="676" on="1"/>
        <pt x="331" y="636" on="1"/>
        <pt x="269" y="628" on="0"/>
        <pt x="234" y="608" on="1"/>
        <pt x="234" y="223" on="1"/>
        <pt x="234" y="130" on="0"/>
        <pt x="315" y="48" on="0"/>
        <pt x="488" y="48" on="0"/>
        <pt x="582" y="142" on="0"/>
        <pt x="582" y="229" on="1"/>
        <pt x="582" y="608" on="1"/>
        <pt x="547" y="629" on="0"/>
        <pt x="479" y="636" on="1"/>
        <pt x="484" y="676" on="1"/>
        <pt x="754" y="676" on="1"/>
        <pt x="748" y="636" on="1"/>
        <pt x="686" y="628" on="0"/>
        <pt x="651" y="608" on="1"/>
        <pt x="651" y="229" on="1"/>
        <pt x="651" y="115" on="0"/>
        <pt x="522" y="-8" on="0"/>
        <pt x="263" y="-8" on="0"/>
        <pt x="137" y="102" on="0"/>
      </contour>
      <contour>
        <pt x="333" y="795" on="1"/>
        <pt x="306" y="817" on="0"/>
        <pt x="306" y="851" on="0"/>
        <pt x="329" y="874" on="0"/>
        <pt x="368" y="874" on="0"/>
        <pt x="379" y="856" on="1"/>
        <pt x="469" y="731" on="1"/>
        <pt x="445" y="705" on="1"/>
      </contour>
    </TTGlyph>
    <TTGlyph name="V" xMin="0" yMin="0" xMax="699" yMax="676">
      <contour>
        <pt x="311" y="0" on="1"/>
        <pt x="81" y="609" on="1"/>
        <pt x="52" y="628" on="0"/>
        <pt x="0" y="636" on="1"/>
        <pt x="5" y="676" on="1"/>
        <pt x="290" y="676" on="1"/>
        <pt x="284" y="636" on="1"/>
        <pt x="222" y="629" on="0"/>
        <pt x="187" y="608" on="1"/>
        <pt x="360" y="131" on="1"/>
        <pt x="533" y="609" on="1"/>
        <pt x="497" y="628" on="0"/>
        <pt x="432" y="636" on="1"/>
        <pt x="437" y="676" on="1"/>
        <pt x="699" y="676" on="1"/>
        <pt x="693" y="636" on="1"/>
        <pt x="635" y="628" on="0"/>
        <pt x="604" y="608" on="1"/>
        <pt x="375" y="0" on="1"/>
      </contour>
    </TTGlyph>
    <TTGlyph name="W" xMin="2" yMin="0" xMax="1029" yMax="676">
      <contour>
        <pt x="272" y="0" on="1"/>
        <pt x="103" y="609" on="1"/>
        <pt x="67" y="628" on="0"/>
        <pt x="2" y="636" on="1"/>
        <pt x="7" y="676" on="1"/>
        <pt x="309" y="676" on="1"/>
        <pt x="303" y="636" on="1"/>
        <pt x="242" y="629" on="0"/>
        <pt x="207" y="608" on="1"/>
        <pt x="329" y="130" on="1"/>
        <pt x="499" y="669" on="1"/>
        <pt x="556" y="669" on="1"/>
        <pt x="731" y="139" on="1"/>
        <pt x="855" y="608" on="1"/>
        <pt x="819" y="628" on="0"/>
        <pt x="752" y="636" on="1"/>
        <pt x="757" y="676" on="1"/>
        <pt x="1029" y="676" on="1"/>
        <pt x="1023" y="636" on="1"/>
        <pt x="958" y="629" on="0"/>
        <pt x="924" y="608" on="1"/>
        <pt x="755" y="0" on="1"/>
        <pt x="679" y="0" on="1"/>
        <pt x="513" y="507" on="1"/>
        <pt x="351" y="0" on="1"/>
      </contour>
    </TTGlyph>
    <TTGlyph name="X" xMin="-2" yMin="0" xMax="707" yMax="676">
      <contour>
        <pt x="-2" y="0" on="1"/>
        <pt x="4" y="40" on="1"/>
        <pt x="48" y="43" on="0"/>
        <pt x="101" y="67" on="0"/>
        <pt x="121" y="94" on="1"/>
        <pt x="304" y="337" on="1"/>
        <pt x="114" y="600" on="1"/>
        <pt x="101" y="617" on="0"/>
        <pt x="61" y="632" on="0"/>
        <pt x="18" y="636" on="1"/>
        <pt x="23" y="676" on="1"/>
        <pt x="324" y="676" on="1"/>
        <pt x="318" y="636" on="1"/>
        <pt x="256" y="630" on="0"/>
        <pt x="233" y="607" on="1"/>
        <pt x="371" y="415" on="1"/>
        <pt x="516" y="608" on="1"/>
        <pt x="481" y="630" on="0"/>
        <pt x="431" y="636" on="1"/>
        <pt x="436" y="676" on="1"/>
        <pt x="679" y="676" on="1"/>
        <pt x="673" y="636" on="1"/>
        <pt x="605" y="630" on="0"/>
        <pt x="580" y="596" on="1"/>
        <pt x="407" y="366" on="1"/>
        <pt x="605" y="92" on="1"/>
        <pt x="636" y="49" on="0"/>
        <pt x="707" y="40" on="1"/>
        <pt x="702" y="0" on="1"/>
        <pt x="398" y="0" on="1"/>
        <pt x="404" y="40" on="1"/>
        <pt x="474" y="40" on="0"/>
        <pt x="497" y="70" on="1"/>
        <pt x="340" y="287" on="1"/>
        <pt x="174" y="67" on="1"/>
        <pt x="192" y="40" on="0"/>
        <pt x="275" y="40" on="1"/>
        <pt x="270" y="0" on="1"/>
      </contour>
    </TTGlyph>
    <TTGlyph name="Y" xMin="-2" yMin="0" xMax="648" yMax="676">
      <contour>
        <pt x="171" y="0" on="1"/>
        <pt x="177" y="40" on="1"/>
        <pt x="242" y="47" on="0"/>
        <pt x="279" y="68" on="1"/>
        <pt x="279" y="264" on="1"/>
        <pt x="89" y="600" on="1"/>
        <pt x="67" y="629" on="0"/>
        <pt x="-2" y="636" on="1"/>
        <pt x="3" y="676" on="1"/>
        <pt x="294" y="676" on="1"/>
        <pt x="288" y="636" on="1"/>
        <pt x="224" y="628" on="0"/>
        <pt x="194" y="612" on="1"/>
        <pt x="340" y="347" on="1"/>
        <pt x="488" y="611" on="1"/>
        <pt x="454" y="628" on="0"/>
        <pt x="386" y="636" on="1"/>
        <pt x="391" y="676" on="1"/>
        <pt x="648" y="676" on="1"/>
        <pt x="642" y="636" on="1"/>
        <pt x="578" y="634" on="0"/>
        <pt x="556" y="604" on="1"/>
        <pt x="374" y="271" on="1"/>
        <pt x="374" y="68" on="1"/>
        <pt x="411" y="48" on="0"/>
        <pt x="482" y="40" on="1"/>
        <pt x="477" y="0" on="1"/>
      </contour>
    </TTGlyph>
    <TTGlyph name="Yacute" xMin="-2" yMin="0" xMax="648" yMax="874">
      <contour>
        <pt x="171" y="0" on="1"/>
        <pt x="177" y="40" on="1"/>
        <pt x="242" y="47" on="0"/>
        <pt x="279" y="68" on="1"/>
        <pt x="279" y="264" on="1"/>
        <pt x="89" y="600" on="1"/>
        <pt x="67" y="629" on="0"/>
        <pt x="-2" y="636" on="1"/>
        <pt x="3" y="676" on="1"/>
        <pt x="294" y="676" on="1"/>
        <pt x="288" y="636" on="1"/>
        <pt x="224" y="628" on="0"/>
        <pt x="194" y="612" on="1"/>
        <pt x="340" y="347" on="1"/>
        <pt x="488" y="611" on="1"/>
        <pt x="454" y="628" on="0"/>
        <pt x="386" y="636" on="1"/>
        <pt x="391" y="676" on="1"/>
        <pt x="648" y="676" on="1"/>
        <pt x="642" y="636" on="1"/>
        <pt x="578" y="634" on="0"/>
        <pt x="556" y="604" on="1"/>
        <pt x="374" y="271" on="1"/>
        <pt x="374" y="68" on="1"/>
        <pt x="411" y="48" on="0"/>
        <pt x="482" y="40" on="1"/>
        <pt x="477" y="0" on="1"/>
      </contour>
      <contour>
        <pt x="371" y="856" on="1"/>
        <pt x="382" y="874" on="0"/>
        <pt x="421" y="874" on="0"/>
        <pt x="444" y="851" on="0"/>
        <pt x="444" y="817" on="0"/>
        <pt x="417" y="795" on="1"/>
        <pt x="305" y="705" on="1"/>
        <pt x="281" y="731" on="1"/>
      </contour>
    </TTGlyph>
    <TTGlyph name="Z" xMin="42" yMin="-4" xMax="547" yMax="680">
      <contour>
        <pt x="421" y="620" on="1"/>
        <pt x="331" y="621" on="1"/>
        <pt x="211" y="621" on="0"/>
        <pt x="158" y="617" on="1"/>
        <pt x="120" y="584" on="0"/>
        <pt x="107" y="500" on="1"/>
        <pt x="93" y="498" on="0"/>
        <pt x="77" y="498" on="0"/>
        <pt x="65" y="500" on="1"/>
        <pt x="52" y="656" on="1"/>
        <pt x="80" y="680" on="1"/>
        <pt x="224" y="676" on="0"/>
        <pt x="426" y="676" on="0"/>
        <pt x="538" y="680" on="1"/>
        <pt x="547" y="638" on="1"/>
        <pt x="159" y="56" on="1"/>
        <pt x="188" y="55" on="0"/>
        <pt x="379" y="55" on="0"/>
        <pt x="430" y="56" on="1"/>
        <pt x="481" y="118" on="0"/>
        <pt x="499" y="192" on="1"/>
        <pt x="513" y="194" on="0"/>
        <pt x="532" y="194" on="0"/>
        <pt x="546" y="192" on="1"/>
        <pt x="537" y="-3" on="1"/>
        <pt x="463" y="0" on="0"/>
        <pt x="256" y="0" on="1"/>
        <pt x="46" y="-4" on="1"/>
        <pt x="42" y="49" on="1"/>
      </contour>
    </TTGlyph>
    <TTGlyph name="a" xMin="52" yMin="-8" xMax="498" yMax="513">
      <contour>
        <pt x="187" y="-8" on="1"/>
        <pt x="123" y="-8" on="0"/>
        <pt x="52" y="57" on="0"/>
        <pt x="52" y="186" on="0"/>
        <pt x="151" y="266" on="0"/>
        <pt x="246" y="273" on="1"/>
        <pt x="331" y="279" on="1"/>
        <pt x="331" y="367" on="1"/>
        <pt x="331" y="421" on="0"/>
        <pt x="288" y="470" on="0"/>
        <pt x="241" y="470" on="1"/>
        <pt x="156" y="470" on="0"/>
        <pt x="156" y="421" on="1"/>
        <pt x="156" y="394" on="0"/>
        <pt x="189" y="381" on="1"/>
        <pt x="189" y="330" on="0"/>
        <pt x="127" y="330" on="1"/>
        <pt x="99" y="330" on="0"/>
        <pt x="65" y="364" on="0"/>
        <pt x="65" y="392" on="1"/>
        <pt x="65" y="448" on="0"/>
        <pt x="160" y="513" on="0"/>
        <pt x="327" y="513" on="0"/>
        <pt x="423" y="436" on="0"/>
        <pt x="423" y="367" on="1"/>
        <pt x="423" y="66" on="1"/>
        <pt x="448" y="47" on="0"/>
        <pt x="498" y="37" on="1"/>
        <pt x="494" y="0" on="1"/>
        <pt x="345" y="0" on="1"/>
        <pt x="334" y="48" on="1"/>
        <pt x="275" y="-8" on="0"/>
      </contour>
      <contour>
        <pt x="147" y="125" on="1"/>
        <pt x="147" y="37" on="0"/>
        <pt x="215" y="37" on="1"/>
        <pt x="269" y="37" on="0"/>
        <pt x="331" y="99" on="1"/>
        <pt x="331" y="235" on="1"/>
        <pt x="250" y="228" on="1"/>
        <pt x="202" y="224" on="0"/>
        <pt x="147" y="168" on="0"/>
      </contour>
    </TTGlyph>
    <TTGlyph name="aacute" xMin="54" yMin="-8" xMax="500" yMax="734">
      <contour>
        <pt x="189" y="-8" on="1"/>
        <pt x="125" y="-8" on="0"/>
        <pt x="54" y="57" on="0"/>
        <pt x="54" y="186" on="0"/>
        <pt x="153" y="266" on="0"/>
        <pt x="248" y="273" on="1"/>
        <pt x="333" y="279" on="1"/>
        <pt x="333" y="367" on="1"/>
        <pt x="333" y="421" on="0"/>
        <pt x="290" y="470" on="0"/>
        <pt x="243" y="470" on="1"/>
        <pt x="158" y="470" on="0"/>
        <pt x="158" y="421" on="1"/>
        <pt x="158" y="394" on="0"/>
        <pt x="191" y="381" on="1"/>
        <pt x="191" y="330" on="0"/>
        <pt x="129" y="330" on="1"/>
        <pt x="101" y="330" on="0"/>
        <pt x="67" y="364" on="0"/>
        <pt x="67" y="392" on="1"/>
        <pt x="67" y="448" on="0"/>
        <pt x="162" y="513" on="0"/>
        <pt x="329" y="513" on="0"/>
        <pt x="425" y="436" on="0"/>
        <pt x="425" y="367" on="1"/>
        <pt x="425" y="66" on="1"/>
        <pt x="450" y="47" on="0"/>
        <pt x="500" y="37" on="1"/>
        <pt x="496" y="0" on="1"/>
        <pt x="347" y="0" on="1"/>
        <pt x="336" y="48" on="1"/>
        <pt x="277" y="-8" on="0"/>
      </contour>
      <contour>
        <pt x="149" y="125" on="1"/>
        <pt x="149" y="37" on="0"/>
        <pt x="217" y="37" on="1"/>
        <pt x="271" y="37" on="0"/>
        <pt x="333" y="99" on="1"/>
        <pt x="333" y="235" on="1"/>
        <pt x="252" y="228" on="1"/>
        <pt x="204" y="224" on="0"/>
        <pt x="149" y="168" on="0"/>
      </contour>
      <contour>
        <pt x="280" y="716" on="1"/>
        <pt x="291" y="734" on="0"/>
        <pt x="330" y="734" on="0"/>
        <pt x="353" y="711" on="0"/>
        <pt x="353" y="677" on="0"/>
        <pt x="326" y="655" on="1"/>
        <pt x="214" y="565" on="1"/>
        <pt x="190" y="591" on="1"/>
      </contour>
    </TTGlyph>
    <TTGlyph name="acircumflex" xMin="54" yMin="-8" xMax="500" yMax="733">
      <contour>
        <pt x="189" y="-8" on="1"/>
        <pt x="125" y="-8" on="0"/>
        <pt x="54" y="57" on="0"/>
        <pt x="54" y="186" on="0"/>
        <pt x="153" y="266" on="0"/>
        <pt x="248" y="273" on="1"/>
        <pt x="333" y="279" on="1"/>
        <pt x="333" y="367" on="1"/>
        <pt x="333" y="421" on="0"/>
        <pt x="290" y="470" on="0"/>
        <pt x="243" y="470" on="1"/>
        <pt x="158" y="470" on="0"/>
        <pt x="158" y="421" on="1"/>
        <pt x="158" y="394" on="0"/>
        <pt x="191" y="381" on="1"/>
        <pt x="191" y="330" on="0"/>
        <pt x="129" y="330" on="1"/>
        <pt x="101" y="330" on="0"/>
        <pt x="67" y="364" on="0"/>
        <pt x="67" y="392" on="1"/>
        <pt x="67" y="448" on="0"/>
        <pt x="162" y="513" on="0"/>
        <pt x="329" y="513" on="0"/>
        <pt x="425" y="436" on="0"/>
        <pt x="425" y="367" on="1"/>
        <pt x="425" y="66" on="1"/>
        <pt x="450" y="47" on="0"/>
        <pt x="500" y="37" on="1"/>
        <pt x="496" y="0" on="1"/>
        <pt x="347" y="0" on="1"/>
        <pt x="336" y="48" on="1"/>
        <pt x="277" y="-8" on="0"/>
      </contour>
      <contour>
        <pt x="149" y="125" on="1"/>
        <pt x="149" y="37" on="0"/>
        <pt x="217" y="37" on="1"/>
        <pt x="271" y="37" on="0"/>
        <pt x="333" y="99" on="1"/>
        <pt x="333" y="235" on="1"/>
        <pt x="252" y="228" on="1"/>
        <pt x="204" y="224" on="0"/>
        <pt x="149" y="168" on="0"/>
      </contour>
      <contour>
        <pt x="219" y="716" on="1"/>
        <pt x="233" y="733" on="0"/>
        <pt x="272" y="733" on="0"/>
        <pt x="286" y="716" on="1"/>
        <pt x="386" y="601" on="1"/>
        <pt x="362" y="575" on="1"/>
        <pt x="252" y="658" on="1"/>
        <pt x="143" y="575" on="1"/>
        <pt x="119" y="601" on="1"/>
      </contour>
    </TTGlyph>
    <TTGlyph name="acute" xMin="34" yMin="565" xMax="197" yMax="734">
      <contour>
        <pt x="124" y="716" on="1"/>
        <pt x="135" y="734" on="0"/>
        <pt x="174" y="734" on="0"/>
        <pt x="197" y="711" on="0"/>
        <pt x="197" y="677" on="0"/>
        <pt x="170" y="655" on="1"/>
        <pt x="58" y="565" on="1"/>
        <pt x="34" y="591" on="1"/>
      </contour>
    </TTGlyph>
    <TTGlyph name="adieresis" xMin="54" yMin="-8" xMax="500" yMax="709">
      <contour>
        <pt x="189" y="-8" on="1"/>
        <pt x="125" y="-8" on="0"/>
        <pt x="54" y="57" on="0"/>
        <pt x="54" y="186" on="0"/>
        <pt x="153" y="266" on="0"/>
        <pt x="248" y="273" on="1"/>
        <pt x="333" y="279" on="1"/>
        <pt x="333" y="367" on="1"/>
        <pt x="333" y="421" on="0"/>
        <pt x="290" y="470" on="0"/>
        <pt x="243" y="470" on="1"/>
        <pt x="158" y="470" on="0"/>
        <pt x="158" y="421" on="1"/>
        <pt x="158" y="394" on="0"/>
        <pt x="191" y="381" on="1"/>
        <pt x="191" y="330" on="0"/>
        <pt x="129" y="330" on="1"/>
        <pt x="101" y="330" on="0"/>
        <pt x="67" y="364" on="0"/>
        <pt x="67" y="392" on="1"/>
        <pt x="67" y="448" on="0"/>
        <pt x="162" y="513" on="0"/>
        <pt x="329" y="513" on="0"/>
        <pt x="425" y="436" on="0"/>
        <pt x="425" y="367" on="1"/>
        <pt x="425" y="66" on="1"/>
        <pt x="450" y="47" on="0"/>
        <pt x="500" y="37" on="1"/>
        <pt x="496" y="0" on="1"/>
        <pt x="347" y="0" on="1"/>
        <pt x="336" y="48" on="1"/>
        <pt x="277" y="-8" on="0"/>
      </contour>
      <contour>
        <pt x="149" y="125" on="1"/>
        <pt x="149" y="37" on="0"/>
        <pt x="217" y="37" on="1"/>
        <pt x="271" y="37" on="0"/>
        <pt x="333" y="99" on="1"/>
        <pt x="333" y="235" on="1"/>
        <pt x="252" y="228" on="1"/>
        <pt x="204" y="224" on="0"/>
        <pt x="149" y="168" on="0"/>
      </contour>
      <contour>
        <pt x="213" y="596" on="0"/>
        <pt x="111" y="596" on="0"/>
        <pt x="111" y="709" on="0"/>
        <pt x="213" y="709" on="0"/>
      </contour>
      <contour>
        <pt x="341" y="596" on="1"/>
        <pt x="291" y="596" on="0"/>
        <pt x="291" y="709" on="0"/>
        <pt x="341" y="709" on="1"/>
        <pt x="393" y="709" on="0"/>
        <pt x="393" y="596" on="0"/>
      </contour>
    </TTGlyph>
    <TTGlyph name="ae" xMin="54" yMin="-8" xMax="743" yMax="513">
      <contour>
        <pt x="333" y="367" on="1"/>
        <pt x="333" y="421" on="0"/>
        <pt x="290" y="470" on="0"/>
        <pt x="243" y="470" on="1"/>
        <pt x="158" y="470" on="0"/>
        <pt x="158" y="421" on="1"/>
        <pt x="158" y="394" on="0"/>
        <pt x="191" y="381" on="1"/>
        <pt x="191" y="330" on="0"/>
        <pt x="129" y="330" on="1"/>
        <pt x="101" y="330" on="0"/>
        <pt x="67" y="364" on="0"/>
        <pt x="67" y="392" on="1"/>
        <pt x="67" y="448" on="0"/>
        <pt x="162" y="513" on="0"/>
        <pt x="243" y="513" on="1"/>
        <pt x="353" y="513" on="0"/>
        <pt x="398" y="452" on="1"/>
        <pt x="454" y="513" on="0"/>
        <pt x="656" y="513" on="0"/>
        <pt x="740" y="401" on="0"/>
        <pt x="743" y="290" on="1"/>
        <pt x="721" y="261" on="1"/>
        <pt x="431" y="261" on="1"/>
        <pt x="431" y="245" on="1"/>
        <pt x="431" y="121" on="0"/>
        <pt x="464" y="78" on="1"/>
        <pt x="495" y="38" on="0"/>
        <pt x="636" y="38" on="0"/>
        <pt x="686" y="97" on="1"/>
        <pt x="720" y="63" on="1"/>
        <pt x="659" y="-8" on="0"/>
        <pt x="556" y="-8" on="1"/>
        <pt x="421" y="-8" on="0"/>
        <pt x="371" y="82" on="1"/>
        <pt x="330" y="34" on="0"/>
        <pt x="245" y="-8" on="0"/>
        <pt x="125" y="-8" on="0"/>
        <pt x="54" y="57" on="0"/>
        <pt x="54" y="186" on="0"/>
        <pt x="153" y="266" on="0"/>
        <pt x="248" y="273" on="1"/>
        <pt x="333" y="279" on="1"/>
      </contour>
      <contour>
        <pt x="149" y="125" on="1"/>
        <pt x="149" y="37" on="0"/>
        <pt x="217" y="37" on="1"/>
        <pt x="277" y="37" on="0"/>
        <pt x="333" y="99" on="1"/>
        <pt x="333" y="235" on="1"/>
        <pt x="252" y="228" on="1"/>
        <pt x="204" y="224" on="0"/>
        <pt x="149" y="168" on="0"/>
      </contour>
      <contour>
        <pt x="548" y="469" on="1"/>
        <pt x="434" y="469" on="0"/>
        <pt x="431" y="301" on="1"/>
        <pt x="646" y="309" on="1"/>
        <pt x="646" y="393" on="0"/>
        <pt x="604" y="469" on="0"/>
      </contour>
    </TTGlyph>
    <TTGlyph name="agrave" xMin="54" yMin="-8" xMax="500" yMax="734">
      <contour>
        <pt x="189" y="-8" on="1"/>
        <pt x="125" y="-8" on="0"/>
        <pt x="54" y="57" on="0"/>
        <pt x="54" y="186" on="0"/>
        <pt x="153" y="266" on="0"/>
        <pt x="248" y="273" on="1"/>
        <pt x="333" y="279" on="1"/>
        <pt x="333" y="367" on="1"/>
        <pt x="333" y="421" on="0"/>
        <pt x="290" y="470" on="0"/>
        <pt x="243" y="470" on="1"/>
        <pt x="158" y="470" on="0"/>
        <pt x="158" y="421" on="1"/>
        <pt x="158" y="394" on="0"/>
        <pt x="191" y="381" on="1"/>
        <pt x="191" y="330" on="0"/>
        <pt x="129" y="330" on="1"/>
        <pt x="101" y="330" on="0"/>
        <pt x="67" y="364" on="0"/>
        <pt x="67" y="392" on="1"/>
        <pt x="67" y="448" on="0"/>
        <pt x="162" y="513" on="0"/>
        <pt x="329" y="513" on="0"/>
        <pt x="425" y="436" on="0"/>
        <pt x="425" y="367" on="1"/>
        <pt x="425" y="66" on="1"/>
        <pt x="450" y="47" on="0"/>
        <pt x="500" y="37" on="1"/>
        <pt x="496" y="0" on="1"/>
        <pt x="347" y="0" on="1"/>
        <pt x="336" y="48" on="1"/>
        <pt x="277" y="-8" on="0"/>
      </contour>
      <contour>
        <pt x="149" y="125" on="1"/>
        <pt x="149" y="37" on="0"/>
        <pt x="217" y="37" on="1"/>
        <pt x="271" y="37" on="0"/>
        <pt x="333" y="99" on="1"/>
        <pt x="333" y="235" on="1"/>
        <pt x="252" y="228" on="1"/>
        <pt x="204" y="224" on="0"/>
        <pt x="149" y="168" on="0"/>
      </contour>
      <contour>
        <pt x="176" y="655" on="1"/>
        <pt x="149" y="677" on="0"/>
        <pt x="149" y="711" on="0"/>
        <pt x="172" y="734" on="0"/>
        <pt x="211" y="734" on="0"/>
        <pt x="222" y="716" on="1"/>
        <pt x="312" y="591" on="1"/>
        <pt x="288" y="565" on="1"/>
      </contour>
    </TTGlyph>
    <TTGlyph name="ampersand" xMin="60" yMin="-5" xMax="746" yMax="681">
      <contour>
        <pt x="160" y="208" on="1"/>
        <pt x="160" y="49" on="0"/>
        <pt x="360" y="49" on="1"/>
        <pt x="459" y="49" on="0"/>
        <pt x="583" y="155" on="0"/>
        <pt x="583" y="259" on="1"/>
        <pt x="583" y="330" on="0"/>
        <pt x="553" y="392" on="1"/>
        <pt x="504" y="390" on="0"/>
        <pt x="462" y="368" on="0"/>
        <pt x="462" y="320" on="0"/>
        <pt x="483" y="302" on="1"/>
        <pt x="463" y="282" on="0"/>
        <pt x="411" y="282" on="0"/>
        <pt x="381" y="317" on="0"/>
        <pt x="381" y="345" on="1"/>
        <pt x="381" y="390" on="0"/>
        <pt x="472" y="438" on="0"/>
        <pt x="558" y="438" on="1"/>
        <pt x="665" y="438" on="0"/>
        <pt x="665" y="487" on="1"/>
        <pt x="665" y="512" on="0"/>
        <pt x="644" y="530" on="1"/>
        <pt x="664" y="550" on="0"/>
        <pt x="716" y="550" on="0"/>
        <pt x="746" y="518" on="0"/>
        <pt x="746" y="492" on="1"/>
        <pt x="746" y="396" on="0"/>
        <pt x="592" y="393" on="1"/>
        <pt x="628" y="323" on="0"/>
        <pt x="628" y="245" on="1"/>
        <pt x="628" y="126" on="0"/>
        <pt x="475" y="-5" on="0"/>
        <pt x="214" y="-5" on="0"/>
        <pt x="60" y="108" on="0"/>
        <pt x="60" y="203" on="1"/>
        <pt x="60" y="349" on="0"/>
        <pt x="202" y="396" on="1"/>
        <pt x="116" y="435" on="0"/>
        <pt x="116" y="530" on="1"/>
        <pt x="116" y="594" on="0"/>
        <pt x="230" y="681" on="0"/>
        <pt x="395" y="681" on="0"/>
        <pt x="505" y="609" on="0"/>
        <pt x="505" y="554" on="1"/>
        <pt x="505" y="522" on="0"/>
        <pt x="476" y="483" on="0"/>
        <pt x="422" y="483" on="0"/>
        <pt x="399" y="502" on="1"/>
        <pt x="410" y="522" on="0"/>
        <pt x="410" y="581" on="0"/>
        <pt x="356" y="627" on="0"/>
        <pt x="267" y="627" on="0"/>
        <pt x="210" y="574" on="0"/>
        <pt x="210" y="488" on="0"/>
        <pt x="266" y="425" on="0"/>
        <pt x="329" y="424" on="1"/>
        <pt x="329" y="372" on="1"/>
        <pt x="251" y="363" on="0"/>
        <pt x="160" y="276" on="0"/>
      </contour>
    </TTGlyph>
    <TTGlyph name="aring" xMin="54" yMin="-8" xMax="500" yMax="739">
      <contour>
        <pt x="189" y="-8" on="1"/>
        <pt x="125" y="-8" on="0"/>
        <pt x="54" y="57" on="0"/>
        <pt x="54" y="186" on="0"/>
        <pt x="153" y="266" on="0"/>
        <pt x="248" y="273" on="1"/>
        <pt x="333" y="279" on="1"/>
        <pt x="333" y="367" on="1"/>
        <pt x="333" y="421" on="0"/>
        <pt x="290" y="470" on="0"/>
        <pt x="243" y="470" on="1"/>
        <pt x="158" y="470" on="0"/>
        <pt x="158" y="421" on="1"/>
        <pt x="158" y="394" on="0"/>
        <pt x="191" y="381" on="1"/>
        <pt x="191" y="330" on="0"/>
        <pt x="129" y="330" on="1"/>
        <pt x="101" y="330" on="0"/>
        <pt x="67" y="364" on="0"/>
        <pt x="67" y="392" on="1"/>
        <pt x="67" y="448" on="0"/>
        <pt x="162" y="513" on="0"/>
        <pt x="329" y="513" on="0"/>
        <pt x="425" y="436" on="0"/>
        <pt x="425" y="367" on="1"/>
        <pt x="425" y="66" on="1"/>
        <pt x="450" y="47" on="0"/>
        <pt x="500" y="37" on="1"/>
        <pt x="496" y="0" on="1"/>
        <pt x="347" y="0" on="1"/>
        <pt x="336" y="48" on="1"/>
        <pt x="277" y="-8" on="0"/>
      </contour>
      <contour>
        <pt x="149" y="125" on="1"/>
        <pt x="149" y="37" on="0"/>
        <pt x="217" y="37" on="1"/>
        <pt x="271" y="37" on="0"/>
        <pt x="333" y="99" on="1"/>
        <pt x="333" y="235" on="1"/>
        <pt x="252" y="228" on="1"/>
        <pt x="204" y="224" on="0"/>
        <pt x="149" y="168" on="0"/>
      </contour>
      <contour>
        <pt x="160" y="611" on="0"/>
        <pt x="160" y="689" on="0"/>
        <pt x="210" y="739" on="0"/>
        <pt x="293" y="739" on="0"/>
        <pt x="345" y="689" on="0"/>
        <pt x="345" y="611" on="0"/>
        <pt x="293" y="561" on="0"/>
        <pt x="210" y="561" on="0"/>
      </contour>
      <contour>
        <pt x="231" y="603" on="0"/>
        <pt x="271" y="603" on="0"/>
        <pt x="300" y="631" on="0"/>
        <pt x="300" y="670" on="0"/>
        <pt x="271" y="698" on="0"/>
        <pt x="231" y="698" on="0"/>
        <pt x="205" y="670" on="0"/>
        <pt x="205" y="630" on="0"/>
      </contour>
    </TTGlyph>
    <TTGlyph name="asciicircum" xMin="40" yMin="273" xMax="487" yMax="643">
      <contour>
        <pt x="40" y="300" on="1"/>
        <pt x="236" y="643" on="1"/>
        <pt x="291" y="643" on="1"/>
        <pt x="487" y="300" on="1"/>
        <pt x="432" y="273" on="1"/>
        <pt x="263" y="568" on="1"/>
        <pt x="95" y="273" on="1"/>
      </contour>
    </TTGlyph>
    <TTGlyph name="asciitilde" xMin="40" yMin="234" xMax="526" yMax="353">
      <contour>
        <pt x="183" y="353" on="1"/>
        <pt x="214" y="353" on="0"/>
        <pt x="375" y="301" on="0"/>
        <pt x="402" y="301" on="1"/>
        <pt x="451" y="301" on="0"/>
        <pt x="503" y="344" on="1"/>
        <pt x="516" y="336" on="0"/>
        <pt x="526" y="323" on="1"/>
        <pt x="471" y="234" on="0"/>
        <pt x="395" y="234" on="1"/>
        <pt x="358" y="234" on="0"/>
        <pt x="194" y="288" on="0"/>
        <pt x="162" y="288" on="1"/>
        <pt x="114" y="288" on="0"/>
        <pt x="62" y="245" on="1"/>
        <pt x="48" y="252" on="0"/>
        <pt x="40" y="267" on="1"/>
        <pt x="106" y="353" on="0"/>
      </contour>
    </TTGlyph>
    <TTGlyph name="asterisk" xMin="30" yMin="441" xMax="343" yMax="724">
      <contour>
        <pt x="140" y="571" on="0"/>
        <pt x="79" y="544" on="0"/>
        <pt x="52" y="544" on="0"/>
        <pt x="30" y="566" on="0"/>
        <pt x="30" y="600" on="0"/>
        <pt x="52" y="622" on="0"/>
        <pt x="78" y="622" on="0"/>
        <pt x="140" y="595" on="0"/>
        <pt x="171" y="592" on="1"/>
        <pt x="155" y="614" on="0"/>
        <pt x="110" y="647" on="0"/>
        <pt x="88" y="670" on="0"/>
        <pt x="88" y="702" on="0"/>
        <pt x="111" y="724" on="0"/>
        <pt x="152" y="724" on="0"/>
        <pt x="165" y="697" on="0"/>
        <pt x="174" y="628" on="0"/>
        <pt x="186" y="601" on="1"/>
        <pt x="198" y="629" on="0"/>
        <pt x="208" y="698" on="0"/>
        <pt x="221" y="724" on="0"/>
        <pt x="261" y="724" on="0"/>
        <pt x="284" y="700" on="0"/>
        <pt x="284" y="668" on="0"/>
        <pt x="262" y="647" on="0"/>
        <pt x="218" y="613" on="0"/>
        <pt x="202" y="592" on="1"/>
        <pt x="230" y="595" on="0"/>
        <pt x="294" y="622" on="0"/>
        <pt x="321" y="622" on="0"/>
        <pt x="343" y="600" on="0"/>
        <pt x="343" y="566" on="0"/>
        <pt x="320" y="544" on="0"/>
        <pt x="294" y="544" on="0"/>
        <pt x="230" y="571" on="0"/>
        <pt x="202" y="574" on="1"/>
        <pt x="219" y="550" on="0"/>
        <pt x="263" y="518" on="0"/>
        <pt x="284" y="498" on="0"/>
        <pt x="284" y="465" on="0"/>
        <pt x="261" y="441" on="0"/>
        <pt x="222" y="441" on="0"/>
        <pt x="211" y="462" on="1"/>
        <pt x="206" y="470" on="0"/>
        <pt x="199" y="536" on="0"/>
        <pt x="186" y="565" on="1"/>
        <pt x="172" y="536" on="0"/>
        <pt x="166" y="469" on="0"/>
        <pt x="162" y="462" on="1"/>
        <pt x="149" y="441" on="0"/>
        <pt x="111" y="441" on="0"/>
        <pt x="88" y="466" on="0"/>
        <pt x="88" y="493" on="0"/>
        <pt x="103" y="513" on="0"/>
        <pt x="113" y="519" on="1"/>
        <pt x="145" y="538" on="0"/>
        <pt x="170" y="574" on="1"/>
      </contour>
    </TTGlyph>
    <TTGlyph name="at" xMin="60" yMin="-186" xMax="908" yMax="662">
      <contour>
        <pt x="481" y="-186" on="1"/>
        <pt x="290" y="-186" on="0"/>
        <pt x="60" y="57" on="0"/>
        <pt x="60" y="419" on="0"/>
        <pt x="296" y="662" on="0"/>
        <pt x="684" y="662" on="0"/>
        <pt x="908" y="452" on="0"/>
        <pt x="908" y="288" on="1"/>
        <pt x="908" y="160" on="0"/>
        <pt x="805" y="-3" on="0"/>
        <pt x="709" y="-3" on="1"/>
        <pt x="593" y="-3" on="0"/>
        <pt x="565" y="54" on="1"/>
        <pt x="504" y="1" on="0"/>
        <pt x="427" y="1" on="1"/>
        <pt x="368" y="1" on="0"/>
        <pt x="304" y="62" on="0"/>
        <pt x="304" y="117" on="1"/>
        <pt x="304" y="249" on="0"/>
        <pt x="481" y="264" on="1"/>
        <pt x="556" y="270" on="1"/>
        <pt x="556" y="343" on="1"/>
        <pt x="556" y="393" on="0"/>
        <pt x="518" y="440" on="0"/>
        <pt x="480" y="440" on="1"/>
        <pt x="401" y="440" on="0"/>
        <pt x="401" y="392" on="1"/>
        <pt x="401" y="370" on="0"/>
        <pt x="432" y="358" on="1"/>
        <pt x="432" y="306" on="0"/>
        <pt x="372" y="306" on="1"/>
        <pt x="344" y="306" on="0"/>
        <pt x="312" y="340" on="0"/>
        <pt x="312" y="366" on="1"/>
        <pt x="312" y="419" on="0"/>
        <pt x="403" y="480" on="0"/>
        <pt x="557" y="480" on="0"/>
        <pt x="646" y="407" on="0"/>
        <pt x="646" y="343" on="1"/>
        <pt x="646" y="117" on="1"/>
        <pt x="646" y="48" on="0"/>
        <pt x="715" y="48" on="1"/>
        <pt x="760" y="48" on="0"/>
        <pt x="812" y="188" on="0"/>
        <pt x="812" y="288" on="1"/>
        <pt x="812" y="431" on="0"/>
        <pt x="651" y="616" on="0"/>
        <pt x="340" y="616" on="0"/>
        <pt x="156" y="399" on="0"/>
        <pt x="156" y="77" on="0"/>
        <pt x="334" y="-140" on="0"/>
        <pt x="481" y="-140" on="1"/>
        <pt x="574" y="-140" on="0"/>
        <pt x="645" y="-95" on="1"/>
        <pt x="675" y="-134" on="1"/>
        <pt x="595" y="-186" on="0"/>
      </contour>
      <contour>
        <pt x="393" y="126" on="1"/>
        <pt x="393" y="48" on="0"/>
        <pt x="453" y="48" on="1"/>
        <pt x="501" y="48" on="0"/>
        <pt x="556" y="103" on="1"/>
        <pt x="556" y="224" on="1"/>
        <pt x="485" y="218" on="1"/>
        <pt x="442" y="214" on="0"/>
        <pt x="393" y="163" on="0"/>
      </contour>
    </TTGlyph>
    <TTGlyph name="atilde" xMin="54" yMin="-8" xMax="500" yMax="708">
      <contour>
        <pt x="189" y="-8" on="1"/>
        <pt x="125" y="-8" on="0"/>
        <pt x="54" y="57" on="0"/>
        <pt x="54" y="186" on="0"/>
        <pt x="153" y="266" on="0"/>
        <pt x="248" y="273" on="1"/>
        <pt x="333" y="279" on="1"/>
        <pt x="333" y="367" on="1"/>
        <pt x="333" y="421" on="0"/>
        <pt x="290" y="470" on="0"/>
        <pt x="243" y="470" on="1"/>
        <pt x="158" y="470" on="0"/>
        <pt x="158" y="421" on="1"/>
        <pt x="158" y="394" on="0"/>
        <pt x="191" y="381" on="1"/>
        <pt x="191" y="330" on="0"/>
        <pt x="129" y="330" on="1"/>
        <pt x="101" y="330" on="0"/>
        <pt x="67" y="364" on="0"/>
        <pt x="67" y="392" on="1"/>
        <pt x="67" y="448" on="0"/>
        <pt x="162" y="513" on="0"/>
        <pt x="329" y="513" on="0"/>
        <pt x="425" y="436" on="0"/>
        <pt x="425" y="367" on="1"/>
        <pt x="425" y="66" on="1"/>
        <pt x="450" y="47" on="0"/>
        <pt x="500" y="37" on="1"/>
        <pt x="496" y="0" on="1"/>
        <pt x="347" y="0" on="1"/>
        <pt x="336" y="48" on="1"/>
        <pt x="277" y="-8" on="0"/>
      </contour>
      <contour>
        <pt x="149" y="125" on="1"/>
        <pt x="149" y="37" on="0"/>
        <pt x="217" y="37" on="1"/>
        <pt x="271" y="37" on="0"/>
        <pt x="333" y="99" on="1"/>
        <pt x="333" y="235" on="1"/>
        <pt x="252" y="228" on="1"/>
        <pt x="204" y="224" on="0"/>
        <pt x="149" y="168" on="0"/>
      </contour>
      <contour>
        <pt x="98" y="650" on="0"/>
        <pt x="154" y="708" on="0"/>
        <pt x="217" y="708" on="0"/>
        <pt x="296" y="665" on="0"/>
        <pt x="316" y="665" on="1"/>
        <pt x="350" y="665" on="0"/>
        <pt x="387" y="708" on="1"/>
        <pt x="405" y="701" on="0"/>
        <pt x="422" y="687" on="1"/>
        <pt x="409" y="655" on="0"/>
        <pt x="353" y="598" on="0"/>
        <pt x="289" y="598" on="0"/>
        <pt x="211" y="641" on="0"/>
        <pt x="190" y="641" on="1"/>
        <pt x="157" y="641" on="0"/>
        <pt x="120" y="598" on="1"/>
        <pt x="103" y="602" on="0"/>
        <pt x="85" y="619" on="1"/>
      </contour>
    </TTGlyph>
    <TTGlyph name="b" xMin="14" yMin="-8" xMax="509" yMax="730">
      <contour>
        <pt x="89" y="0" on="1"/>
        <pt x="89" y="598" on="1"/>
        <pt x="89" y="632" on="0"/>
        <pt x="54" y="659" on="0"/>
        <pt x="14" y="661" on="1"/>
        <pt x="17" y="693" on="1"/>
        <pt x="58" y="700" on="0"/>
        <pt x="160" y="730" on="1"/>
        <pt x="181" y="719" on="1"/>
        <pt x="181" y="438" on="1"/>
        <pt x="224" y="513" on="0"/>
        <pt x="305" y="513" on="1"/>
        <pt x="411" y="513" on="0"/>
        <pt x="509" y="375" on="0"/>
        <pt x="509" y="138" on="0"/>
        <pt x="393" y="-8" on="0"/>
        <pt x="284" y="-8" on="1"/>
        <pt x="217" y="-8" on="0"/>
        <pt x="162" y="45" on="1"/>
        <pt x="147" y="23" on="0"/>
        <pt x="140" y="0" on="1"/>
      </contour>
      <contour>
        <pt x="181" y="221" on="1"/>
        <pt x="181" y="92" on="1"/>
        <pt x="239" y="38" on="0"/>
        <pt x="327" y="38" on="0"/>
        <pt x="379" y="75" on="0"/>
        <pt x="391" y="110" on="1"/>
        <pt x="411" y="168" on="0"/>
        <pt x="411" y="304" on="0"/>
        <pt x="405" y="368" on="0"/>
        <pt x="395" y="401" on="1"/>
        <pt x="375" y="467" on="0"/>
        <pt x="305" y="467" on="1"/>
        <pt x="226" y="467" on="0"/>
        <pt x="201" y="388" on="1"/>
        <pt x="181" y="323" on="0"/>
      </contour>
    </TTGlyph>
    <TTGlyph name="backslash" xMin="0" yMin="-121" xMax="390" yMax="759">
      <contour>
        <pt x="330" y="-121" on="1"/>
        <pt x="0" y="737" on="1"/>
        <pt x="60" y="759" on="1"/>
        <pt x="390" y="-99" on="1"/>
      </contour>
    </TTGlyph>
    <TTGlyph name="bar" xMin="100" yMin="-121" xMax="169" yMax="749">
      <contour>
        <pt x="100" y="-121" on="1"/>
        <pt x="100" y="749" on="1"/>
        <pt x="169" y="749" on="1"/>
        <pt x="169" y="-121" on="1"/>
      </contour>
    </TTGlyph>
    <TTGlyph name="braceleft" xMin="60" yMin="-121" xMax="262" yMax="749">
      <contour>
        <pt x="262" y="-121" on="1"/>
        <pt x="191" y="-121" on="0"/>
        <pt x="84" y="-26" on="0"/>
        <pt x="84" y="42" on="1"/>
        <pt x="84" y="64" on="0"/>
        <pt x="111" y="200" on="0"/>
        <pt x="111" y="250" on="0"/>
        <pt x="86" y="287" on="0"/>
        <pt x="73" y="292" on="1"/>
        <pt x="60" y="297" on="1"/>
        <pt x="60" y="332" on="1"/>
        <pt x="66" y="333" on="0"/>
        <pt x="83" y="341" on="0"/>
        <pt x="111" y="379" on="0"/>
        <pt x="111" y="429" on="0"/>
        <pt x="84" y="564" on="0"/>
        <pt x="84" y="586" on="1"/>
        <pt x="84" y="654" on="0"/>
        <pt x="191" y="749" on="0"/>
        <pt x="262" y="749" on="1"/>
        <pt x="262" y="715" on="1"/>
        <pt x="212" y="711" on="0"/>
        <pt x="160" y="642" on="0"/>
        <pt x="160" y="565" on="0"/>
        <pt x="178" y="467" on="0"/>
        <pt x="178" y="438" on="1"/>
        <pt x="178" y="354" on="0"/>
        <pt x="131" y="315" on="1"/>
        <pt x="178" y="275" on="0"/>
        <pt x="178" y="191" on="1"/>
        <pt x="178" y="162" on="0"/>
        <pt x="160" y="64" on="0"/>
        <pt x="160" y="-13" on="0"/>
        <pt x="212" y="-83" on="0"/>
        <pt x="262" y="-86" on="1"/>
      </contour>
    </TTGlyph>
    <TTGlyph name="braceright" xMin="25" yMin="-121" xMax="227" yMax="749">
      <contour>
        <pt x="25" y="-121" on="1"/>
        <pt x="25" y="-86" on="1"/>
        <pt x="75" y="-83" on="0"/>
        <pt x="127" y="-13" on="0"/>
        <pt x="127" y="64" on="0"/>
        <pt x="109" y="162" on="0"/>
        <pt x="109" y="191" on="1"/>
        <pt x="109" y="275" on="0"/>
        <pt x="156" y="315" on="1"/>
        <pt x="109" y="354" on="0"/>
        <pt x="109" y="438" on="1"/>
        <pt x="109" y="467" on="0"/>
        <pt x="127" y="565" on="0"/>
        <pt x="127" y="642" on="0"/>
        <pt x="75" y="711" on="0"/>
        <pt x="25" y="715" on="1"/>
        <pt x="25" y="749" on="1"/>
        <pt x="96" y="749" on="0"/>
        <pt x="203" y="654" on="0"/>
        <pt x="203" y="586" on="1"/>
        <pt x="203" y="564" on="0"/>
        <pt x="176" y="429" on="0"/>
        <pt x="176" y="379" on="0"/>
        <pt x="202" y="342" on="0"/>
        <pt x="214" y="337" on="1"/>
        <pt x="227" y="332" on="1"/>
        <pt x="227" y="297" on="1"/>
        <pt x="221" y="296" on="0"/>
        <pt x="204" y="288" on="0"/>
        <pt x="176" y="250" on="0"/>
        <pt x="176" y="200" on="0"/>
        <pt x="203" y="64" on="0"/>
        <pt x="203" y="42" on="1"/>
        <pt x="203" y="-26" on="0"/>
        <pt x="96" y="-121" on="0"/>
      </contour>
    </TTGlyph>
    <TTGlyph name="bracketleft" xMin="100" yMin="-121" xMax="285" yMax="749">
      <contour>
        <pt x="100" y="-121" on="1"/>
        <pt x="100" y="749" on="1"/>
        <pt x="285" y="749" on="1"/>
        <pt x="285" y="715" on="1"/>
        <pt x="169" y="705" on="1"/>
        <pt x="169" y="-76" on="1"/>
        <pt x="285" y="-86" on="1"/>
        <pt x="285" y="-121" on="1"/>
      </contour>
    </TTGlyph>
    <TTGlyph name="bracketright" xMin="25" yMin="-121" xMax="210" yMax="749">
      <contour>
        <pt x="25" y="-121" on="1"/>
        <pt x="25" y="-86" on="1"/>
        <pt x="141" y="-76" on="1"/>
        <pt x="141" y="705" on="1"/>
        <pt x="25" y="715" on="1"/>
        <pt x="25" y="749" on="1"/>
        <pt x="210" y="749" on="1"/>
        <pt x="210" y="-121" on="1"/>
      </contour>
    </TTGlyph>
    <TTGlyph name="brokenbar" xMin="100" yMin="-121" xMax="169" yMax="749">
      <contour>
        <pt x="100" y="396" on="1"/>
        <pt x="100" y="749" on="1"/>
        <pt x="169" y="749" on="1"/>
        <pt x="169" y="396" on="1"/>
      </contour>
      <contour>
        <pt x="100" y="-121" on="1"/>
        <pt x="100" y="252" on="1"/>
        <pt x="169" y="252" on="1"/>
        <pt x="169" y="-121" on="1"/>
      </contour>
    </TTGlyph>
    <TTGlyph name="bullet" xMin="35" yMin="227" xMax="220" yMax="414">
      <contour>
        <pt x="220" y="284" on="0"/>
        <pt x="165" y="227" on="0"/>
        <pt x="92" y="227" on="0"/>
        <pt x="35" y="285" on="0"/>
        <pt x="35" y="359" on="0"/>
        <pt x="91" y="414" on="0"/>
        <pt x="166" y="414" on="0"/>
        <pt x="220" y="359" on="0"/>
      </contour>
    </TTGlyph>
    <TTGlyph name="c" xMin="41" yMin="-5" xMax="438" yMax="510">
      <contour>
        <pt x="267" y="-5" on="1"/>
        <pt x="149" y="-5" on="0"/>
        <pt x="41" y="118" on="0"/>
        <pt x="41" y="251" on="1"/>
        <pt x="41" y="510" on="0"/>
        <pt x="272" y="510" on="1"/>
        <pt x="346" y="510" on="0"/>
        <pt x="438" y="447" on="0"/>
        <pt x="438" y="396" on="1"/>
        <pt x="438" y="370" on="0"/>
        <pt x="404" y="332" on="0"/>
        <pt x="361" y="332" on="0"/>
        <pt x="329" y="354" on="0"/>
        <pt x="325" y="371" on="1"/>
        <pt x="339" y="393" on="0"/>
        <pt x="339" y="437" on="0"/>
        <pt x="302" y="471" on="0"/>
        <pt x="272" y="471" on="1"/>
        <pt x="204" y="471" on="0"/>
        <pt x="141" y="366" on="0"/>
        <pt x="141" y="137" on="0"/>
        <pt x="200" y="38" on="0"/>
        <pt x="267" y="38" on="1"/>
        <pt x="356" y="38" on="0"/>
        <pt x="391" y="133" on="1"/>
        <pt x="435" y="118" on="1"/>
        <pt x="417" y="61" on="0"/>
        <pt x="327" y="-5" on="0"/>
      </contour>
    </TTGlyph>
    <TTGlyph name="caron" xMin="53" yMin="575" xMax="320" yMax="733">
      <contour>
        <pt x="220" y="592" on="1"/>
        <pt x="206" y="575" on="0"/>
        <pt x="167" y="575" on="0"/>
        <pt x="153" y="592" on="1"/>
        <pt x="53" y="707" on="1"/>
        <pt x="77" y="733" on="1"/>
        <pt x="186" y="650" on="1"/>
        <pt x="296" y="733" on="1"/>
        <pt x="320" y="707" on="1"/>
      </contour>
    </TTGlyph>
    <TTGlyph name="ccedilla" xMin="41" yMin="-220" xMax="438" yMax="510">
      <contour>
        <pt x="41" y="251" on="1"/>
        <pt x="41" y="510" on="0"/>
        <pt x="272" y="510" on="1"/>
        <pt x="346" y="510" on="0"/>
        <pt x="438" y="447" on="0"/>
        <pt x="438" y="396" on="1"/>
        <pt x="438" y="370" on="0"/>
        <pt x="404" y="332" on="0"/>
        <pt x="361" y="332" on="0"/>
        <pt x="329" y="354" on="0"/>
        <pt x="325" y="371" on="1"/>
        <pt x="339" y="393" on="0"/>
        <pt x="339" y="437" on="0"/>
        <pt x="302" y="471" on="0"/>
        <pt x="272" y="471" on="1"/>
        <pt x="204" y="471" on="0"/>
        <pt x="141" y="366" on="0"/>
        <pt x="141" y="137" on="0"/>
        <pt x="200" y="38" on="0"/>
        <pt x="267" y="38" on="1"/>
        <pt x="356" y="38" on="0"/>
        <pt x="391" y="133" on="1"/>
        <pt x="435" y="118" on="1"/>
        <pt x="417" y="63" on="0"/>
        <pt x="331" y="-3" on="0"/>
        <pt x="273" y="-5" on="1"/>
        <pt x="257" y="-50" on="1"/>
        <pt x="297" y="-57" on="0"/>
        <pt x="339" y="-96" on="0"/>
        <pt x="339" y="-171" on="0"/>
        <pt x="280" y="-220" on="0"/>
        <pt x="188" y="-220" on="0"/>
        <pt x="138" y="-177" on="0"/>
        <pt x="138" y="-132" on="0"/>
        <pt x="157" y="-107" on="0"/>
        <pt x="184" y="-107" on="0"/>
        <pt x="193" y="-111" on="1"/>
        <pt x="189" y="-127" on="0"/>
        <pt x="189" y="-133" on="1"/>
        <pt x="189" y="-156" on="0"/>
        <pt x="217" y="-184" on="0"/>
        <pt x="237" y="-184" on="1"/>
        <pt x="284" y="-184" on="0"/>
        <pt x="284" y="-130" on="1"/>
        <pt x="284" y="-90" on="0"/>
        <pt x="225" y="-82" on="1"/>
        <pt x="205" y="-60" on="1"/>
        <pt x="239" y="-4" on="1"/>
        <pt x="136" y="3" on="0"/>
        <pt x="41" y="126" on="0"/>
      </contour>
    </TTGlyph>
    <TTGlyph name="cedilla" xMin="1" yMin="-220" xMax="202" yMax="10">
      <contour>
        <pt x="160" y="-57" on="0"/>
        <pt x="202" y="-96" on="0"/>
        <pt x="202" y="-171" on="0"/>
        <pt x="143" y="-220" on="0"/>
        <pt x="51" y="-220" on="0"/>
        <pt x="1" y="-177" on="0"/>
        <pt x="1" y="-132" on="0"/>
        <pt x="20" y="-107" on="0"/>
        <pt x="47" y="-107" on="0"/>
        <pt x="56" y="-111" on="1"/>
        <pt x="52" y="-127" on="0"/>
        <pt x="52" y="-133" on="1"/>
        <pt x="52" y="-156" on="0"/>
        <pt x="80" y="-184" on="0"/>
        <pt x="100" y="-184" on="1"/>
        <pt x="147" y="-184" on="0"/>
        <pt x="147" y="-130" on="1"/>
        <pt x="147" y="-90" on="0"/>
        <pt x="88" y="-82" on="1"/>
        <pt x="68" y="-60" on="1"/>
        <pt x="111" y="10" on="1"/>
        <pt x="139" y="4" on="1"/>
        <pt x="120" y="-50" on="1"/>
      </contour>
    </TTGlyph>
    <TTGlyph name="cent" xMin="41" yMin="-37" xMax="438" yMax="672">
      <contour>
        <pt x="41" y="318" on="1"/>
        <pt x="41" y="421" on="0"/>
        <pt x="139" y="544" on="0"/>
        <pt x="232" y="555" on="1"/>
        <pt x="232" y="665" on="1"/>
        <pt x="238" y="672" on="1"/>
        <pt x="255" y="672" on="0"/>
        <pt x="275" y="667" on="1"/>
        <pt x="275" y="557" on="1"/>
        <pt x="347" y="556" on="0"/>
        <pt x="438" y="493" on="0"/>
        <pt x="438" y="445" on="1"/>
        <pt x="438" y="420" on="0"/>
        <pt x="404" y="384" on="0"/>
        <pt x="361" y="384" on="0"/>
        <pt x="329" y="405" on="0"/>
        <pt x="325" y="421" on="1"/>
        <pt x="338" y="440" on="0"/>
        <pt x="338" y="482" on="0"/>
        <pt x="302" y="511" on="0"/>
        <pt x="275" y="513" on="1"/>
        <pt x="275" y="127" on="1"/>
        <pt x="357" y="130" on="0"/>
        <pt x="391" y="217" on="1"/>
        <pt x="435" y="203" on="1"/>
        <pt x="418" y="150" on="0"/>
        <pt x="332" y="84" on="0"/>
        <pt x="275" y="82" on="1"/>
        <pt x="275" y="-30" on="1"/>
        <pt x="269" y="-37" on="1"/>
        <pt x="252" y="-37" on="0"/>
        <pt x="232" y="-32" on="1"/>
        <pt x="232" y="83" on="1"/>
        <pt x="41" y="100" on="0"/>
      </contour>
      <contour>
        <pt x="179" y="497" on="0"/>
        <pt x="141" y="400" on="0"/>
        <pt x="141" y="278" on="0"/>
        <pt x="148" y="221" on="0"/>
        <pt x="157" y="194" on="1"/>
        <pt x="175" y="142" on="0"/>
        <pt x="232" y="130" on="1"/>
        <pt x="232" y="509" on="1"/>
      </contour>
    </TTGlyph>
    <TTGlyph name="circumflex" xMin="53" yMin="575" xMax="320" yMax="733">
      <contour>
        <pt x="153" y="716" on="1"/>
        <pt x="167" y="733" on="0"/>
        <pt x="206" y="733" on="0"/>
        <pt x="220" y="716" on="1"/>
        <pt x="320" y="601" on="1"/>
        <pt x="296" y="575" on="1"/>
        <pt x="186" y="658" on="1"/>
        <pt x="77" y="575" on="1"/>
        <pt x="53" y="601" on="1"/>
      </contour>
    </TTGlyph>
    <TTGlyph name="colon" xMin="61" yMin="7" xMax="166" yMax="469">
      <contour>
        <pt x="137" y="7" on="0"/>
        <pt x="89" y="7" on="0"/>
        <pt x="61" y="39" on="0"/>
        <pt x="61" y="85" on="0"/>
        <pt x="90" y="116" on="0"/>
        <pt x="137" y="116" on="0"/>
        <pt x="166" y="85" on="0"/>
        <pt x="166" y="39" on="0"/>
      </contour>
      <contour>
        <pt x="137" y="360" on="0"/>
        <pt x="89" y="360" on="0"/>
        <pt x="61" y="392" on="0"/>
        <pt x="61" y="438" on="0"/>
        <pt x="90" y="469" on="0"/>
        <pt x="137" y="469" on="0"/>
        <pt x="166" y="438" on="0"/>
        <pt x="166" y="392" on="0"/>
      </contour>
    </TTGlyph>
    <TTGlyph name="comma" xMin="55" yMin="-137" xMax="178" yMax="104">
      <contour>
        <pt x="118" y="-18" on="1"/>
        <pt x="118" y="18" on="0"/>
        <pt x="87" y="18" on="1"/>
        <pt x="84" y="18" on="0"/>
        <pt x="68" y="14" on="1"/>
        <pt x="55" y="27" on="0"/>
        <pt x="55" y="75" on="0"/>
        <pt x="89" y="104" on="0"/>
        <pt x="144" y="104" on="0"/>
        <pt x="178" y="62" on="0"/>
        <pt x="178" y="28" on="1"/>
        <pt x="178" y="-74" on="0"/>
        <pt x="75" y="-137" on="1"/>
        <pt x="57" y="-112" on="1"/>
        <pt x="118" y="-71" on="0"/>
      </contour>
    </TTGlyph>
    <TTGlyph name="commaaccent" xMin="6" yMin="-233" xMax="103" yMax="-45">
      <contour>
        <pt x="11" y="-219" on="1"/>
        <pt x="30" y="-169" on="0"/>
        <pt x="30" y="-90" on="0"/>
        <pt x="6" y="-69" on="1"/>
        <pt x="23" y="-45" on="0"/>
        <pt x="73" y="-45" on="0"/>
        <pt x="103" y="-73" on="0"/>
        <pt x="103" y="-96" on="1"/>
        <pt x="103" y="-157" on="0"/>
        <pt x="44" y="-233" on="1"/>
      </contour>
    </TTGlyph>
    <TTGlyph name="copyright" xMin="48" yMin="53" xMax="622" yMax="621">
      <contour>
        <pt x="237" y="93" on="0"/>
        <pt x="433" y="93" on="0"/>
        <pt x="574" y="236" on="0"/>
        <pt x="574" y="438" on="0"/>
        <pt x="433" y="581" on="0"/>
        <pt x="237" y="581" on="0"/>
        <pt x="96" y="438" on="0"/>
        <pt x="96" y="236" on="0"/>
      </contour>
      <contour>
        <pt x="48" y="219" on="0"/>
        <pt x="48" y="455" on="0"/>
        <pt x="216" y="621" on="0"/>
        <pt x="454" y="621" on="0"/>
        <pt x="622" y="455" on="0"/>
        <pt x="622" y="219" on="0"/>
        <pt x="455" y="53" on="0"/>
        <pt x="215" y="53" on="0"/>
      </contour>
      <contour>
        <pt x="339" y="187" on="1"/>
        <pt x="277" y="187" on="0"/>
        <pt x="203" y="263" on="0"/>
        <pt x="203" y="409" on="0"/>
        <pt x="279" y="487" on="0"/>
        <pt x="393" y="487" on="0"/>
        <pt x="455" y="439" on="0"/>
        <pt x="455" y="406" on="1"/>
        <pt x="455" y="388" on="0"/>
        <pt x="433" y="368" on="0"/>
        <pt x="419" y="368" on="1"/>
        <pt x="391" y="368" on="0"/>
        <pt x="385" y="391" on="1"/>
        <pt x="391" y="403" on="0"/>
        <pt x="391" y="430" on="0"/>
        <pt x="364" y="449" on="0"/>
        <pt x="308" y="449" on="0"/>
        <pt x="266" y="394" on="0"/>
        <pt x="266" y="281" on="0"/>
        <pt x="308" y="225" on="0"/>
        <pt x="341" y="225" on="1"/>
        <pt x="397" y="225" on="0"/>
        <pt x="423" y="277" on="1"/>
        <pt x="453" y="260" on="1"/>
        <pt x="421" y="187" on="0"/>
      </contour>
    </TTGlyph>
    <TTGlyph name="currency" xMin="70" yMin="75" xMax="497" yMax="567">
      <contour>
        <pt x="132" y="185" on="1"/>
        <pt x="89" y="237" on="0"/>
        <pt x="89" y="403" on="0"/>
        <pt x="136" y="456" on="1"/>
        <pt x="70" y="526" on="1"/>
        <pt x="112" y="567" on="1"/>
        <pt x="182" y="492" on="1"/>
        <pt x="226" y="515" on="0"/>
        <pt x="342" y="515" on="0"/>
        <pt x="385" y="492" on="1"/>
        <pt x="455" y="567" on="1"/>
        <pt x="497" y="526" on="1"/>
        <pt x="431" y="456" on="1"/>
        <pt x="478" y="404" on="0"/>
        <pt x="478" y="238" on="0"/>
        <pt x="434" y="185" on="1"/>
        <pt x="497" y="116" on="1"/>
        <pt x="455" y="75" on="1"/>
        <pt x="389" y="148" on="1"/>
        <pt x="346" y="123" on="0"/>
        <pt x="224" y="123" on="0"/>
        <pt x="177" y="148" on="1"/>
        <pt x="112" y="75" on="1"/>
        <pt x="70" y="116" on="1"/>
      </contour>
      <contour>
        <pt x="159" y="248" on="0"/>
        <pt x="221" y="167" on="0"/>
        <pt x="346" y="167" on="0"/>
        <pt x="408" y="248" on="0"/>
        <pt x="408" y="390" on="0"/>
        <pt x="346" y="471" on="0"/>
        <pt x="220" y="471" on="0"/>
        <pt x="159" y="389" on="0"/>
      </contour>
    </TTGlyph>
    <TTGlyph name="d" xMin="41" yMin="-7" xMax="533" yMax="730">
      <contour>
        <pt x="233" y="-7" on="1"/>
        <pt x="41" y="-7" on="0"/>
        <pt x="41" y="242" on="1"/>
        <pt x="41" y="374" on="0"/>
        <pt x="163" y="513" on="0"/>
        <pt x="278" y="513" on="1"/>
        <pt x="320" y="513" on="0"/>
        <pt x="366" y="495" on="1"/>
        <pt x="366" y="590" on="1"/>
        <pt x="366" y="630" on="0"/>
        <pt x="333" y="659" on="0"/>
        <pt x="291" y="661" on="1"/>
        <pt x="294" y="693" on="1"/>
        <pt x="335" y="700" on="0"/>
        <pt x="437" y="730" on="1"/>
        <pt x="458" y="719" on="1"/>
        <pt x="458" y="66" on="1"/>
        <pt x="485" y="46" on="0"/>
        <pt x="533" y="37" on="1"/>
        <pt x="529" y="0" on="1"/>
        <pt x="374" y="0" on="1"/>
        <pt x="366" y="62" on="1"/>
        <pt x="322" y="-7" on="0"/>
      </contour>
      <contour>
        <pt x="366" y="253" on="1"/>
        <pt x="366" y="445" on="1"/>
        <pt x="328" y="467" on="0"/>
        <pt x="210" y="467" on="0"/>
        <pt x="136" y="349" on="0"/>
        <pt x="136" y="138" on="0"/>
        <pt x="188" y="39" on="0"/>
        <pt x="243" y="39" on="1"/>
        <pt x="366" y="39" on="0"/>
      </contour>
    </TTGlyph>
    <TTGlyph name="degree" xMin="40" yMin="362" xMax="368" yMax="684">
      <contour>
        <pt x="40" y="456" on="0"/>
        <pt x="40" y="590" on="0"/>
        <pt x="134" y="684" on="0"/>
        <pt x="274" y="684" on="0"/>
        <pt x="368" y="590" on="0"/>
        <pt x="368" y="456" on="0"/>
        <pt x="274" y="362" on="0"/>
        <pt x="134" y="362" on="0"/>
      </contour>
      <contour>
        <pt x="161" y="400" on="0"/>
        <pt x="247" y="400" on="0"/>
        <pt x="294" y="469" on="0"/>
        <pt x="294" y="575" on="0"/>
        <pt x="245" y="646" on="0"/>
        <pt x="163" y="646" on="0"/>
        <pt x="114" y="575" on="0"/>
        <pt x="114" y="469" on="0"/>
      </contour>
    </TTGlyph>
    <TTGlyph name="dieresis" xMin="50" yMin="596" xMax="332" yMax="709">
      <contour>
        <pt x="152" y="596" on="0"/>
        <pt x="50" y="596" on="0"/>
        <pt x="50" y="709" on="0"/>
        <pt x="152" y="709" on="0"/>
      </contour>
      <contour>
        <pt x="280" y="596" on="1"/>
        <pt x="230" y="596" on="0"/>
        <pt x="230" y="709" on="0"/>
        <pt x="280" y="709" on="1"/>
        <pt x="332" y="709" on="0"/>
        <pt x="332" y="596" on="0"/>
      </contour>
    </TTGlyph>
    <TTGlyph name="divide" xMin="62" yMin="88" xMax="483" yMax="504">
      <contour>
        <pt x="320" y="436" on="0"/>
        <pt x="290" y="407" on="0"/>
        <pt x="251" y="407" on="0"/>
        <pt x="222" y="436" on="0"/>
        <pt x="222" y="474" on="0"/>
        <pt x="251" y="504" on="0"/>
        <pt x="290" y="504" on="0"/>
        <pt x="320" y="475" on="0"/>
      </contour>
      <contour>
        <pt x="251" y="88" on="0"/>
        <pt x="222" y="117" on="0"/>
        <pt x="222" y="156" on="0"/>
        <pt x="251" y="186" on="0"/>
        <pt x="290" y="186" on="0"/>
        <pt x="320" y="156" on="0"/>
        <pt x="320" y="117" on="0"/>
        <pt x="290" y="88" on="0"/>
      </contour>
      <contour>
        <pt x="62" y="268" on="1"/>
        <pt x="62" y="325" on="1"/>
        <pt x="483" y="325" on="1"/>
        <pt x="483" y="268" on="1"/>
      </contour>
    </TTGlyph>
    <TTGlyph name="dollar" xMin="60" yMin="-54" xMax="471" yMax="699">
      <contour>
        <pt x="258" y="23" on="1"/>
        <pt x="165" y="23" on="0"/>
        <pt x="60" y="95" on="0"/>
        <pt x="60" y="159" on="1"/>
        <pt x="60" y="183" on="0"/>
        <pt x="95" y="214" on="0"/>
        <pt x="149" y="214" on="0"/>
        <pt x="166" y="195" on="1"/>
        <pt x="159" y="174" on="0"/>
        <pt x="159" y="157" on="1"/>
        <pt x="159" y="121" on="0"/>
        <pt x="214" y="76" on="0"/>
        <pt x="258" y="74" on="1"/>
        <pt x="258" y="294" on="1"/>
        <pt x="230" y="305" on="0"/>
        <pt x="212" y="312" on="0"/>
        <pt x="163" y="334" on="0"/>
        <pt x="143" y="349" on="0"/>
        <pt x="108" y="378" on="0"/>
        <pt x="101" y="392" on="1"/>
        <pt x="81" y="432" on="0"/>
        <pt x="81" y="468" on="1"/>
        <pt x="81" y="532" on="0"/>
        <pt x="180" y="615" on="0"/>
        <pt x="258" y="619" on="1"/>
        <pt x="258" y="692" on="1"/>
        <pt x="264" y="699" on="1"/>
        <pt x="281" y="699" on="0"/>
        <pt x="301" y="694" on="1"/>
        <pt x="301" y="618" on="1"/>
        <pt x="369" y="612" on="0"/>
        <pt x="460" y="548" on="0"/>
        <pt x="460" y="505" on="1"/>
        <pt x="460" y="475" on="0"/>
        <pt x="434" y="439" on="0"/>
        <pt x="384" y="439" on="0"/>
        <pt x="360" y="457" on="1"/>
        <pt x="371" y="474" on="0"/>
        <pt x="371" y="523" on="0"/>
        <pt x="333" y="561" on="0"/>
        <pt x="301" y="567" on="1"/>
        <pt x="301" y="369" on="1"/>
        <pt x="402" y="330" on="0"/>
        <pt x="436" y="293" on="1"/>
        <pt x="471" y="254" on="0"/>
        <pt x="471" y="125" on="0"/>
        <pt x="380" y="35" on="0"/>
        <pt x="301" y="25" on="1"/>
        <pt x="301" y="-47" on="1"/>
        <pt x="295" y="-54" on="1"/>
        <pt x="278" y="-54" on="0"/>
        <pt x="258" y="-49" on="1"/>
      </contour>
      <contour>
        <pt x="170" y="473" on="1"/>
        <pt x="170" y="443" on="0"/>
        <pt x="215" y="404" on="0"/>
        <pt x="258" y="386" on="1"/>
        <pt x="258" y="568" on="1"/>
        <pt x="170" y="560" on="0"/>
      </contour>
      <contour>
        <pt x="382" y="173" on="1"/>
        <pt x="382" y="237" on="0"/>
        <pt x="301" y="276" on="1"/>
        <pt x="301" y="78" on="1"/>
        <pt x="382" y="95" on="0"/>
      </contour>
    </TTGlyph>
    <TTGlyph name="dotlessi" xMin="37" yMin="0" xMax="279" yMax="516">
      <contour>
        <pt x="112" y="376" on="1"/>
        <pt x="112" y="416" on="0"/>
        <pt x="79" y="445" on="0"/>
        <pt x="37" y="447" on="1"/>
        <pt x="40" y="479" on="1"/>
        <pt x="81" y="486" on="0"/>
        <pt x="183" y="516" on="1"/>
        <pt x="204" y="505" on="1"/>
        <pt x="204" y="66" on="1"/>
        <pt x="231" y="46" on="0"/>
        <pt x="279" y="37" on="1"/>
        <pt x="275" y="0" on="1"/>
        <pt x="37" y="0" on="1"/>
        <pt x="41" y="39" on="1"/>
        <pt x="84" y="46" on="0"/>
        <pt x="112" y="66" on="1"/>
      </contour>
    </TTGlyph>
    <TTGlyph name="dotlessj" xMin="-22" yMin="-233" xMax="217" yMax="516">
      <contour>
        <pt x="125" y="79" on="1"/>
        <pt x="125" y="376" on="1"/>
        <pt x="125" y="416" on="0"/>
        <pt x="92" y="445" on="0"/>
        <pt x="50" y="447" on="1"/>
        <pt x="53" y="479" on="1"/>
        <pt x="94" y="486" on="0"/>
        <pt x="196" y="516" on="1"/>
        <pt x="217" y="505" on="1"/>
        <pt x="217" y="-35" on="1"/>
        <pt x="217" y="-178" on="0"/>
        <pt x="158" y="-216" on="1"/>
        <pt x="132" y="-233" on="0"/>
        <pt x="43" y="-233" on="0"/>
        <pt x="-22" y="-193" on="0"/>
        <pt x="-22" y="-150" on="1"/>
        <pt x="-22" y="-125" on="0"/>
        <pt x="6" y="-91" on="0"/>
        <pt x="59" y="-91" on="0"/>
        <pt x="71" y="-112" on="1"/>
        <pt x="55" y="-126" on="0"/>
        <pt x="55" y="-164" on="0"/>
        <pt x="76" y="-186" on="0"/>
        <pt x="95" y="-186" on="1"/>
        <pt x="138" y="-186" on="0"/>
        <pt x="138" y="-116" on="1"/>
        <pt x="138" y="-81" on="0"/>
        <pt x="125" y="28" on="0"/>
      </contour>
    </TTGlyph>
    <TTGlyph name="e" xMin="42" yMin="-8" xMax="453" yMax="513">
      <contour>
        <pt x="141" y="261" on="1"/>
        <pt x="141" y="245" on="1"/>
        <pt x="141" y="121" on="0"/>
        <pt x="174" y="78" on="1"/>
        <pt x="205" y="38" on="0"/>
        <pt x="346" y="38" on="0"/>
        <pt x="396" y="97" on="1"/>
        <pt x="430" y="63" on="1"/>
        <pt x="369" y="-8" on="0"/>
        <pt x="266" y="-8" on="1"/>
        <pt x="145" y="-8" on="0"/>
        <pt x="42" y="126" on="0"/>
        <pt x="42" y="376" on="0"/>
        <pt x="154" y="513" on="0"/>
        <pt x="366" y="513" on="0"/>
        <pt x="450" y="401" on="0"/>
        <pt x="453" y="290" on="1"/>
        <pt x="431" y="261" on="1"/>
      </contour>
      <contour>
        <pt x="258" y="469" on="1"/>
        <pt x="144" y="469" on="0"/>
        <pt x="141" y="301" on="1"/>
        <pt x="356" y="309" on="1"/>
        <pt x="356" y="393" on="0"/>
        <pt x="314" y="469" on="0"/>
      </contour>
    </TTGlyph>
    <TTGlyph name="eacute" xMin="42" yMin="-8" xMax="453" yMax="734">
      <contour>
        <pt x="141" y="261" on="1"/>
        <pt x="141" y="245" on="1"/>
        <pt x="141" y="121" on="0"/>
        <pt x="174" y="78" on="1"/>
        <pt x="205" y="38" on="0"/>
        <pt x="346" y="38" on="0"/>
        <pt x="396" y="97" on="1"/>
        <pt x="430" y="63" on="1"/>
        <pt x="369" y="-8" on="0"/>
        <pt x="266" y="-8" on="1"/>
        <pt x="145" y="-8" on="0"/>
        <pt x="42" y="126" on="0"/>
        <pt x="42" y="376" on="0"/>
        <pt x="154" y="513" on="0"/>
        <pt x="366" y="513" on="0"/>
        <pt x="450" y="401" on="0"/>
        <pt x="453" y="290" on="1"/>
        <pt x="431" y="261" on="1"/>
      </contour>
      <contour>
        <pt x="258" y="469" on="1"/>
        <pt x="144" y="469" on="0"/>
        <pt x="141" y="301" on="1"/>
        <pt x="356" y="309" on="1"/>
        <pt x="356" y="393" on="0"/>
        <pt x="314" y="469" on="0"/>
      </contour>
      <contour>
        <pt x="290" y="716" on="1"/>
        <pt x="301" y="734" on="0"/>
        <pt x="340" y="734" on="0"/>
        <pt x="363" y="711" on="0"/>
        <pt x="363" y="677" on="0"/>
        <pt x="336" y="655" on="1"/>
        <pt x="224" y="565" on="1"/>
        <pt x="200" y="591" on="1"/>
      </contour>
    </TTGlyph>
    <TTGlyph name="ecircumflex" xMin="42" yMin="-8" xMax="453" yMax="733">
      <contour>
        <pt x="141" y="261" on="1"/>
        <pt x="141" y="245" on="1"/>
        <pt x="141" y="121" on="0"/>
        <pt x="174" y="78" on="1"/>
        <pt x="205" y="38" on="0"/>
        <pt x="346" y="38" on="0"/>
        <pt x="396" y="97" on="1"/>
        <pt x="430" y="63" on="1"/>
        <pt x="369" y="-8" on="0"/>
        <pt x="266" y="-8" on="1"/>
        <pt x="145" y="-8" on="0"/>
        <pt x="42" y="126" on="0"/>
        <pt x="42" y="376" on="0"/>
        <pt x="154" y="513" on="0"/>
        <pt x="366" y="513" on="0"/>
        <pt x="450" y="401" on="0"/>
        <pt x="453" y="290" on="1"/>
        <pt x="431" y="261" on="1"/>
      </contour>
      <contour>
        <pt x="258" y="469" on="1"/>
        <pt x="144" y="469" on="0"/>
        <pt x="141" y="301" on="1"/>
        <pt x="356" y="309" on="1"/>
        <pt x="356" y="393" on="0"/>
        <pt x="314" y="469" on="0"/>
      </contour>
      <contour>
        <pt x="229" y="716" on="1"/>
        <pt x="243" y="733" on="0"/>
        <pt x="282" y="733" on="0"/>
        <pt x="296" y="716" on="1"/>
        <pt x="396" y="601" on="1"/>
        <pt x="372" y="575" on="1"/>
        <pt x="262" y="658" on="1"/>
        <pt x="153" y="575" on="1"/>
        <pt x="129" y="601" on="1"/>
      </contour>
    </TTGlyph>
    <TTGlyph name="edieresis" xMin="42" yMin="-8" xMax="453" yMax="709">
      <contour>
        <pt x="141" y="261" on="1"/>
        <pt x="141" y="245" on="1"/>
        <pt x="141" y="121" on="0"/>
        <pt x="174" y="78" on="1"/>
        <pt x="205" y="38" on="0"/>
        <pt x="346" y="38" on="0"/>
        <pt x="396" y="97" on="1"/>
        <pt x="430" y="63" on="1"/>
        <pt x="369" y="-8" on="0"/>
        <pt x="266" y="-8" on="1"/>
        <pt x="145" y="-8" on="0"/>
        <pt x="42" y="126" on="0"/>
        <pt x="42" y="376" on="0"/>
        <pt x="154" y="513" on="0"/>
        <pt x="366" y="513" on="0"/>
        <pt x="450" y="401" on="0"/>
        <pt x="453" y="290" on="1"/>
        <pt x="431" y="261" on="1"/>
      </contour>
      <contour>
        <pt x="258" y="469" on="1"/>
        <pt x="144" y="469" on="0"/>
        <pt x="141" y="301" on="1"/>
        <pt x="356" y="309" on="1"/>
        <pt x="356" y="393" on="0"/>
        <pt x="314" y="469" on="0"/>
      </contour>
      <contour>
        <pt x="223" y="596" on="0"/>
        <pt x="121" y="596" on="0"/>
        <pt x="121" y="709" on="0"/>
        <pt x="223" y="709" on="0"/>
      </contour>
      <contour>
        <pt x="351" y="596" on="1"/>
        <pt x="301" y="596" on="0"/>
        <pt x="301" y="709" on="0"/>
        <pt x="351" y="709" on="1"/>
        <pt x="403" y="709" on="0"/>
        <pt x="403" y="596" on="0"/>
      </contour>
    </TTGlyph>
    <TTGlyph name="egrave" xMin="42" yMin="-8" xMax="453" yMax="734">
      <contour>
        <pt x="141" y="261" on="1"/>
        <pt x="141" y="245" on="1"/>
        <pt x="141" y="121" on="0"/>
        <pt x="174" y="78" on="1"/>
        <pt x="205" y="38" on="0"/>
        <pt x="346" y="38" on="0"/>
        <pt x="396" y="97" on="1"/>
        <pt x="430" y="63" on="1"/>
        <pt x="369" y="-8" on="0"/>
        <pt x="266" y="-8" on="1"/>
        <pt x="145" y="-8" on="0"/>
        <pt x="42" y="126" on="0"/>
        <pt x="42" y="376" on="0"/>
        <pt x="154" y="513" on="0"/>
        <pt x="366" y="513" on="0"/>
        <pt x="450" y="401" on="0"/>
        <pt x="453" y="290" on="1"/>
        <pt x="431" y="261" on="1"/>
      </contour>
      <contour>
        <pt x="258" y="469" on="1"/>
        <pt x="144" y="469" on="0"/>
        <pt x="141" y="301" on="1"/>
        <pt x="356" y="309" on="1"/>
        <pt x="356" y="393" on="0"/>
        <pt x="314" y="469" on="0"/>
      </contour>
      <contour>
        <pt x="186" y="655" on="1"/>
        <pt x="159" y="677" on="0"/>
        <pt x="159" y="711" on="0"/>
        <pt x="182" y="734" on="0"/>
        <pt x="221" y="734" on="0"/>
        <pt x="232" y="716" on="1"/>
        <pt x="322" y="591" on="1"/>
        <pt x="298" y="565" on="1"/>
      </contour>
    </TTGlyph>
    <TTGlyph name="eight" xMin="55" yMin="-6" xMax="511" yMax="652">
      <contour>
        <pt x="81" y="489" on="1"/>
        <pt x="81" y="563" on="0"/>
        <pt x="193" y="652" on="0"/>
        <pt x="375" y="652" on="0"/>
        <pt x="480" y="569" on="0"/>
        <pt x="480" y="497" on="1"/>
        <pt x="480" y="456" on="0"/>
        <pt x="421" y="381" on="0"/>
        <pt x="371" y="353" on="1"/>
        <pt x="437" y="324" on="0"/>
        <pt x="511" y="242" on="0"/>
        <pt x="511" y="91" on="0"/>
        <pt x="388" y="-6" on="0"/>
        <pt x="178" y="-6" on="0"/>
        <pt x="55" y="84" on="0"/>
        <pt x="55" y="169" on="1"/>
        <pt x="55" y="271" on="0"/>
        <pt x="182" y="344" on="1"/>
        <pt x="81" y="394" on="0"/>
      </contour>
      <contour>
        <pt x="152" y="174" on="1"/>
        <pt x="152" y="114" on="0"/>
        <pt x="223" y="44" on="0"/>
        <pt x="346" y="44" on="0"/>
        <pt x="414" y="114" on="0"/>
        <pt x="414" y="174" on="1"/>
        <pt x="414" y="216" on="0"/>
        <pt x="392" y="240" on="1"/>
        <pt x="380" y="253" on="0"/>
        <pt x="360" y="271" on="0"/>
        <pt x="316" y="292" on="0"/>
        <pt x="293" y="301" on="0"/>
        <pt x="238" y="321" on="0"/>
        <pt x="228" y="325" on="1"/>
        <pt x="152" y="275" on="0"/>
      </contour>
      <contour>
        <pt x="388" y="498" on="1"/>
        <pt x="388" y="547" on="0"/>
        <pt x="329" y="603" on="0"/>
        <pt x="231" y="603" on="0"/>
        <pt x="173" y="546" on="0"/>
        <pt x="173" y="496" on="1"/>
        <pt x="173" y="443" on="0"/>
        <pt x="236" y="411" on="1"/>
        <pt x="265" y="396" on="0"/>
        <pt x="319" y="375" on="1"/>
        <pt x="388" y="420" on="0"/>
      </contour>
    </TTGlyph>
    <TTGlyph name="emdash" xMin="0" yMin="241" xMax="850" yMax="299">
      <contour>
        <pt x="0" y="241" on="1"/>
        <pt x="0" y="299" on="1"/>
        <pt x="850" y="299" on="1"/>
        <pt x="850" y="241" on="1"/>
      </contour>
    </TTGlyph>
    <TTGlyph name="endash" xMin="0" yMin="241" xMax="500" yMax="299">
      <contour>
        <pt x="0" y="241" on="1"/>
        <pt x="0" y="299" on="1"/>
        <pt x="500" y="299" on="1"/>
        <pt x="500" y="241" on="1"/>
      </contour>
    </TTGlyph>
    <TTGlyph name="equal" xMin="67" yMin="180" xMax="478" yMax="391">
      <contour>
        <pt x="67" y="180" on="1"/>
        <pt x="67" y="237" on="1"/>
        <pt x="478" y="237" on="1"/>
        <pt x="478" y="180" on="1"/>
      </contour>
      <contour>
        <pt x="67" y="334" on="1"/>
        <pt x="67" y="391" on="1"/>
        <pt x="478" y="391" on="1"/>
        <pt x="478" y="334" on="1"/>
      </contour>
    </TTGlyph>
    <TTGlyph name="eth" xMin="42" yMin="-7" xMax="487" yMax="748">
      <contour>
        <pt x="487" y="253" on="1"/>
        <pt x="487" y="126" on="0"/>
        <pt x="374" y="-7" on="0"/>
        <pt x="154" y="-7" on="0"/>
        <pt x="42" y="122" on="0"/>
        <pt x="42" y="374" on="0"/>
        <pt x="164" y="513" on="0"/>
        <pt x="279" y="513" on="1"/>
        <pt x="322" y="513" on="0"/>
        <pt x="364" y="497" on="1"/>
        <pt x="338" y="570" on="0"/>
        <pt x="281" y="618" on="1"/>
        <pt x="123" y="559" on="1"/>
        <pt x="105" y="602" on="1"/>
        <pt x="232" y="653" on="1"/>
        <pt x="189" y="679" on="0"/>
        <pt x="130" y="702" on="1"/>
        <pt x="149" y="748" on="1"/>
        <pt x="240" y="716" on="0"/>
        <pt x="300" y="681" on="1"/>
        <pt x="423" y="731" on="1"/>
        <pt x="445" y="680" on="1"/>
        <pt x="352" y="645" on="1"/>
        <pt x="423" y="588" on="0"/>
        <pt x="487" y="410" on="0"/>
      </contour>
      <contour>
        <pt x="380" y="439" on="1"/>
        <pt x="333" y="467" on="0"/>
        <pt x="211" y="467" on="0"/>
        <pt x="137" y="349" on="0"/>
        <pt x="137" y="140" on="0"/>
        <pt x="197" y="43" on="0"/>
        <pt x="332" y="43" on="0"/>
        <pt x="392" y="142" on="0"/>
        <pt x="392" y="379" on="0"/>
      </contour>
    </TTGlyph>
    <TTGlyph name="exclam" xMin="49" yMin="-7" xMax="182" yMax="692">
      <contour>
        <pt x="75" y="196" on="1"/>
        <pt x="78" y="415" on="1"/>
        <pt x="78" y="586" on="0"/>
        <pt x="58" y="674" on="1"/>
        <pt x="81" y="692" on="0"/>
        <pt x="122" y="692" on="1"/>
        <pt x="182" y="692" on="0"/>
        <pt x="182" y="611" on="1"/>
        <pt x="182" y="574" on="0"/>
        <pt x="136" y="274" on="0"/>
        <pt x="131" y="206" on="1"/>
      </contour>
      <contour>
        <pt x="125" y="-7" on="0"/>
        <pt x="77" y="-7" on="0"/>
        <pt x="49" y="25" on="0"/>
        <pt x="49" y="71" on="0"/>
        <pt x="78" y="102" on="0"/>
        <pt x="125" y="102" on="0"/>
        <pt x="154" y="71" on="0"/>
        <pt x="154" y="25" on="0"/>
      </contour>
    </TTGlyph>
    <TTGlyph name="exclamdown" xMin="35" yMin="-243" xMax="166" yMax="461">
      <contour>
        <pt x="142" y="253" on="1"/>
        <pt x="139" y="34" on="1"/>
        <pt x="139" y="-137" on="0"/>
        <pt x="159" y="-225" on="1"/>
        <pt x="136" y="-243" on="0"/>
        <pt x="95" y="-243" on="1"/>
        <pt x="35" y="-243" on="0"/>
        <pt x="35" y="-162" on="1"/>
        <pt x="35" y="-125" on="0"/>
        <pt x="81" y="175" on="0"/>
        <pt x="86" y="243" on="1"/>
      </contour>
      <contour>
        <pt x="137" y="352" on="0"/>
        <pt x="89" y="352" on="0"/>
        <pt x="61" y="384" on="0"/>
        <pt x="61" y="430" on="0"/>
        <pt x="90" y="461" on="0"/>
        <pt x="137" y="461" on="0"/>
        <pt x="166" y="430" on="0"/>
        <pt x="166" y="384" on="0"/>
      </contour>
    </TTGlyph>
    <TTGlyph name="f" xMin="39" yMin="0" xMax="412" yMax="764">
      <contour>
        <pt x="124" y="450" on="1"/>
        <pt x="44" y="450" on="1"/>
        <pt x="39" y="487" on="1"/>
        <pt x="93" y="496" on="0"/>
        <pt x="124" y="506" on="1"/>
        <pt x="124" y="565" on="1"/>
        <pt x="124" y="655" on="0"/>
        <pt x="198" y="764" on="0"/>
        <pt x="280" y="764" on="1"/>
        <pt x="333" y="764" on="0"/>
        <pt x="412" y="706" on="0"/>
        <pt x="412" y="630" on="0"/>
        <pt x="378" y="595" on="0"/>
        <pt x="358" y="595" on="1"/>
        <pt x="315" y="595" on="0"/>
        <pt x="307" y="637" on="1"/>
        <pt x="327" y="657" on="0"/>
        <pt x="327" y="693" on="0"/>
        <pt x="298" y="717" on="0"/>
        <pt x="273" y="717" on="1"/>
        <pt x="203" y="717" on="0"/>
        <pt x="203" y="632" on="1"/>
        <pt x="203" y="615" on="0"/>
        <pt x="216" y="527" on="0"/>
        <pt x="216" y="506" on="1"/>
        <pt x="328" y="506" on="1"/>
        <pt x="328" y="450" on="1"/>
        <pt x="216" y="450" on="1"/>
        <pt x="216" y="66" on="1"/>
        <pt x="241" y="48" on="0"/>
        <pt x="298" y="37" on="1"/>
        <pt x="294" y="0" on="1"/>
        <pt x="49" y="0" on="1"/>
        <pt x="53" y="39" on="1"/>
        <pt x="96" y="46" on="0"/>
        <pt x="124" y="66" on="1"/>
      </contour>
    </TTGlyph>
    <TTGlyph name="five" xMin="51" yMin="-9" xMax="486" yMax="646">
      <contour>
        <pt x="132" y="646" on="1"/>
        <pt x="219" y="643" on="0"/>
        <pt x="353" y="643" on="0"/>
        <pt x="425" y="645" on="1"/>
        <pt x="446" y="629" on="1"/>
        <pt x="444" y="590" on="0"/>
        <pt x="438" y="567" on="1"/>
        <pt x="168" y="567" on="1"/>
        <pt x="150" y="382" on="1"/>
        <pt x="214" y="410" on="0"/>
        <pt x="276" y="410" on="1"/>
        <pt x="373" y="410" on="0"/>
        <pt x="486" y="304" on="0"/>
        <pt x="486" y="115" on="0"/>
        <pt x="363" y="-9" on="0"/>
        <pt x="171" y="-9" on="0"/>
        <pt x="51" y="69" on="0"/>
        <pt x="51" y="130" on="1"/>
        <pt x="51" y="161" on="0"/>
        <pt x="84" y="196" on="0"/>
        <pt x="142" y="196" on="0"/>
        <pt x="164" y="178" on="1"/>
        <pt x="155" y="157" on="0"/>
        <pt x="155" y="135" on="1"/>
        <pt x="155" y="94" on="0"/>
        <pt x="216" y="41" on="0"/>
        <pt x="264" y="41" on="1"/>
        <pt x="392" y="41" on="0"/>
        <pt x="392" y="207" on="1"/>
        <pt x="392" y="279" on="0"/>
        <pt x="322" y="357" on="0"/>
        <pt x="189" y="357" on="0"/>
        <pt x="113" y="314" on="1"/>
        <pt x="84" y="344" on="1"/>
        <pt x="112" y="630" on="1"/>
      </contour>
    </TTGlyph>
    <TTGlyph name="foundryicon" xMin="40" yMin="0" xMax="716" yMax="676">
      <contour>
        <pt x="147" y="161" on="1"/>
        <pt x="233" y="161" on="1"/>
        <pt x="233" y="370" on="1"/>
        <pt x="233" y="384" on="0"/>
        <pt x="260" y="384" on="1"/>
        <pt x="310" y="384" on="0"/>
        <pt x="310" y="319" on="1"/>
        <pt x="310" y="161" on="1"/>
        <pt x="396" y="161" on="1"/>
        <pt x="396" y="368" on="1"/>
        <pt x="396" y="405" on="0"/>
        <pt x="345" y="452" on="0"/>
        <pt x="306" y="452" on="1"/>
        <pt x="250" y="419" on="1"/>
        <pt x="241" y="416" on="0"/>
        <pt x="239" y="416" on="1"/>
        <pt x="233" y="416" on="0"/>
        <pt x="233" y="425" on="1"/>
        <pt x="233" y="561" on="1"/>
        <pt x="147" y="561" on="1"/>
      </contour>
      <contour>
        <pt x="604" y="221" on="1"/>
        <pt x="558" y="221" on="0"/>
        <pt x="558" y="288" on="1"/>
        <pt x="558" y="392" on="1"/>
        <pt x="558" y="403" on="0"/>
        <pt x="569" y="403" on="1"/>
        <pt x="636" y="403" on="1"/>
        <pt x="636" y="445" on="1"/>
        <pt x="569" y="445" on="1"/>
        <pt x="558" y="445" on="0"/>
        <pt x="558" y="457" on="1"/>
        <pt x="558" y="489" on="1"/>
        <pt x="533" y="489" on="1"/>
        <pt x="430" y="424" on="1"/>
        <pt x="430" y="403" on="1"/>
        <pt x="459" y="403" on="1"/>
        <pt x="472" y="403" on="0"/>
        <pt x="472" y="392" on="1"/>
        <pt x="472" y="239" on="1"/>
        <pt x="472" y="203" on="0"/>
        <pt x="523" y="154" on="0"/>
        <pt x="562" y="154" on="1"/>
        <pt x="635" y="197" on="1"/>
        <pt x="635" y="226" on="1"/>
        <pt x="617" y="221" on="0"/>
      </contour>
      <contour>
        <pt x="40" y="92" on="1"/>
        <pt x="40" y="583" on="1"/>
        <pt x="40" y="676" on="0"/>
        <pt x="132" y="676" on="1"/>
        <pt x="623" y="676" on="1"/>
        <pt x="716" y="676" on="0"/>
        <pt x="716" y="583" on="1"/>
        <pt x="716" y="92" on="1"/>
        <pt x="716" y="0" on="0"/>
        <pt x="623" y="0" on="1"/>
        <pt x="132" y="0" on="1"/>
        <pt x="40" y="0" on="0"/>
      </contour>
    </TTGlyph>
    <TTGlyph name="four" xMin="20" yMin="1" xMax="518" yMax="642">
      <contour>
        <pt x="330" y="222" on="1"/>
        <pt x="330" y="396" on="1"/>
        <pt x="356" y="397" on="0"/>
        <pt x="395" y="421" on="0"/>
        <pt x="401" y="441" on="1"/>
        <pt x="425" y="441" on="1"/>
        <pt x="425" y="223" on="1"/>
        <pt x="518" y="203" on="1"/>
        <pt x="518" y="162" on="1"/>
        <pt x="421" y="162" on="1"/>
        <pt x="421" y="1" on="1"/>
        <pt x="330" y="1" on="1"/>
        <pt x="330" y="162" on="1"/>
        <pt x="28" y="162" on="1"/>
        <pt x="20" y="198" on="1"/>
        <pt x="241" y="642" on="1"/>
        <pt x="303" y="642" on="0"/>
        <pt x="331" y="617" on="1"/>
        <pt x="105" y="222" on="1"/>
      </contour>
    </TTGlyph>
    <TTGlyph name="g" xMin="46" yMin="-235" xMax="503" yMax="604">
      <contour>
        <pt x="59" y="333" on="1"/>
        <pt x="59" y="513" on="0"/>
        <pt x="257" y="513" on="1"/>
        <pt x="329" y="513" on="0"/>
        <pt x="376" y="487" on="1"/>
        <pt x="416" y="499" on="0"/>
        <pt x="416" y="529" on="1"/>
        <pt x="416" y="553" on="0"/>
        <pt x="386" y="568" on="1"/>
        <pt x="386" y="584" on="0"/>
        <pt x="414" y="604" on="0"/>
        <pt x="461" y="604" on="0"/>
        <pt x="491" y="575" on="0"/>
        <pt x="491" y="551" on="1"/>
        <pt x="491" y="485" on="0"/>
        <pt x="415" y="457" on="1"/>
        <pt x="455" y="411" on="0"/>
        <pt x="455" y="254" on="0"/>
        <pt x="349" y="160" on="0"/>
        <pt x="257" y="160" on="1"/>
        <pt x="242" y="160" on="1"/>
        <pt x="187" y="93" on="1"/>
        <pt x="188" y="69" on="0"/>
        <pt x="225" y="51" on="0"/>
        <pt x="265" y="50" on="1"/>
        <pt x="310" y="50" on="1"/>
        <pt x="410" y="50" on="0"/>
        <pt x="503" y="-26" on="0"/>
        <pt x="503" y="-85" on="1"/>
        <pt x="503" y="-235" on="0"/>
        <pt x="275" y="-235" on="1"/>
        <pt x="161" y="-235" on="0"/>
        <pt x="46" y="-162" on="0"/>
        <pt x="46" y="-45" on="0"/>
        <pt x="82" y="6" on="0"/>
        <pt x="129" y="32" on="1"/>
        <pt x="105" y="58" on="0"/>
        <pt x="105" y="103" on="1"/>
        <pt x="194" y="166" on="1"/>
        <pt x="130" y="181" on="0"/>
        <pt x="59" y="269" on="0"/>
      </contour>
      <contour>
        <pt x="204" y="204" on="0"/>
        <pt x="310" y="204" on="0"/>
        <pt x="357" y="266" on="0"/>
        <pt x="357" y="406" on="0"/>
        <pt x="310" y="470" on="0"/>
        <pt x="204" y="470" on="0"/>
        <pt x="157" y="406" on="0"/>
        <pt x="157" y="266" on="0"/>
      </contour>
      <contour>
        <pt x="285" y="0" on="1"/>
        <pt x="193" y="0" on="1"/>
        <pt x="144" y="-33" on="0"/>
        <pt x="144" y="-85" on="1"/>
        <pt x="144" y="-191" on="0"/>
        <pt x="405" y="-191" on="0"/>
        <pt x="405" y="-85" on="1"/>
        <pt x="405" y="0" on="0"/>
      </contour>
    </TTGlyph>
    <TTGlyph name="germandbls" xMin="35" yMin="-6" xMax="575" yMax="739">
      <contour>
        <pt x="110" y="555" on="1"/>
        <pt x="110" y="644" on="0"/>
        <pt x="213" y="739" on="0"/>
        <pt x="404" y="739" on="0"/>
        <pt x="509" y="654" on="0"/>
        <pt x="509" y="577" on="1"/>
        <pt x="509" y="526" on="0"/>
        <pt x="426" y="429" on="0"/>
        <pt x="360" y="400" on="1"/>
        <pt x="459" y="378" on="0"/>
        <pt x="575" y="263" on="0"/>
        <pt x="575" y="103" on="0"/>
        <pt x="471" y="-6" on="0"/>
        <pt x="392" y="-6" on="1"/>
        <pt x="247" y="-6" on="0"/>
        <pt x="247" y="82" on="1"/>
        <pt x="247" y="110" on="0"/>
        <pt x="281" y="144" on="0"/>
        <pt x="328" y="144" on="0"/>
        <pt x="347" y="133" on="1"/>
        <pt x="338" y="112" on="0"/>
        <pt x="338" y="70" on="0"/>
        <pt x="369" y="41" on="0"/>
        <pt x="438" y="41" on="0"/>
        <pt x="480" y="115" on="0"/>
        <pt x="480" y="263" on="0"/>
        <pt x="385" y="349" on="0"/>
        <pt x="280" y="364" on="1"/>
        <pt x="280" y="421" on="1"/>
        <pt x="331" y="430" on="0"/>
        <pt x="414" y="526" on="0"/>
        <pt x="414" y="633" on="0"/>
        <pt x="360" y="692" on="0"/>
        <pt x="250" y="692" on="0"/>
        <pt x="202" y="609" on="0"/>
        <pt x="202" y="506" on="1"/>
        <pt x="202" y="0" on="1"/>
        <pt x="35" y="0" on="1"/>
        <pt x="39" y="39" on="1"/>
        <pt x="83" y="45" on="0"/>
        <pt x="110" y="66" on="1"/>
      </contour>
    </TTGlyph>
    <TTGlyph name="grave" xMin="34" yMin="565" xMax="197" yMax="734">
      <contour>
        <pt x="61" y="655" on="1"/>
        <pt x="34" y="677" on="0"/>
        <pt x="34" y="711" on="0"/>
        <pt x="57" y="734" on="0"/>
        <pt x="96" y="734" on="0"/>
        <pt x="107" y="716" on="1"/>
        <pt x="197" y="591" on="1"/>
        <pt x="173" y="565" on="1"/>
      </contour>
    </TTGlyph>
    <TTGlyph name="greater" xMin="65" yMin="65" xMax="505" yMax="512">
      <contour>
        <pt x="92" y="65" on="1"/>
        <pt x="65" y="120" on="1"/>
        <pt x="420" y="288" on="1"/>
        <pt x="65" y="457" on="1"/>
        <pt x="92" y="512" on="1"/>
        <pt x="505" y="315" on="1"/>
        <pt x="505" y="261" on="1"/>
      </contour>
    </TTGlyph>
    <TTGlyph name="guillemotleft" xMin="25" yMin="85" xMax="356" yMax="414">
      <contour>
        <pt x="166" y="85" on="1"/>
        <pt x="25" y="253" on="1"/>
        <pt x="168" y="414" on="1"/>
        <pt x="200" y="392" on="1"/>
        <pt x="117" y="253" on="1"/>
        <pt x="200" y="107" on="1"/>
      </contour>
      <contour>
        <pt x="322" y="85" on="1"/>
        <pt x="181" y="253" on="1"/>
        <pt x="324" y="414" on="1"/>
        <pt x="356" y="392" on="1"/>
        <pt x="273" y="253" on="1"/>
        <pt x="356" y="107" on="1"/>
      </contour>
    </TTGlyph>
    <TTGlyph name="guillemotright" xMin="40" yMin="85" xMax="371" yMax="414">
      <contour>
        <pt x="40" y="107" on="1"/>
        <pt x="122" y="253" on="1"/>
        <pt x="40" y="392" on="1"/>
        <pt x="72" y="414" on="1"/>
        <pt x="215" y="253" on="1"/>
        <pt x="74" y="85" on="1"/>
      </contour>
      <contour>
        <pt x="196" y="107" on="1"/>
        <pt x="278" y="253" on="1"/>
        <pt x="196" y="392" on="1"/>
        <pt x="228" y="414" on="1"/>
        <pt x="371" y="253" on="1"/>
        <pt x="230" y="85" on="1"/>
      </contour>
    </TTGlyph>
    <TTGlyph name="guilsinglleft" xMin="25" yMin="85" xMax="200" yMax="414">
      <contour>
        <pt x="166" y="85" on="1"/>
        <pt x="25" y="253" on="1"/>
        <pt x="168" y="414" on="1"/>
        <pt x="200" y="392" on="1"/>
        <pt x="117" y="253" on="1"/>
        <pt x="200" y="107" on="1"/>
      </contour>
    </TTGlyph>
    <TTGlyph name="guilsinglright" xMin="40" yMin="85" xMax="215" yMax="414">
      <contour>
        <pt x="40" y="107" on="1"/>
        <pt x="122" y="253" on="1"/>
        <pt x="40" y="392" on="1"/>
        <pt x="72" y="414" on="1"/>
        <pt x="215" y="253" on="1"/>
        <pt x="74" y="85" on="1"/>
      </contour>
    </TTGlyph>
    <TTGlyph name="h" xMin="33" yMin="0" xMax="573" yMax="730">
      <contour>
        <pt x="108" y="590" on="1"/>
        <pt x="108" y="630" on="0"/>
        <pt x="75" y="659" on="0"/>
        <pt x="33" y="661" on="1"/>
        <pt x="36" y="693" on="1"/>
        <pt x="77" y="700" on="0"/>
        <pt x="179" y="730" on="1"/>
        <pt x="200" y="719" on="1"/>
        <pt x="200" y="449" on="1"/>
        <pt x="256" y="513" on="0"/>
        <pt x="410" y="513" on="0"/>
        <pt x="498" y="434" on="0"/>
        <pt x="498" y="364" on="1"/>
        <pt x="498" y="66" on="1"/>
        <pt x="523" y="47" on="0"/>
        <pt x="573" y="37" on="1"/>
        <pt x="569" y="0" on="1"/>
        <pt x="332" y="0" on="1"/>
        <pt x="335" y="37" on="1"/>
        <pt x="375" y="43" on="0"/>
        <pt x="406" y="66" on="1"/>
        <pt x="406" y="354" on="1"/>
        <pt x="406" y="461" on="0"/>
        <pt x="314" y="461" on="1"/>
        <pt x="281" y="461" on="0"/>
        <pt x="218" y="419" on="0"/>
        <pt x="200" y="385" on="1"/>
        <pt x="200" y="66" on="1"/>
        <pt x="227" y="46" on="0"/>
        <pt x="275" y="37" on="1"/>
        <pt x="271" y="0" on="1"/>
        <pt x="33" y="0" on="1"/>
        <pt x="37" y="39" on="1"/>
        <pt x="80" y="46" on="0"/>
        <pt x="108" y="66" on="1"/>
      </contour>
    </TTGlyph>
    <TTGlyph name="hbar" xMin="33" yMin="0" xMax="573" yMax="730">
      <contour>
        <pt x="108" y="552" on="1"/>
        <pt x="37" y="552" on="1"/>
        <pt x="37" y="595" on="1"/>
        <pt x="108" y="595" on="1"/>
        <pt x="107" y="632" on="0"/>
        <pt x="74" y="659" on="0"/>
        <pt x="33" y="661" on="1"/>
        <pt x="36" y="693" on="1"/>
        <pt x="77" y="700" on="0"/>
        <pt x="179" y="730" on="1"/>
        <pt x="200" y="719" on="1"/>
        <pt x="200" y="595" on="1"/>
        <pt x="337" y="595" on="1"/>
        <pt x="337" y="552" on="1"/>
        <pt x="200" y="552" on="1"/>
        <pt x="200" y="449" on="1"/>
        <pt x="256" y="513" on="0"/>
        <pt x="410" y="513" on="0"/>
        <pt x="498" y="434" on="0"/>
        <pt x="498" y="364" on="1"/>
        <pt x="498" y="66" on="1"/>
        <pt x="523" y="47" on="0"/>
        <pt x="573" y="37" on="1"/>
        <pt x="569" y="0" on="1"/>
        <pt x="332" y="0" on="1"/>
        <pt x="335" y="37" on="1"/>
        <pt x="375" y="43" on="0"/>
        <pt x="406" y="66" on="1"/>
        <pt x="406" y="354" on="1"/>
        <pt x="406" y="461" on="0"/>
        <pt x="314" y="461" on="1"/>
        <pt x="281" y="461" on="0"/>
        <pt x="218" y="419" on="0"/>
        <pt x="200" y="385" on="1"/>
        <pt x="200" y="66" on="1"/>
        <pt x="227" y="46" on="0"/>
        <pt x="275" y="37" on="1"/>
        <pt x="271" y="0" on="1"/>
        <pt x="33" y="0" on="1"/>
        <pt x="37" y="39" on="1"/>
        <pt x="80" y="46" on="0"/>
        <pt x="108" y="66" on="1"/>
      </contour>
    </TTGlyph>
    <TTGlyph name="hyphen" xMin="30" yMin="241" xMax="329" yMax="299">
      <contour>
        <pt x="30" y="241" on="1"/>
        <pt x="30" y="299" on="1"/>
        <pt x="329" y="299" on="1"/>
        <pt x="329" y="241" on="1"/>
      </contour>
    </TTGlyph>
    <TTGlyph name="i" xMin="37" yMin="0" xMax="279" yMax="718">
      <contour>
        <pt x="112" y="376" on="1"/>
        <pt x="112" y="416" on="0"/>
        <pt x="79" y="445" on="0"/>
        <pt x="37" y="447" on="1"/>
        <pt x="40" y="479" on="1"/>
        <pt x="81" y="486" on="0"/>
        <pt x="183" y="516" on="1"/>
        <pt x="204" y="505" on="1"/>
        <pt x="204" y="66" on="1"/>
        <pt x="231" y="46" on="0"/>
        <pt x="279" y="37" on="1"/>
        <pt x="275" y="0" on="1"/>
        <pt x="37" y="0" on="1"/>
        <pt x="41" y="39" on="1"/>
        <pt x="84" y="46" on="0"/>
        <pt x="112" y="66" on="1"/>
      </contour>
      <contour>
        <pt x="209" y="593" on="0"/>
        <pt x="96" y="593" on="0"/>
        <pt x="96" y="718" on="0"/>
        <pt x="209" y="718" on="0"/>
      </contour>
    </TTGlyph>
    <TTGlyph name="iacute" xMin="37" yMin="0" xMax="279" yMax="734">
      <contour>
        <pt x="112" y="376" on="1"/>
        <pt x="112" y="416" on="0"/>
        <pt x="79" y="445" on="0"/>
        <pt x="37" y="447" on="1"/>
        <pt x="40" y="479" on="1"/>
        <pt x="81" y="486" on="0"/>
        <pt x="183" y="516" on="1"/>
        <pt x="204" y="505" on="1"/>
        <pt x="204" y="66" on="1"/>
        <pt x="231" y="46" on="0"/>
        <pt x="279" y="37" on="1"/>
        <pt x="275" y="0" on="1"/>
        <pt x="37" y="0" on="1"/>
        <pt x="41" y="39" on="1"/>
        <pt x="84" y="46" on="0"/>
        <pt x="112" y="66" on="1"/>
      </contour>
      <contour>
        <pt x="171" y="716" on="1"/>
        <pt x="182" y="734" on="0"/>
        <pt x="221" y="734" on="0"/>
        <pt x="244" y="711" on="0"/>
        <pt x="244" y="677" on="0"/>
        <pt x="217" y="655" on="1"/>
        <pt x="105" y="565" on="1"/>
        <pt x="81" y="591" on="1"/>
      </contour>
    </TTGlyph>
    <TTGlyph name="icircumflex" xMin="10" yMin="0" xMax="279" yMax="733">
      <contour>
        <pt x="112" y="376" on="1"/>
        <pt x="112" y="416" on="0"/>
        <pt x="79" y="445" on="0"/>
        <pt x="37" y="447" on="1"/>
        <pt x="40" y="479" on="1"/>
        <pt x="81" y="486" on="0"/>
        <pt x="183" y="516" on="1"/>
        <pt x="204" y="505" on="1"/>
        <pt x="204" y="66" on="1"/>
        <pt x="231" y="46" on="0"/>
        <pt x="279" y="37" on="1"/>
        <pt x="275" y="0" on="1"/>
        <pt x="37" y="0" on="1"/>
        <pt x="41" y="39" on="1"/>
        <pt x="84" y="46" on="0"/>
        <pt x="112" y="66" on="1"/>
      </contour>
      <contour>
        <pt x="110" y="716" on="1"/>
        <pt x="124" y="733" on="0"/>
        <pt x="163" y="733" on="0"/>
        <pt x="177" y="716" on="1"/>
        <pt x="277" y="601" on="1"/>
        <pt x="253" y="575" on="1"/>
        <pt x="143" y="658" on="1"/>
        <pt x="34" y="575" on="1"/>
        <pt x="10" y="601" on="1"/>
      </contour>
    </TTGlyph>
    <TTGlyph name="idieresis" xMin="2" yMin="0" xMax="284" yMax="709">
      <contour>
        <pt x="112" y="376" on="1"/>
        <pt x="112" y="416" on="0"/>
        <pt x="79" y="445" on="0"/>
        <pt x="37" y="447" on="1"/>
        <pt x="40" y="479" on="1"/>
        <pt x="81" y="486" on="0"/>
        <pt x="183" y="516" on="1"/>
        <pt x="204" y="505" on="1"/>
        <pt x="204" y="66" on="1"/>
        <pt x="231" y="46" on="0"/>
        <pt x="279" y="37" on="1"/>
        <pt x="275" y="0" on="1"/>
        <pt x="37" y="0" on="1"/>
        <pt x="41" y="39" on="1"/>
        <pt x="84" y="46" on="0"/>
        <pt x="112" y="66" on="1"/>
      </contour>
      <contour>
        <pt x="104" y="596" on="0"/>
        <pt x="2" y="596" on="0"/>
        <pt x="2" y="709" on="0"/>
        <pt x="104" y="709" on="0"/>
      </contour>
      <contour>
        <pt x="232" y="596" on="1"/>
        <pt x="182" y="596" on="0"/>
        <pt x="182" y="709" on="0"/>
        <pt x="232" y="709" on="1"/>
        <pt x="284" y="709" on="0"/>
        <pt x="284" y="596" on="0"/>
      </contour>
    </TTGlyph>
    <TTGlyph name="igrave" xMin="37" yMin="0" xMax="279" yMax="734">
      <contour>
        <pt x="112" y="376" on="1"/>
        <pt x="112" y="416" on="0"/>
        <pt x="79" y="445" on="0"/>
        <pt x="37" y="447" on="1"/>
        <pt x="40" y="479" on="1"/>
        <pt x="81" y="486" on="0"/>
        <pt x="183" y="516" on="1"/>
        <pt x="204" y="505" on="1"/>
        <pt x="204" y="66" on="1"/>
        <pt x="231" y="46" on="0"/>
        <pt x="279" y="37" on="1"/>
        <pt x="275" y="0" on="1"/>
        <pt x="37" y="0" on="1"/>
        <pt x="41" y="39" on="1"/>
        <pt x="84" y="46" on="0"/>
        <pt x="112" y="66" on="1"/>
      </contour>
      <contour>
        <pt x="67" y="655" on="1"/>
        <pt x="40" y="677" on="0"/>
        <pt x="40" y="711" on="0"/>
        <pt x="63" y="734" on="0"/>
        <pt x="102" y="734" on="0"/>
        <pt x="113" y="716" on="1"/>
        <pt x="203" y="591" on="1"/>
        <pt x="179" y="565" on="1"/>
      </contour>
    </TTGlyph>
    <TTGlyph name="ij" xMin="37" yMin="-233" xMax="503" yMax="718">
      <contour>
        <pt x="112" y="166" on="1"/>
        <pt x="112" y="376" on="1"/>
        <pt x="112" y="416" on="0"/>
        <pt x="79" y="445" on="0"/>
        <pt x="37" y="447" on="1"/>
        <pt x="40" y="479" on="1"/>
        <pt x="81" y="486" on="0"/>
        <pt x="183" y="516" on="1"/>
        <pt x="204" y="505" on="1"/>
        <pt x="204" y="154" on="1"/>
        <pt x="204" y="41" on="0"/>
        <pt x="297" y="41" on="1"/>
        <pt x="325" y="41" on="0"/>
        <pt x="387" y="82" on="0"/>
        <pt x="411" y="126" on="1"/>
        <pt x="411" y="376" on="1"/>
        <pt x="411" y="416" on="0"/>
        <pt x="378" y="445" on="0"/>
        <pt x="336" y="447" on="1"/>
        <pt x="339" y="479" on="1"/>
        <pt x="380" y="486" on="0"/>
        <pt x="482" y="516" on="1"/>
        <pt x="503" y="505" on="1"/>
        <pt x="503" y="-35" on="1"/>
        <pt x="503" y="-178" on="0"/>
        <pt x="444" y="-216" on="1"/>
        <pt x="418" y="-233" on="0"/>
        <pt x="329" y="-233" on="0"/>
        <pt x="264" y="-193" on="0"/>
        <pt x="264" y="-150" on="1"/>
        <pt x="264" y="-125" on="0"/>
        <pt x="292" y="-91" on="0"/>
        <pt x="345" y="-91" on="0"/>
        <pt x="357" y="-112" on="1"/>
        <pt x="341" y="-126" on="0"/>
        <pt x="341" y="-164" on="0"/>
        <pt x="365" y="-186" on="0"/>
        <pt x="386" y="-186" on="1"/>
        <pt x="432" y="-186" on="0"/>
        <pt x="432" y="-116" on="1"/>
        <pt x="432" y="-83" on="0"/>
        <pt x="418" y="36" on="0"/>
        <pt x="416" y="63" on="1"/>
        <pt x="359" y="-8" on="0"/>
        <pt x="285" y="-8" on="1"/>
        <pt x="112" y="-8" on="0"/>
      </contour>
      <contour>
        <pt x="209" y="593" on="0"/>
        <pt x="96" y="593" on="0"/>
        <pt x="96" y="718" on="0"/>
        <pt x="209" y="718" on="0"/>
      </contour>
      <contour>
        <pt x="503" y="593" on="0"/>
        <pt x="390" y="593" on="0"/>
        <pt x="390" y="718" on="0"/>
        <pt x="503" y="718" on="0"/>
      </contour>
    </TTGlyph>
    <TTGlyph name="itilde" xMin="-14" yMin="0" xMax="303" yMax="708">
      <contour>
        <pt x="112" y="376" on="1"/>
        <pt x="112" y="416" on="0"/>
        <pt x="79" y="445" on="0"/>
        <pt x="37" y="447" on="1"/>
        <pt x="40" y="479" on="1"/>
        <pt x="81" y="486" on="0"/>
        <pt x="183" y="516" on="1"/>
        <pt x="204" y="505" on="1"/>
        <pt x="204" y="66" on="1"/>
        <pt x="231" y="46" on="0"/>
        <pt x="279" y="37" on="1"/>
        <pt x="275" y="0" on="1"/>
        <pt x="37" y="0" on="1"/>
        <pt x="41" y="39" on="1"/>
        <pt x="84" y="46" on="0"/>
        <pt x="112" y="66" on="1"/>
      </contour>
      <contour>
        <pt x="-3" y="650" on="0"/>
        <pt x="51" y="708" on="0"/>
        <pt x="110" y="708" on="0"/>
        <pt x="182" y="665" on="0"/>
        <pt x="202" y="665" on="1"/>
        <pt x="232" y="665" on="0"/>
        <pt x="268" y="708" on="1"/>
        <pt x="285" y="701" on="0"/>
        <pt x="303" y="687" on="1"/>
        <pt x="291" y="656" on="0"/>
        <pt x="238" y="598" on="0"/>
        <pt x="179" y="598" on="0"/>
        <pt x="105" y="641" on="0"/>
        <pt x="86" y="641" on="1"/>
        <pt x="57" y="641" on="0"/>
        <pt x="21" y="598" on="1"/>
        <pt x="4" y="602" on="0"/>
        <pt x="-14" y="619" on="1"/>
      </contour>
    </TTGlyph>
    <TTGlyph name="j" xMin="-22" yMin="-233" xMax="217" yMax="718">
      <contour>
        <pt x="217" y="593" on="0"/>
        <pt x="104" y="593" on="0"/>
        <pt x="104" y="718" on="0"/>
        <pt x="217" y="718" on="0"/>
      </contour>
      <contour>
        <pt x="125" y="79" on="1"/>
        <pt x="217" y="79" on="1"/>
        <pt x="217" y="-35" on="1"/>
        <pt x="217" y="-178" on="0"/>
        <pt x="158" y="-216" on="1"/>
        <pt x="132" y="-233" on="0"/>
        <pt x="43" y="-233" on="0"/>
        <pt x="-22" y="-193" on="0"/>
        <pt x="-22" y="-150" on="1"/>
        <pt x="-22" y="-125" on="0"/>
        <pt x="6" y="-91" on="0"/>
        <pt x="59" y="-91" on="0"/>
        <pt x="71" y="-112" on="1"/>
        <pt x="55" y="-126" on="0"/>
        <pt x="55" y="-164" on="0"/>
        <pt x="76" y="-186" on="0"/>
        <pt x="95" y="-186" on="1"/>
        <pt x="138" y="-186" on="0"/>
        <pt x="138" y="-116" on="1"/>
        <pt x="138" y="-81" on="0"/>
        <pt x="125" y="28" on="0"/>
      </contour>
      <contour>
        <pt x="125" y="79" on="1"/>
        <pt x="125" y="376" on="1"/>
        <pt x="125" y="416" on="0"/>
        <pt x="92" y="445" on="0"/>
        <pt x="50" y="447" on="1"/>
        <pt x="53" y="479" on="1"/>
        <pt x="94" y="486" on="0"/>
        <pt x="196" y="516" on="1"/>
        <pt x="217" y="505" on="1"/>
        <pt x="217" y="79" on="1"/>
      </contour>
    </TTGlyph>
    <TTGlyph name="jcircumflex" xMin="-22" yMin="-233" xMax="287" yMax="733">
      <contour>
        <pt x="125" y="79" on="1"/>
        <pt x="125" y="376" on="1"/>
        <pt x="125" y="416" on="0"/>
        <pt x="92" y="445" on="0"/>
        <pt x="50" y="447" on="1"/>
        <pt x="53" y="479" on="1"/>
        <pt x="94" y="486" on="0"/>
        <pt x="196" y="516" on="1"/>
        <pt x="217" y="505" on="1"/>
        <pt x="217" y="-35" on="1"/>
        <pt x="217" y="-178" on="0"/>
        <pt x="158" y="-216" on="1"/>
        <pt x="132" y="-233" on="0"/>
        <pt x="43" y="-233" on="0"/>
        <pt x="-22" y="-193" on="0"/>
        <pt x="-22" y="-150" on="1"/>
        <pt x="-22" y="-125" on="0"/>
        <pt x="6" y="-91" on="0"/>
        <pt x="59" y="-91" on="0"/>
        <pt x="71" y="-112" on="1"/>
        <pt x="55" y="-126" on="0"/>
        <pt x="55" y="-164" on="0"/>
        <pt x="76" y="-186" on="0"/>
        <pt x="95" y="-186" on="1"/>
        <pt x="138" y="-186" on="0"/>
        <pt x="138" y="-116" on="1"/>
        <pt x="138" y="-81" on="0"/>
        <pt x="125" y="28" on="0"/>
      </contour>
      <contour>
        <pt x="120" y="716" on="1"/>
        <pt x="134" y="733" on="0"/>
        <pt x="173" y="733" on="0"/>
        <pt x="187" y="716" on="1"/>
        <pt x="287" y="601" on="1"/>
        <pt x="263" y="575" on="1"/>
        <pt x="153" y="658" on="1"/>
        <pt x="44" y="575" on="1"/>
        <pt x="20" y="601" on="1"/>
      </contour>
    </TTGlyph>
    <TTGlyph name="k" xMin="35" yMin="0" xMax="564" yMax="730">
      <contour>
        <pt x="110" y="590" on="1"/>
        <pt x="110" y="630" on="0"/>
        <pt x="77" y="659" on="0"/>
        <pt x="35" y="661" on="1"/>
        <pt x="38" y="693" on="1"/>
        <pt x="79" y="700" on="0"/>
        <pt x="181" y="730" on="1"/>
        <pt x="202" y="719" on="1"/>
        <pt x="202" y="298" on="1"/>
        <pt x="341" y="446" on="1"/>
        <pt x="362" y="467" on="0"/>
        <pt x="374" y="506" on="1"/>
        <pt x="518" y="506" on="1"/>
        <pt x="521" y="474" on="1"/>
        <pt x="448" y="471" on="0"/>
        <pt x="406" y="427" on="1"/>
        <pt x="310" y="328" on="1"/>
        <pt x="467" y="68" on="1"/>
        <pt x="502" y="46" on="0"/>
        <pt x="564" y="37" on="1"/>
        <pt x="560" y="0" on="1"/>
        <pt x="406" y="0" on="1"/>
        <pt x="249" y="265" on="1"/>
        <pt x="202" y="217" on="1"/>
        <pt x="202" y="66" on="1"/>
        <pt x="229" y="46" on="0"/>
        <pt x="277" y="37" on="1"/>
        <pt x="273" y="0" on="1"/>
        <pt x="35" y="0" on="1"/>
        <pt x="39" y="39" on="1"/>
        <pt x="82" y="46" on="0"/>
        <pt x="110" y="66" on="1"/>
      </contour>
    </TTGlyph>
    <TTGlyph name="kcommaaccent" xMin="35" yMin="-233" xMax="564" yMax="730">
      <contour>
        <pt x="110" y="590" on="1"/>
        <pt x="110" y="630" on="0"/>
        <pt x="77" y="659" on="0"/>
        <pt x="35" y="661" on="1"/>
        <pt x="38" y="693" on="1"/>
        <pt x="79" y="700" on="0"/>
        <pt x="181" y="730" on="1"/>
        <pt x="202" y="719" on="1"/>
        <pt x="202" y="298" on="1"/>
        <pt x="341" y="446" on="1"/>
        <pt x="362" y="467" on="0"/>
        <pt x="374" y="506" on="1"/>
        <pt x="518" y="506" on="1"/>
        <pt x="521" y="474" on="1"/>
        <pt x="448" y="471" on="0"/>
        <pt x="406" y="427" on="1"/>
        <pt x="310" y="328" on="1"/>
        <pt x="467" y="68" on="1"/>
        <pt x="502" y="46" on="0"/>
        <pt x="564" y="37" on="1"/>
        <pt x="560" y="0" on="1"/>
        <pt x="406" y="0" on="1"/>
        <pt x="249" y="265" on="1"/>
        <pt x="202" y="217" on="1"/>
        <pt x="202" y="66" on="1"/>
        <pt x="229" y="46" on="0"/>
        <pt x="277" y="37" on="1"/>
        <pt x="273" y="0" on="1"/>
        <pt x="35" y="0" on="1"/>
        <pt x="39" y="39" on="1"/>
        <pt x="82" y="46" on="0"/>
        <pt x="110" y="66" on="1"/>
      </contour>
      <contour>
        <pt x="270" y="-219" on="1"/>
        <pt x="289" y="-169" on="0"/>
        <pt x="289" y="-90" on="0"/>
        <pt x="265" y="-69" on="1"/>
        <pt x="282" y="-45" on="0"/>
        <pt x="332" y="-45" on="0"/>
        <pt x="362" y="-73" on="0"/>
        <pt x="362" y="-96" on="1"/>
        <pt x="362" y="-157" on="0"/>
        <pt x="303" y="-233" on="1"/>
      </contour>
    </TTGlyph>
    <TTGlyph name="l" xMin="33" yMin="0" xMax="275" yMax="730">
      <contour>
        <pt x="108" y="590" on="1"/>
        <pt x="108" y="630" on="0"/>
        <pt x="75" y="659" on="0"/>
        <pt x="33" y="661" on="1"/>
        <pt x="36" y="693" on="1"/>
        <pt x="77" y="700" on="0"/>
        <pt x="179" y="730" on="1"/>
        <pt x="200" y="719" on="1"/>
        <pt x="200" y="66" on="1"/>
        <pt x="227" y="46" on="0"/>
        <pt x="275" y="37" on="1"/>
        <pt x="271" y="0" on="1"/>
        <pt x="33" y="0" on="1"/>
        <pt x="37" y="39" on="1"/>
        <pt x="80" y="46" on="0"/>
        <pt x="108" y="66" on="1"/>
      </contour>
    </TTGlyph>
    <TTGlyph name="ldot" xMin="33" yMin="0" xMax="379" yMax="730">
      <contour>
        <pt x="108" y="590" on="1"/>
        <pt x="108" y="630" on="0"/>
        <pt x="75" y="659" on="0"/>
        <pt x="33" y="661" on="1"/>
        <pt x="36" y="693" on="1"/>
        <pt x="77" y="700" on="0"/>
        <pt x="179" y="730" on="1"/>
        <pt x="200" y="719" on="1"/>
        <pt x="200" y="66" on="1"/>
        <pt x="227" y="46" on="0"/>
        <pt x="275" y="37" on="1"/>
        <pt x="271" y="0" on="1"/>
        <pt x="33" y="0" on="1"/>
        <pt x="37" y="39" on="1"/>
        <pt x="80" y="46" on="0"/>
        <pt x="108" y="66" on="1"/>
      </contour>
      <contour>
        <pt x="350" y="506" on="0"/>
        <pt x="302" y="506" on="0"/>
        <pt x="274" y="538" on="0"/>
        <pt x="274" y="584" on="0"/>
        <pt x="303" y="615" on="0"/>
        <pt x="350" y="615" on="0"/>
        <pt x="379" y="584" on="0"/>
        <pt x="379" y="538" on="0"/>
      </contour>
    </TTGlyph>
    <TTGlyph name="less" xMin="65" yMin="65" xMax="505" yMax="512">
      <contour>
        <pt x="65" y="261" on="1"/>
        <pt x="65" y="316" on="1"/>
        <pt x="478" y="512" on="1"/>
        <pt x="505" y="457" on="1"/>
        <pt x="150" y="288" on="1"/>
        <pt x="505" y="120" on="1"/>
        <pt x="478" y="65" on="1"/>
      </contour>
    </TTGlyph>
    <TTGlyph name="logicalnot" xMin="65" yMin="153" xMax="486" yMax="391">
      <contour>
        <pt x="65" y="334" on="1"/>
        <pt x="65" y="391" on="1"/>
        <pt x="486" y="391" on="1"/>
        <pt x="486" y="334" on="1"/>
      </contour>
      <contour>
        <pt x="65" y="153" on="1"/>
        <pt x="65" y="334" on="1"/>
        <pt x="130" y="334" on="1"/>
        <pt x="130" y="153" on="1"/>
      </contour>
    </TTGlyph>
    <TTGlyph name="lslash" xMin="6" yMin="0" xMax="301" yMax="730">
      <contour>
        <pt x="110" y="590" on="1"/>
        <pt x="110" y="630" on="0"/>
        <pt x="77" y="659" on="0"/>
        <pt x="35" y="661" on="1"/>
        <pt x="38" y="693" on="1"/>
        <pt x="79" y="700" on="0"/>
        <pt x="181" y="730" on="1"/>
        <pt x="202" y="719" on="1"/>
        <pt x="202" y="418" on="1"/>
        <pt x="296" y="461" on="1"/>
        <pt x="301" y="417" on="1"/>
        <pt x="202" y="371" on="1"/>
        <pt x="202" y="66" on="1"/>
        <pt x="229" y="46" on="0"/>
        <pt x="277" y="37" on="1"/>
        <pt x="273" y="0" on="1"/>
        <pt x="35" y="0" on="1"/>
        <pt x="39" y="39" on="1"/>
        <pt x="82" y="46" on="0"/>
        <pt x="110" y="66" on="1"/>
        <pt x="110" y="329" on="1"/>
        <pt x="11" y="284" on="1"/>
        <pt x="6" y="328" on="1"/>
        <pt x="110" y="375" on="1"/>
      </contour>
    </TTGlyph>
    <TTGlyph name="m" xMin="34" yMin="0" xMax="840" yMax="513">
      <contour>
        <pt x="109" y="374" on="1"/>
        <pt x="109" y="414" on="0"/>
        <pt x="76" y="443" on="0"/>
        <pt x="34" y="445" on="1"/>
        <pt x="37" y="477" on="1"/>
        <pt x="59" y="481" on="0"/>
        <pt x="169" y="513" on="1"/>
        <pt x="188" y="503" on="1"/>
        <pt x="196" y="447" on="1"/>
        <pt x="204" y="457" on="0"/>
        <pt x="229" y="481" on="0"/>
        <pt x="292" y="513" on="0"/>
        <pt x="324" y="513" on="1"/>
        <pt x="421" y="513" on="0"/>
        <pt x="462" y="443" on="1"/>
        <pt x="532" y="513" on="0"/>
        <pt x="674" y="513" on="0"/>
        <pt x="765" y="435" on="0"/>
        <pt x="765" y="351" on="1"/>
        <pt x="765" y="66" on="1"/>
        <pt x="790" y="47" on="0"/>
        <pt x="840" y="37" on="1"/>
        <pt x="836" y="0" on="1"/>
        <pt x="599" y="0" on="1"/>
        <pt x="602" y="37" on="1"/>
        <pt x="642" y="43" on="0"/>
        <pt x="673" y="66" on="1"/>
        <pt x="673" y="354" on="1"/>
        <pt x="673" y="461" on="0"/>
        <pt x="592" y="461" on="1"/>
        <pt x="556" y="461" on="0"/>
        <pt x="493" y="408" on="0"/>
        <pt x="483" y="377" on="1"/>
        <pt x="483" y="66" on="1"/>
        <pt x="508" y="47" on="0"/>
        <pt x="558" y="37" on="1"/>
        <pt x="554" y="0" on="1"/>
        <pt x="317" y="0" on="1"/>
        <pt x="320" y="37" on="1"/>
        <pt x="360" y="43" on="0"/>
        <pt x="391" y="66" on="1"/>
        <pt x="391" y="354" on="1"/>
        <pt x="391" y="461" on="0"/>
        <pt x="310" y="461" on="1"/>
        <pt x="274" y="461" on="0"/>
        <pt x="211" y="408" on="0"/>
        <pt x="201" y="377" on="1"/>
        <pt x="201" y="66" on="1"/>
        <pt x="228" y="46" on="0"/>
        <pt x="276" y="37" on="1"/>
        <pt x="272" y="0" on="1"/>
        <pt x="34" y="0" on="1"/>
        <pt x="38" y="39" on="1"/>
        <pt x="81" y="46" on="0"/>
        <pt x="109" y="66" on="1"/>
      </contour>
    </TTGlyph>
    <TTGlyph name="macron" xMin="37" yMin="615" xMax="337" yMax="672">
      <contour>
        <pt x="37" y="615" on="1"/>
        <pt x="37" y="672" on="1"/>
        <pt x="337" y="672" on="1"/>
        <pt x="337" y="615" on="1"/>
      </contour>
    </TTGlyph>
    <TTGlyph name="mu" xMin="16" yMin="-221" xMax="557" yMax="516">
      <contour>
        <pt x="91" y="-221" on="1"/>
        <pt x="91" y="376" on="1"/>
        <pt x="91" y="416" on="0"/>
        <pt x="58" y="445" on="0"/>
        <pt x="16" y="447" on="1"/>
        <pt x="19" y="479" on="1"/>
        <pt x="60" y="486" on="0"/>
        <pt x="162" y="516" on="1"/>
        <pt x="183" y="505" on="1"/>
        <pt x="183" y="154" on="1"/>
        <pt x="183" y="41" on="0"/>
        <pt x="276" y="41" on="1"/>
        <pt x="304" y="41" on="0"/>
        <pt x="366" y="82" on="0"/>
        <pt x="390" y="126" on="1"/>
        <pt x="390" y="376" on="1"/>
        <pt x="390" y="416" on="0"/>
        <pt x="357" y="445" on="0"/>
        <pt x="315" y="447" on="1"/>
        <pt x="318" y="479" on="1"/>
        <pt x="359" y="486" on="0"/>
        <pt x="461" y="516" on="1"/>
        <pt x="482" y="505" on="1"/>
        <pt x="482" y="66" on="1"/>
        <pt x="507" y="47" on="0"/>
        <pt x="557" y="37" on="1"/>
        <pt x="553" y="0" on="1"/>
        <pt x="410" y="0" on="1"/>
        <pt x="399" y="68" on="1"/>
        <pt x="341" y="-8" on="0"/>
        <pt x="264" y="-8" on="1"/>
        <pt x="220" y="-8" on="0"/>
        <pt x="183" y="5" on="1"/>
        <pt x="183" y="-221" on="1"/>
      </contour>
    </TTGlyph>
    <TTGlyph name="multiply" xMin="75" yMin="90" xMax="470" yMax="480">
      <contour>
        <pt x="119" y="90" on="1"/>
        <pt x="75" y="136" on="1"/>
        <pt x="227" y="286" on="1"/>
        <pt x="78" y="434" on="1"/>
        <pt x="122" y="480" on="1"/>
        <pt x="272" y="331" on="1"/>
        <pt x="423" y="480" on="1"/>
        <pt x="467" y="434" on="1"/>
        <pt x="318" y="286" on="1"/>
        <pt x="470" y="136" on="1"/>
        <pt x="426" y="90" on="1"/>
        <pt x="272" y="241" on="1"/>
      </contour>
    </TTGlyph>
    <TTGlyph name="n" xMin="33" yMin="0" xMax="580" yMax="513">
      <contour>
        <pt x="108" y="374" on="1"/>
        <pt x="108" y="414" on="0"/>
        <pt x="75" y="443" on="0"/>
        <pt x="33" y="445" on="1"/>
        <pt x="36" y="477" on="1"/>
        <pt x="58" y="481" on="0"/>
        <pt x="168" y="513" on="1"/>
        <pt x="187" y="503" on="1"/>
        <pt x="197" y="436" on="1"/>
        <pt x="253" y="513" on="0"/>
        <pt x="417" y="513" on="0"/>
        <pt x="505" y="434" on="0"/>
        <pt x="505" y="364" on="1"/>
        <pt x="505" y="66" on="1"/>
        <pt x="530" y="47" on="0"/>
        <pt x="580" y="37" on="1"/>
        <pt x="576" y="0" on="1"/>
        <pt x="339" y="0" on="1"/>
        <pt x="342" y="37" on="1"/>
        <pt x="382" y="43" on="0"/>
        <pt x="413" y="66" on="1"/>
        <pt x="413" y="354" on="1"/>
        <pt x="413" y="461" on="0"/>
        <pt x="321" y="461" on="1"/>
        <pt x="284" y="461" on="0"/>
        <pt x="216" y="411" on="0"/>
        <pt x="200" y="371" on="1"/>
        <pt x="200" y="66" on="1"/>
        <pt x="227" y="46" on="0"/>
        <pt x="275" y="37" on="1"/>
        <pt x="271" y="0" on="1"/>
        <pt x="33" y="0" on="1"/>
        <pt x="37" y="39" on="1"/>
        <pt x="80" y="46" on="0"/>
        <pt x="108" y="66" on="1"/>
      </contour>
    </TTGlyph>
    <TTGlyph name="nacute" xMin="33" yMin="0" xMax="580" yMax="734">
      <contour>
        <pt x="108" y="374" on="1"/>
        <pt x="108" y="414" on="0"/>
        <pt x="75" y="443" on="0"/>
        <pt x="33" y="445" on="1"/>
        <pt x="36" y="477" on="1"/>
        <pt x="58" y="481" on="0"/>
        <pt x="168" y="513" on="1"/>
        <pt x="187" y="503" on="1"/>
        <pt x="197" y="436" on="1"/>
        <pt x="253" y="513" on="0"/>
        <pt x="417" y="513" on="0"/>
        <pt x="505" y="434" on="0"/>
        <pt x="505" y="364" on="1"/>
        <pt x="505" y="66" on="1"/>
        <pt x="530" y="47" on="0"/>
        <pt x="580" y="37" on="1"/>
        <pt x="576" y="0" on="1"/>
        <pt x="339" y="0" on="1"/>
        <pt x="342" y="37" on="1"/>
        <pt x="382" y="43" on="0"/>
        <pt x="413" y="66" on="1"/>
        <pt x="413" y="354" on="1"/>
        <pt x="413" y="461" on="0"/>
        <pt x="321" y="461" on="1"/>
        <pt x="284" y="461" on="0"/>
        <pt x="216" y="411" on="0"/>
        <pt x="200" y="371" on="1"/>
        <pt x="200" y="66" on="1"/>
        <pt x="227" y="46" on="0"/>
        <pt x="275" y="37" on="1"/>
        <pt x="271" y="0" on="1"/>
        <pt x="33" y="0" on="1"/>
        <pt x="37" y="39" on="1"/>
        <pt x="80" y="46" on="0"/>
        <pt x="108" y="66" on="1"/>
      </contour>
      <contour>
        <pt x="334" y="716" on="1"/>
        <pt x="345" y="734" on="0"/>
        <pt x="384" y="734" on="0"/>
        <pt x="407" y="711" on="0"/>
        <pt x="407" y="677" on="0"/>
        <pt x="380" y="655" on="1"/>
        <pt x="268" y="565" on="1"/>
        <pt x="244" y="591" on="1"/>
      </contour>
    </TTGlyph>
    <TTGlyph name="nine" xMin="41" yMin="-11" xMax="488" yMax="655">
      <contour>
        <pt x="245" y="257" on="1"/>
        <pt x="154" y="257" on="0"/>
        <pt x="41" y="361" on="0"/>
        <pt x="41" y="539" on="0"/>
        <pt x="162" y="655" on="0"/>
        <pt x="373" y="655" on="0"/>
        <pt x="488" y="524" on="0"/>
        <pt x="488" y="404" on="1"/>
        <pt x="488" y="244" on="0"/>
        <pt x="295" y="36" on="0"/>
        <pt x="130" y="-11" on="1"/>
        <pt x="113" y="27" on="1"/>
        <pt x="223" y="72" on="0"/>
        <pt x="354" y="197" on="0"/>
        <pt x="376" y="294" on="1"/>
        <pt x="315" y="257" on="0"/>
      </contour>
      <contour>
        <pt x="387" y="368" on="1"/>
        <pt x="388" y="404" on="1"/>
        <pt x="388" y="605" on="0"/>
        <pt x="260" y="605" on="1"/>
        <pt x="203" y="605" on="0"/>
        <pt x="141" y="522" on="0"/>
        <pt x="141" y="381" on="0"/>
        <pt x="200" y="307" on="0"/>
        <pt x="255" y="307" on="1"/>
        <pt x="331" y="307" on="0"/>
      </contour>
    </TTGlyph>
    <TTGlyph name="ntilde" xMin="33" yMin="0" xMax="580" yMax="708">
      <contour>
        <pt x="108" y="374" on="1"/>
        <pt x="108" y="414" on="0"/>
        <pt x="75" y="443" on="0"/>
        <pt x="33" y="445" on="1"/>
        <pt x="36" y="477" on="1"/>
        <pt x="58" y="481" on="0"/>
        <pt x="168" y="513" on="1"/>
        <pt x="187" y="503" on="1"/>
        <pt x="197" y="436" on="1"/>
        <pt x="253" y="513" on="0"/>
        <pt x="417" y="513" on="0"/>
        <pt x="505" y="434" on="0"/>
        <pt x="505" y="364" on="1"/>
        <pt x="505" y="66" on="1"/>
        <pt x="530" y="47" on="0"/>
        <pt x="580" y="37" on="1"/>
        <pt x="576" y="0" on="1"/>
        <pt x="339" y="0" on="1"/>
        <pt x="342" y="37" on="1"/>
        <pt x="382" y="43" on="0"/>
        <pt x="413" y="66" on="1"/>
        <pt x="413" y="354" on="1"/>
        <pt x="413" y="461" on="0"/>
        <pt x="321" y="461" on="1"/>
        <pt x="284" y="461" on="0"/>
        <pt x="216" y="411" on="0"/>
        <pt x="200" y="371" on="1"/>
        <pt x="200" y="66" on="1"/>
        <pt x="227" y="46" on="0"/>
        <pt x="275" y="37" on="1"/>
        <pt x="271" y="0" on="1"/>
        <pt x="33" y="0" on="1"/>
        <pt x="37" y="39" on="1"/>
        <pt x="80" y="46" on="0"/>
        <pt x="108" y="66" on="1"/>
      </contour>
      <contour>
        <pt x="152" y="650" on="0"/>
        <pt x="208" y="708" on="0"/>
        <pt x="271" y="708" on="0"/>
        <pt x="350" y="665" on="0"/>
        <pt x="370" y="665" on="1"/>
        <pt x="404" y="665" on="0"/>
        <pt x="441" y="708" on="1"/>
        <pt x="459" y="701" on="0"/>
        <pt x="476" y="687" on="1"/>
        <pt x="463" y="655" on="0"/>
        <pt x="407" y="598" on="0"/>
        <pt x="343" y="598" on="0"/>
        <pt x="265" y="641" on="0"/>
        <pt x="244" y="641" on="1"/>
        <pt x="211" y="641" on="0"/>
        <pt x="174" y="598" on="1"/>
        <pt x="157" y="602" on="0"/>
        <pt x="139" y="619" on="1"/>
      </contour>
    </TTGlyph>
    <TTGlyph name="numbersign" xMin="27" yMin="-9" xMax="577" yMax="514">
      <contour>
        <pt x="117" y="5" on="1"/>
        <pt x="150" y="130" on="1"/>
        <pt x="27" y="130" on="1"/>
        <pt x="38" y="187" on="1"/>
        <pt x="166" y="187" on="1"/>
        <pt x="202" y="323" on="1"/>
        <pt x="83" y="323" on="1"/>
        <pt x="94" y="380" on="1"/>
        <pt x="218" y="380" on="1"/>
        <pt x="254" y="514" on="1"/>
        <pt x="309" y="501" on="1"/>
        <pt x="276" y="380" on="1"/>
        <pt x="409" y="380" on="1"/>
        <pt x="445" y="514" on="1"/>
        <pt x="500" y="501" on="1"/>
        <pt x="467" y="380" on="1"/>
        <pt x="577" y="380" on="1"/>
        <pt x="566" y="323" on="1"/>
        <pt x="452" y="323" on="1"/>
        <pt x="415" y="187" on="1"/>
        <pt x="521" y="187" on="1"/>
        <pt x="510" y="130" on="1"/>
        <pt x="399" y="130" on="1"/>
        <pt x="362" y="-9" on="1"/>
        <pt x="308" y="5" on="1"/>
        <pt x="341" y="130" on="1"/>
        <pt x="208" y="130" on="1"/>
        <pt x="171" y="-9" on="1"/>
      </contour>
      <contour>
        <pt x="224" y="187" on="1"/>
        <pt x="357" y="187" on="1"/>
        <pt x="393" y="323" on="1"/>
        <pt x="261" y="323" on="1"/>
      </contour>
    </TTGlyph>
    <TTGlyph name="o" xMin="41" yMin="-8" xMax="487" yMax="513">
      <contour>
        <pt x="137" y="141" on="0"/>
        <pt x="197" y="42" on="0"/>
        <pt x="332" y="42" on="0"/>
        <pt x="392" y="141" on="0"/>
        <pt x="392" y="364" on="0"/>
        <pt x="332" y="463" on="0"/>
        <pt x="196" y="463" on="0"/>
        <pt x="137" y="365" on="0"/>
      </contour>
      <contour>
        <pt x="374" y="-8" on="0"/>
        <pt x="154" y="-8" on="0"/>
        <pt x="41" y="125" on="0"/>
        <pt x="41" y="380" on="0"/>
        <pt x="154" y="513" on="0"/>
        <pt x="374" y="513" on="0"/>
        <pt x="487" y="380" on="0"/>
        <pt x="487" y="125" on="0"/>
      </contour>
    </TTGlyph>
    <TTGlyph name="oacute" xMin="41" yMin="-8" xMax="487" yMax="734">
      <contour>
        <pt x="137" y="141" on="0"/>
        <pt x="197" y="42" on="0"/>
        <pt x="332" y="42" on="0"/>
        <pt x="392" y="141" on="0"/>
        <pt x="392" y="364" on="0"/>
        <pt x="332" y="463" on="0"/>
        <pt x="196" y="463" on="0"/>
        <pt x="137" y="365" on="0"/>
      </contour>
      <contour>
        <pt x="374" y="-8" on="0"/>
        <pt x="154" y="-8" on="0"/>
        <pt x="41" y="125" on="0"/>
        <pt x="41" y="380" on="0"/>
        <pt x="154" y="513" on="0"/>
        <pt x="374" y="513" on="0"/>
        <pt x="487" y="380" on="0"/>
        <pt x="487" y="125" on="0"/>
      </contour>
      <contour>
        <pt x="292" y="716" on="1"/>
        <pt x="303" y="734" on="0"/>
        <pt x="342" y="734" on="0"/>
        <pt x="365" y="711" on="0"/>
        <pt x="365" y="677" on="0"/>
        <pt x="338" y="655" on="1"/>
        <pt x="226" y="565" on="1"/>
        <pt x="202" y="591" on="1"/>
      </contour>
    </TTGlyph>
</ttFont>
